<svg xmlns="http://www.w3.org/2000/svg" version="1.0" viewBox="0 0 1133.858 1133.858"><path fill="#001b47" d="M365.47,1053.473c0,0-78.162-32.468-64.934-144.302c13.229-111.835,20.447-163.056,20.447-172.677 c0-9.621,7.941-115.639,5.538-122.853c-2.407-7.216-13.229-24.052-1.204-30.064c12.027-6.012,16.836,0,16.836,0 s1.203-13.428,13.229-10.32c12.025,3.105,10.822,15.131,10.822,15.131s7.214-16.837,15.631-9.621 c8.419,7.214,12.023,20.444,0,42.088c1.203,37.278,0.289,151.229,6.995,162.052c6.703,10.822,23.539,15.634,29.554,9.621 c6.011-6.014,6.011-28.862,0-45.697c-6.015-16.834,28.861-13.226,43.289-6.013c14.432,7.216,96.2,38.515,132.275,96.819 c36.074,58.306,66.141,100.395,81.772,147.291c15.632,46.898,45.696,78.163,46.897,93.797c1.203,15.633-47.94,29.887-65.194,4.093 c-14.278-21.345-32.21-73.839-44.233-61.813c-12.027,12.025-13.227,16.836-13.227,16.836s2.404,40.886-21.647,46.899 c-24.05,6.011-38.481-3.608-46.897-4.811c-8.417-1.204-32.469,18.037-57.721,18.037c-25.253,0-25.253,2.405-31.268,0 c-6.01-2.404-146.704-19.24-168.348-14.429c-21.646,4.811-168.354,30.998-193.608,15.501 c-25.251-15.501-33.671-37.145-16.836-46.766c16.836-9.622,25.255-7.216,40.887-3.607c15.632,3.607,105.821-1.204,133.481-4.811 C265.661,1040.246,358.255,1046.258,365.47,1053.473z"/><path fill="#FFF" d="M489.335,773.88c-0.997,0-1.805-0.806-1.805-1.804c0-4.287-10.756-12.937-18.393-17.711 c-0.844-0.526-1.102-1.639-0.572-2.486c0.527-0.841,1.639-1.102,2.486-0.572c3.352,2.096,20.086,12.951,20.086,20.769 C491.138,773.074,490.332,773.88,489.335,773.88z"/><path fill="#FFF" d="M406.363,1051.66c-0.22,0-0.44-0.036-0.657-0.122l-27.658-10.821c-0.93-0.364-1.387-1.412-1.025-2.338 c0.365-0.929,1.417-1.39,2.338-1.024l27.658,10.822c0.931,0.363,1.387,1.408,1.023,2.337 C407.763,1051.227,407.083,1051.66,406.363,1051.66z"/><path fill="#FFF" d="M392.532,1063.686c-0.998,0-1.805-0.807-1.805-1.802v-32.467c0-0.999,0.807-1.805,1.805-1.805 c0.996,0,1.803,0.806,1.803,1.805v32.467C394.335,1062.879,393.528,1063.686,392.532,1063.686z"/><path fill="#FFF" d="M308.958,942.234c-0.842,0-1.596-0.592-1.768-1.451c-2.438-12.17-0.121-31.044-0.022-31.844 c0.126-0.988,1.03-1.687,2.015-1.566c0.989,0.125,1.688,1.026,1.566,2.015c-0.023,0.19-2.342,19.095-0.021,30.689 c0.194,0.976-0.438,1.926-1.415,2.122C309.193,942.223,309.075,942.234,308.958,942.234z"/><path fill="#FFF" d="M320.983,999.954c-0.461,0-0.924-0.175-1.275-0.527c-4.169-4.167-7.027-15.304-9.324-24.25 c-1.092-4.246-2.22-8.637-2.926-9.698c-0.552-0.83-0.326-1.949,0.5-2.5c0.83-0.552,1.948-0.329,2.502,0.5 c0.998,1.5,1.905,4.905,3.417,10.8c2.071,8.072,4.911,19.127,8.381,22.596c0.706,0.703,0.706,1.848,0,2.551 C321.904,999.778,321.444,999.954,320.983,999.954z"/><path fill="#FFF" d="M445.04,935.902c-28.186,0.002-43.477-16.545-49.785-25.717c-7.17-10.426-8.824-27.932-10.426-44.861 c-1.387-14.648-2.695-28.486-7.521-34.386c-10.516-12.849-24.459-38.865-24.459-45.633c0-1.107,0.385-2.694,2.229-3.953 c5.566-3.803,21.949-1.92,38.109,4.389c0.928,0.363,1.387,1.406,1.025,2.334c-0.363,0.932-1.414,1.387-2.336,1.027 c-15.895-6.205-30.809-7.472-34.766-4.77c-0.654,0.447-0.654,0.803-0.654,0.973c0,5.024,12.527,29.76,23.645,43.351 c5.521,6.749,6.881,21.115,8.318,36.327c1.559,16.472,3.172,33.502,9.811,43.16c8.317,12.097,33.309,37.784,85.573,15 c45.267-19.73,44.626-74.716,44.614-75.268c-0.021-0.998,0.771-1.823,1.766-1.844c0.014,0,0.025,0,0.038,0 c0.979,0,1.782,0.783,1.804,1.767c0.013,0.579,0.68,57.967-46.779,78.654C469.622,933.258,456.298,935.902,445.04,935.902z"/><path fill="#ac0d1a" d="M431.595,921.319c0,0-1.177,23.379,6.506,23.982c13.875,1.085,3.558-12.088,5.859-19.095 c2.303-7.005,0.781-5.75,0.781-5.75l-10.723-5.281L431.595,921.319z"/><path fill="#FFF" d="M417.043,929.265c-0.979,0-1.783-0.787-1.802-1.772c-0.018-0.995,0.776-1.814,1.771-1.833 c0.576-0.011,14.186-0.392,15.212-10.663c0.06-0.603,0.419-1.133,0.958-1.416c0.537-0.281,1.183-0.274,1.711,0.021 c0.888,0.49,1.719,0.96,2.5,1.4c8.697,4.91,9.815,5.542,14.401-0.872c0.581-0.812,1.708-1,2.513-0.419 c0.813,0.58,1,1.705,0.422,2.515c-6.463,9.048-10.426,6.817-19.109,1.917c-0.104-0.058-0.207-0.117-0.308-0.173 c-2.538,8.662-12.746,11.206-18.239,11.295C417.063,929.265,417.054,929.265,417.043,929.265z"/><path fill="#FFF" d="M453.261,1051.66c-0.488,0-0.975-0.196-1.332-0.583c-0.67-0.735-0.621-1.876,0.113-2.549 c1.792-1.642,44.383-40.166,90.344-36.543c49.367,3.898,59.54,16.229,59.38,25.886c-0.015,0.986-0.821,1.775-1.802,1.775 c-0.012,0-0.021,0-0.031,0c-0.998-0.018-1.791-0.837-1.774-1.833c0.087-5.348-5.197-18.216-56.058-22.23 c-44.369-3.528-87.195,35.214-87.621,35.605C454.134,1051.503,453.697,1051.66,453.261,1051.66z"/><path fill="#FFF" d="M336.612,929.265c-0.924,0-1.713-0.706-1.795-1.644c-0.088-0.995,0.646-1.868,1.639-1.957l69.748-6.14 c1.02-0.088,1.867,0.646,1.955,1.636c0.088,0.995-0.646,1.867-1.637,1.955l-69.75,6.143 C336.718,929.263,336.667,929.265,336.612,929.265z"/><path fill="#FFF" d="M336.617,966.285c-0.651,0-1.278-0.355-1.603-0.97c-0.459-0.883-0.117-1.972,0.766-2.434l75.945-39.683 c0.879-0.461,1.973-0.121,2.434,0.765c0.461,0.881,0.117,1.972-0.765,2.434l-75.945,39.682 C337.183,966.219,336.897,966.285,336.617,966.285z"/><path fill="#FFF" d="M354.655,973.498c-0.587,0-1.164-0.284-1.511-0.813c-0.546-0.833-0.315-1.95,0.517-2.499l67.342-44.233 c0.832-0.542,1.949-0.315,2.5,0.518c0.547,0.833,0.316,1.95-0.519,2.497l-67.343,44.235 C355.337,973.403,354.993,973.498,354.655,973.498z"/><path fill="#FFF" d="M464.086,896.573c-0.55,0-1.089-0.25-1.443-0.72c-0.599-0.795-0.44-1.924,0.354-2.524l92.592-69.781 c0.797-0.599,1.926-0.438,2.528,0.355c0.598,0.795,0.438,1.924-0.356,2.527l-92.592,69.778 C464.845,896.453,464.462,896.573,464.086,896.573z"/><path fill="#FFF" d="M470.096,905.023c-0.638,0-1.255-0.337-1.585-0.936c-0.478-0.876-0.156-1.97,0.717-2.448l101.012-55.386 c0.873-0.484,1.969-0.159,2.448,0.714c0.479,0.875,0.157,1.97-0.716,2.448L470.96,904.801 C470.687,904.952,470.388,905.023,470.096,905.023z"/><path fill="#FFF" d="M479.713,905.023c-0.841,0-1.593-0.588-1.765-1.445c-0.199-0.976,0.43-1.927,1.408-2.124l82.973-16.905 c0.972-0.197,1.928,0.428,2.125,1.408c0.201,0.975-0.428,1.927-1.406,2.127l-82.973,16.902 C479.952,905.012,479.833,905.023,479.713,905.023z"/><path fill="#FFF" d="M411.618,886.175c-3.007-8.486-10.375-13.619-16.453-11.463c-6.083,2.155-8.573,10.78-5.563,19.268 c3.007,8.489,10.372,13.618,16.452,11.463C412.134,903.288,414.625,894.664,411.618,886.175z"/><path fill="#FFF" d="M467.247,861.959c-3.01-8.485-12.699-12.795-21.645-9.625c-8.951,3.17-13.765,12.622-10.756,21.107 c3.01,8.488,12.697,12.794,21.645,9.624C465.437,879.894,470.252,870.448,467.247,861.959z"/><path fill="#e54c42" d="M403.855,895.503c-0.669,0-1.311-0.373-1.623-1.014c-1.69-3.473-3.768-9.239-3.855-9.481 c-0.335-0.938,0.152-1.971,1.09-2.308c0.929-0.337,1.97,0.149,2.306,1.09c0.023,0.057,2.098,5.825,3.703,9.121 c0.436,0.894,0.064,1.973-0.832,2.412C404.39,895.444,404.121,895.503,403.855,895.503z"/><path fill="#e54c42" d="M457.026,872.486c-0.838,0-1.59-0.584-1.766-1.437c-0.387-1.855-3.706-7.214-5.708-10.157 c-0.56-0.825-0.346-1.946,0.478-2.506c0.821-0.562,1.945-0.346,2.508,0.477c0.932,1.371,5.613,8.36,6.255,11.455 c0.206,0.973-0.424,1.927-1.399,2.133C457.271,872.476,457.147,872.486,457.026,872.486z"/><path fill="#FFF" d="M612.878,891.882c-0.5,0-0.999-0.208-1.355-0.614c-7.783-8.862-15.838-26.929-16.178-27.693 c-0.403-0.91,0.008-1.975,0.92-2.379c0.912-0.409,1.975,0.008,2.377,0.917c0.082,0.182,8.173,18.327,15.59,26.775 c0.66,0.747,0.586,1.886-0.164,2.544C613.724,891.732,613.302,891.882,612.878,891.882z"/><path fill="#FFF" d="M614.733,923.123c-0.347,0-0.697-0.1-1.006-0.309c-9.846-6.648-18.105-32.134-18.451-33.214 c-0.305-0.951,0.217-1.964,1.166-2.271c0.955-0.3,1.967,0.222,2.27,1.167c0.08,0.255,8.221,25.375,17.031,31.327 c0.828,0.559,1.045,1.679,0.487,2.504C615.882,922.845,615.313,923.123,614.733,923.123z"/><path fill="#FFF" d="M635.03,935.916c-0.688,0-1.344-0.392-1.646-1.06l-13.979-30.894c-0.41-0.906-0.006-1.976,0.9-2.386 c0.908-0.413,1.976-0.007,2.385,0.9l13.982,30.892c0.409,0.909,0.006,1.977-0.9,2.388 C635.53,935.867,635.276,935.916,635.03,935.916z"/><path fill="#FFF" d="M496.29,1031.219c-0.684,0-1.338-0.39-1.641-1.049c-0.418-0.907-0.021-1.978,0.884-2.394 c0.882-0.406,21.798-9.914,34.942-8.073c0.986,0.14,1.674,1.053,1.535,2.038c-0.137,0.988-1.055,1.687-2.038,1.535 c-12.101-1.716-32.728,7.682-32.931,7.776C496.797,1031.167,496.54,1031.219,496.29,1031.219z"/><path fill="#FFF" d="M526.614,1031.218c-0.545,0-1.084-0.246-1.438-0.714c-0.602-0.792-0.448-1.921,0.345-2.524 c0.428-0.325,10.654-7.968,21.943-4.355c0.949,0.303,1.473,1.317,1.168,2.267c-0.302,0.947-1.309,1.478-2.268,1.168 c-9.473-3.021-18.572,3.727-18.665,3.795C527.376,1031.1,526.995,1031.218,526.614,1031.218z"/><path fill="#FFF" d="M75.825,1084.623c-0.324,0-0.654-0.089-0.953-0.276c-4.539-2.837-6.975-6.291-7.24-10.264 c-0.478-7.288,6.741-13.336,7.048-13.592c0.765-0.633,1.897-0.525,2.536,0.241c0.636,0.768,0.529,1.905-0.238,2.541 c-0.059,0.048-6.11,5.146-5.743,10.585c0.185,2.744,2.052,5.245,5.551,7.43c0.845,0.529,1.101,1.642,0.571,2.488 C77.015,1084.323,76.426,1084.623,75.825,1084.623z"/><path fill="#FFF" d="M86.653,1074.156c-0.156,0-0.314-0.019-0.473-0.063c-0.961-0.259-1.531-1.25-1.271-2.212 c0.041-0.149,4.238-14.934,21.9-11.773c0.98,0.174,1.633,1.112,1.459,2.093c-0.174,0.981-1.111,1.628-2.094,1.459 c-14.455-2.586-17.654,8.681-17.781,9.162C88.175,1073.625,87.448,1074.156,86.653,1074.156z"/><path fill="#FFF" d="M129.938,1068.715c-0.813,0-1.551-0.552-1.749-1.377c-0.235-0.968,0.358-1.945,1.327-2.178 c9.379-2.272,16.689-2.78,23.761-3.274c5.263-0.366,10.231-0.708,15.701-1.772c0.975-0.2,1.923,0.445,2.113,1.427 c0.189,0.979-0.446,1.923-1.427,2.113c-5.688,1.106-10.763,1.458-16.137,1.833c-6.922,0.479-14.078,0.977-23.162,3.18 C130.224,1068.701,130.081,1068.715,129.938,1068.715z"/><path fill="#FFF" d="M204.509,1063.276h-20.631c-0.995,0-1.804-0.806-1.804-1.804c0-0.998,0.809-1.804,1.804-1.804h20.631 c0.998,0,1.805,0.806,1.805,1.804C206.313,1062.471,205.507,1063.276,204.509,1063.276z"/><path fill="#f39200" d="M534.904,128.02h-13.336v-13.338c0-1.712-1.391-3.099-3.1-3.099c-1.714,0-3.104,1.387-3.104,3.099v13.338 h-13.338c-1.71,0-3.101,1.388-3.101,3.1c0,1.712,1.391,3.102,3.101,3.102h13.338v13.337c0,1.712,1.39,3.102,3.104,3.102 c1.709,0,3.1-1.389,3.1-3.102v-13.337h13.336c1.713,0,3.102-1.389,3.102-3.102C538.006,129.408,536.617,128.02,534.904,128.02z"/><path fill="#f39200" d="M484.068,187.737h-9.701v-9.703c0-1.245-1.01-2.254-2.256-2.254c-1.244,0-2.255,1.009-2.255,2.254v9.703 h-9.703c-1.244,0-2.255,1.01-2.255,2.257c0,1.245,1.011,2.254,2.255,2.254h9.703v9.704c0,1.244,1.011,2.255,2.255,2.255 c1.246,0,2.256-1.012,2.256-2.255v-9.704h9.701c1.246,0,2.258-1.01,2.258-2.254C486.326,188.747,485.314,187.737,484.068,187.737z"/><path fill="#f39200" d="M614.161,193.633h-9.702v-9.702c0-1.245-1.009-2.254-2.254-2.254c-1.243,0-2.254,1.009-2.254,2.254v9.702 h-9.703c-1.245,0-2.259,1.009-2.259,2.254c0,1.248,1.014,2.257,2.259,2.257h9.703v9.701c0,1.246,1.011,2.257,2.254,2.257 c1.245,0,2.254-1.011,2.254-2.257v-9.701h9.702c1.247,0,2.258-1.009,2.258-2.257C616.419,194.643,615.408,193.633,614.161,193.633z"/><path fill="#f39200" d="M995.58,302.559h-9.704v-9.703c0-1.244-1.011-2.254-2.255-2.254c-1.246,0-2.256,1.01-2.256,2.254v9.703 h-9.703c-1.244,0-2.257,1.012-2.257,2.257c0,1.245,1.013,2.255,2.257,2.255h9.703v9.703c0,1.245,1.01,2.255,2.256,2.255 c1.244,0,2.255-1.01,2.255-2.255v-9.703h9.704c1.243,0,2.254-1.011,2.254-2.255C997.834,303.571,996.823,302.559,995.58,302.559z"/><path fill="#f39200" d="M1102.956,303.193h-9.703v-9.704c0-1.244-1.011-2.254-2.255-2.254c-1.246,0-2.256,1.011-2.256,2.254v9.704 h-9.701c-1.247,0-2.258,1.01-2.258,2.256c0,1.245,1.011,2.254,2.258,2.254h9.701v9.702c0,1.245,1.01,2.257,2.256,2.257 c1.244,0,2.255-1.012,2.255-2.257v-9.702h9.703c1.244,0,2.255-1.009,2.255-2.254C1105.211,304.203,1104.2,303.193,1102.956,303.193 z"/><path fill="#f39200" d="M1029.032,334.937h-7.983v-7.986c0-1.023-0.834-1.854-1.857-1.854c-1.025,0-1.856,0.831-1.856,1.854v7.986 h-7.985c-1.025,0-1.857,0.831-1.857,1.856c0,1.024,0.832,1.857,1.857,1.857h7.985v7.986c0,1.023,0.831,1.854,1.856,1.854 c1.023,0,1.857-0.831,1.857-1.854v-7.986h7.983c1.023,0,1.857-0.833,1.857-1.857 C1030.89,335.767,1030.056,334.937,1029.032,334.937z"/><path fill="#f39200" d="M1043.942,133.879h-14.425v-14.422c0-1.85-1.501-3.352-3.35-3.352c-1.854,0-3.354,1.502-3.354,3.352v14.422 h-14.423c-1.854,0-3.354,1.503-3.354,3.354c0,1.852,1.501,3.354,3.354,3.354h14.423v14.425c0,1.85,1.499,3.35,3.354,3.35 c1.849,0,3.35-1.5,3.35-3.35v-14.425h14.425c1.849,0,3.351-1.502,3.351-3.354C1047.293,135.382,1045.791,133.879,1043.942,133.879z"/><path fill="#3e98d4" d="M893.5,469.891c-3.099,3.332-36.896,41.001-8.786,81.734c0,0.017,0.034,0.017,0.034,0.048 c19.205,13.45,31.744,35.785,31.744,61.032c0,34.406-23.328,63.372-55.041,71.938c-8.566,3.335-19.977,16.562-27.081,25.669 c-3.703,4.714-6.243,8.333-6.631,8.921c-0.051,0.066-0.066,0.081-0.066,0.081c-8.5,8.924-20.468,14.463-33.747,14.463 c-15.84,0-29.844-7.913-38.26-20.014c-15.938-20.199-27.383-27.907-33.123-30.785c-2.457-1.212-3.873-1.567-4.191-1.633 c-0.05-0.03-0.067-0.03-0.067-0.03c-26.695-11.314-45.429-37.789-45.429-68.61c0-22.923,10.336-43.424,26.611-57.075v-0.033 c16.578-26.34,15.737-48.256,9.861-64.347c-2.69-7.355-6.428-13.499-10.029-18.278c-5.857-7.776-11.363-11.968-11.363-11.968 c-9.476-12.49-15.08-28.058-15.08-44.939c0-23.43,10.789-44.318,27.704-57.953c0,0,0-0.034,0.019-0.034 c29.925-41.809,2.475-71.667,0.151-74.09c-0.119-0.119-0.17-0.15-0.17-0.15c-16.915-13.651-27.704-34.541-27.704-57.969 c0-32.922,21.375-60.914,50.982-70.692c0,0,0.035,0,0.052-0.019c0.05,0,0.082-0.049,0.169-0.067c0.016,0,0.016-0.033,0.033-0.033 c1.818-0.876,13.11-6.95,23.612-27.602c2.846-23.009,22.454-40.817,46.222-40.817c17.738,0,33.157,9.895,41.035,24.471 c0,0,0,0.019,0.016,0.086c0.118,0.791,1.194,7.423,5.135,15.787c4.006,8.533,10.939,18.853,22.841,26.611c0,0,0,0,0.015,0 c0.791,0.521,1.6,1.027,2.426,1.515c18.867,6.244,34.402,19.81,43.205,37.348c3.804,7.558,6.346,15.856,7.373,24.61 c0.354,2.893,0.521,5.821,0.521,8.802c0,21.056-8.72,40.059-22.773,53.609c0,0-0.067,0.067-0.201,0.201 c-3.047,3.147-37.484,40.142-4.747,78.399l0.016,0.034c16.916,13.635,27.706,34.523,27.706,57.953 c0,21.039-8.72,40.042-22.773,53.589C893.719,469.654,893.651,469.739,893.5,469.891z"/><path fill="#001b47" d="M893.5,469.891c-3.099,3.332-36.896,41.001-8.786,81.734c0,0.017,0.034,0.017,0.034,0.048 c19.205,13.45,31.744,35.785,31.744,61.032c0,34.406-23.328,63.372-55.041,71.938c-8.566,3.335-19.977,16.562-27.081,25.669 c-3.703,4.714-6.243,8.333-6.631,8.921c-0.051,0.066-0.066,0.081-0.066,0.081c-8.5,8.924-20.468,14.463-33.747,14.463 c-15.84,0-29.844-7.913-38.26-20.014c-15.938-20.199-27.383-27.907-33.123-30.785c-2.457-1.212-3.873-1.567-4.191-1.633 c-0.05-0.03-0.067-0.03-0.067-0.03c-26.695-11.314-45.429-37.789-45.429-68.61c0-22.923,10.336-43.424,26.611-57.075v-0.033 c16.578-26.34,15.737-48.256,9.861-64.347c14.493-24.354,28.246-48.275,36.391-63.153c20.619-37.618,14.728-118.913,28.983-185.146 c8.367-38.83,52.867-70.121,88.25-89.358c0,0,0,0,0.015,0c0.791,0.521,1.6,1.027,2.426,1.515 c18.867,6.244,34.402,19.81,43.205,37.348c1.751,7.508,4.14,15.721,7.373,24.61c0.354,2.893,0.521,5.821,0.521,8.802 c0,21.056-8.72,40.059-22.773,53.609c0,0-0.067,0.067-0.201,0.201c-3.047,3.147-37.484,40.142-4.747,78.399l0.016,0.034 c16.916,13.635,27.706,34.523,27.706,57.953c0,21.039-8.72,40.042-22.773,53.589C893.719,469.654,893.651,469.739,893.5,469.891z"/><path fill="#001b47" d="M799.644,895.307c-0.074-1.724-7.397-174.584-7.397-381.862V86.63h3.365v426.814 c0,207.202,7.321,379.997,7.395,381.717L799.644,895.307z"/><rect width="3.364" height="122.115" x="827.976" y="143.565" fill="#001b47" transform="matrix(0.8111 0.5849 -0.5849 0.8111 276.4329 -446.6416)"/><rect width="3.368" height="146.784" x="841.567" y="152.115" fill="#001b47" transform="matrix(0.7495 0.662 -0.662 0.7495 360.5639 -501.7748)"/><rect width="129.904" height="3.367" x="680.766" y="321.526" fill="#001b47" transform="matrix(0.7537 0.6572 -0.6572 0.7537 396.0964 -410.4961)"/><rect width="94.429" height="3.369" x="704.768" y="361.166" fill="#001b47" transform="matrix(0.8884 0.459 -0.459 0.8884 250.4682 -304.6982)"/><rect width="3.368" height="149.144" x="845.99" y="348.291" fill="#001b47" transform="matrix(0.6935 0.7205 -0.7205 0.6935 564.4706 -481.1059)"/><rect width="3.366" height="94.023" x="832.185" y="491.233" fill="#001b47" transform="matrix(0.5274 0.8496 -0.8496 0.5274 851.3548 -454.0947)"/><rect width="3.368" height="94.279" x="834.419" y="513.592" fill="#001b47" transform="matrix(0.4778 0.8785 -0.8785 0.4778 929.2036 -441.6761)"/><rect width="3.368" height="138.919" x="853.902" y="576.622" fill="#001b47" transform="matrix(0.4805 0.877 -0.877 0.4805 1011.1155 -414.7002)"/><rect width="127.188" height="3.366" x="672.836" y="608.703" fill="#001b47" transform="matrix(0.9042 0.4272 -0.4272 0.9042 331.3036 -256.0856)"/><rect width="129.184" height="3.366" x="668.797" y="633.532" fill="#001b47" transform="matrix(0.9373 0.3486 -0.3486 0.9373 267.4481 -215.8176)"/><rect width="92.784" height="3.364" x="704.386" y="502.409" fill="#001b47" transform="matrix(0.9301 0.3673 -0.3673 0.9301 237.6188 -240.5184)"/><rect width="137.419" height="3.363" x="665.209" y="453.276" fill="#001b47" transform="matrix(0.8842 0.4671 -0.4671 0.8842 297.5042 -290.1367)"/><rect width="87.598" height="3.365" x="715.214" y="179.827" fill="#001b47" transform="matrix(0.7972 0.6038 -0.6038 0.7972 263.5424 -421.4459)"/><path fill="#3e98d4" d="M963.317,426.936c-0.134,1.971-0.405,3.939-0.79,5.925c-2.695,14.021-10.925,25.551-21.998,32.772 c0,0-0.068,0.033-0.17,0.119c-2.424,1.698-30.078,21.929-13.178,51.569l0.015,0.033c9.51,11.229,14.022,26.511,11.024,42.114 c-2.691,14.003-10.924,25.534-21.997,32.753c0,0-0.07,0.052-0.187,0.133c-2.49,1.818-29.792,22.574-16.294,53.273 c0,0.016,0.019,0.016,0.019,0.05c11.059,11.396,16.563,27.873,13.332,44.671c-4.396,22.907-23.633,39.198-45.834,40.849 c-6.127,1.128-15.417,8.469-21.311,13.635c-3.061,2.66-5.217,4.746-5.553,5.084c-0.033,0.033-0.051,0.05-0.051,0.05 c-6.8,4.848-15.468,7.004-24.304,5.302c-10.555-2.02-18.852-9.073-22.908-18.212c-8.029-15.466-14.66-22.064-18.126-24.724 c-1.465-1.112-2.375-1.532-2.577-1.617c-0.034-0.033-0.034-0.033-0.034-0.033c-16.324-10.939-25.416-30.955-21.478-51.472 c2.929-15.25,12.44-27.588,25.014-34.589v-0.018c14.406-15.417,16.646-30.109,14.794-41.572c-0.857-5.234-2.56-9.814-4.342-13.449 c-2.911-5.924-6.027-9.424-6.027-9.424c-1.968-3.974-3.416-8.232-4.291-12.641c-1.196-6.16-1.277-12.658-0.016-19.189 c2.994-15.603,12.843-28.127,25.851-35.043c0,0,0-0.017,0.02-0.017c25.263-24.001,10.806-47.382,9.56-49.3 c-0.051-0.083-0.084-0.118-0.084-0.118c-9.512-11.243-14.021-26.526-11.044-42.13c4.21-21.913,22.018-37.801,42.974-40.531 c0,0,0.031,0,0.05-0.015c0.033,0.015,0.05-0.017,0.118-0.017l0.018-0.016c1.327-0.355,9.628-2.946,19.254-15.351 c4.832-14.962,20.164-24.305,35.969-21.258c11.814,2.254,20.821,10.822,24.188,21.526c0,0,0,0.018,0,0.052 c-0.018,0.556-0.153,5.099,1.413,11.175c1.564,6.194,4.864,13.938,11.799,20.636c0.473,0.438,0.944,0.876,1.431,1.315 c6.262,3.499,11.632,8.262,15.84,13.901c3.685,4.914,6.463,10.504,8.146,16.479C963.116,415.137,963.737,420.978,963.317,426.936z"/><path fill="#001b47" d="M963.317,426.936c-0.134,1.971-0.405,3.939-0.79,5.925c-2.695,14.021-10.925,25.551-21.998,32.772 c0,0-0.068,0.033-0.17,0.119c-2.424,1.698-30.078,21.929-13.178,51.569l0.015,0.033c9.51,11.229,14.022,26.511,11.024,42.114 c-2.691,14.003-10.924,25.534-21.997,32.753c0,0-0.07,0.052-0.187,0.133c-2.49,1.818-29.792,22.574-16.294,53.273 c0,0.016,0.019,0.016,0.019,0.05c11.059,11.396,16.563,27.873,13.332,44.671c-4.396,22.907-23.633,39.198-45.834,40.849 c-6.127,1.128-15.417,8.469-21.311,13.635c-3.061,2.66-5.217,4.746-5.553,5.084c-0.033,0.033-0.051,0.05-0.051,0.05 c-6.8,4.848-15.468,7.004-24.304,5.302c-10.555-2.02-18.852-9.073-22.908-18.212c-8.029-15.466-14.66-22.064-18.126-24.724 c-1.465-1.112-2.375-1.532-2.577-1.617c-0.034-0.033-0.034-0.033-0.034-0.033c-16.324-10.939-25.416-30.955-21.478-51.472 c2.929-15.25,12.44-27.588,25.014-34.589v-0.018c14.406-15.417,16.646-30.109,14.794-41.572c-0.857-5.234-2.56-9.814-4.342-13.449 c-2.911-5.924-6.027-9.424-6.027-9.424c-1.968-3.974-3.416-8.232-4.291-12.641c21.73,2.423,15.922,41.27,24.946,82.691 c10.282,47.161-15.319,62.714,18.899,67.444c34.203,4.73,44.048-47.651,56.621-84.965c12.574-37.333,27.822-38.428,24.997-63.978 c-2.828-25.565-2.223-55.242,28.393-93.749c16.327-20.52,21.863-44.185,23.481-61.824c3.685,4.914,6.463,10.504,8.146,16.479 C963.116,415.137,963.737,420.978,963.317,426.936z"/><path fill="#001b47" d="M801.992,863.938l-3.332-0.493c0.173-1.155,17.393-117.166,43.884-255.145l54.548-284.096l3.307,0.633 l-54.547,284.098C819.37,746.841,802.162,862.781,801.992,863.938z"/><rect width="3.363" height="82.767" x="905.765" y="366.242" fill="#001b47" transform="matrix(0.6856 0.728 -0.728 0.6856 582.0549 -532.4484)"/><rect width="3.365" height="99.491" x="912.144" y="373.519" fill="#001b47" transform="matrix(0.6115 0.7912 -0.7912 0.6115 689.8696 -558.6088)"/><rect width="88.047" height="3.365" x="792.397" y="474.15" fill="#001b47" transform="matrix(0.6162 0.7876 -0.7876 0.6162 695.7307 -476.1244)"/><rect width="64.003" height="3.367" x="803.522" y="501.336" fill="#001b47" transform="matrix(0.7859 0.6183 -0.6183 0.7859 489.9019 -408.9419)"/><rect width="3.367" height="101.085" x="889.864" y="504.652" fill="#001b47" transform="matrix(0.5446 0.8387 -0.8387 0.5446 871.6228 -494.9014)"/><rect width="3.364" height="63.726" x="865.93" y="598.365" fill="#001b47" transform="matrix(0.3573 0.934 -0.934 0.3573 1146.2019 -405.3033)"/><rect width="3.366" height="63.902" x="864.543" y="613.53" fill="#001b47" transform="matrix(0.3026 0.9531 -0.9531 0.3026 1219.3075 -375.4624)"/><rect width="3.366" height="94.159" x="866.602" y="657.704" fill="#001b47" transform="matrix(0.3064 0.9519 -0.9519 0.3064 1273.1541 -337.6747)"/><rect width="86.201" height="3.366" x="750.436" y="664.112" fill="#001b47" transform="matrix(0.8074 0.59 -0.59 0.8074 545.6567 -339.9576)"/><rect width="87.556" height="3.365" x="744.559" y="680.25" fill="#001b47" transform="matrix(0.8547 0.5191 -0.5191 0.8547 468.5066 -310.1439)"/><rect width="62.889" height="3.366" x="785.227" y="595.195" fill="#001b47" transform="matrix(0.8442 0.5361 -0.5361 0.8442 447.2426 -344.7898)"/><rect width="93.14" height="3.366" x="765.158" y="560.336" fill="#001b47" transform="matrix(0.7803 0.6254 -0.6254 0.7803 529.8698 -384.197)"/><rect width="59.371" height="3.367" x="833.694" y="381.528" fill="#001b47" transform="matrix(0.669 0.7432 -0.7432 0.669 570.5706 -514.863)"/><path fill="#3e98d4" d="M782.024,683.787c-5.47,5.25-9.946,18.934-12.472,28.125c-1.315,4.766-2.104,8.314-2.204,8.886 c-0.019,0.071-0.034,0.086-0.034,0.086c-3.621,9.492-10.976,17.501-21.073,21.731c-12.068,5.013-25.23,3.447-35.479-3.081 c-1.146-0.641-2.276-1.245-3.352-1.817c-16.544-8.772-26.66-10.758-31.627-11.112c-2.254-0.134-3.434,0.036-3.703,0.102 c-0.051-0.016-0.066-0.016-0.066-0.016c-23.898-0.119-46.556-14.324-56.354-37.786c-7.27-17.439-5.906-36.321,2.139-51.875 l-0.016-0.017c4.259-25.316-3.332-41.728-12.91-52.096c-4.393-4.744-9.189-8.245-13.447-10.736 c-6.92-4.057-12.438-5.488-12.438-5.488c-11.179-6.498-20.384-16.563-25.754-29.42c-7.423-17.826-5.857-37.148,2.694-52.887 c0,0-0.018-0.034,0-0.034c9.491-41.32-20.872-55.325-23.414-56.436c-0.116-0.049-0.17-0.049-0.17-0.049 c-17.199-5.018-32.044-17.49-39.483-35.331c-10.455-25.045-3.064-53.137,16.359-69.969c0,0,0.018-0.017,0.034-0.033 c0.032-0.015,0.051-0.067,0.099-0.102c0.018,0,0-0.033,0.018-0.033c1.112-1.246,7.776-9.46,9.208-28.512 c-5.15-18.416,4.123-38.175,22.219-45.732c13.498-5.622,28.359-2.998,38.98,5.604c0,0,0.017,0,0.052,0.051 c0.335,0.572,3.263,5.269,8.92,10.385c5.757,5.218,14.306,10.874,25.819,12.994c0,0,0,0,0.018,0 c0.773,0.153,1.549,0.268,2.322,0.386c13.581-1.024,26.997,2.525,38.19,9.796c0.015,0.018,0.015,0.018,0.015,0.018 c2.275,1.466,4.463,3.098,6.531,4.881c5.303,4.544,9.865,10.066,13.416,16.395c1.194,2.088,2.254,4.256,3.197,6.529 c6.683,16.026,6.077,33.263-0.304,48.022c0,0-0.032,0.083-0.099,0.219c-1.313,3.366-15.772,42.448,21.274,61.164l0.034,0.036 c17.201,4.999,32.029,17.47,39.469,35.295c6.682,16.005,6.076,33.241-0.319,48.003c0,0-0.019,0.083-0.084,0.253 c-1.296,3.517-15.063,42.919,19.256,64.987c0.017,0.016,0.032,0,0.05,0.031c18.884,4.142,35.513,17.151,43.525,36.357 C811.984,637.735,803.436,667.19,782.024,683.787z"/><path fill="#001b47" d="M782.024,683.787c-5.47,5.25-9.946,18.934-12.472,28.125c-1.315,4.766-2.104,8.314-2.204,8.886 c-0.019,0.071-0.034,0.086-0.034,0.086c-3.621,9.492-10.976,17.501-21.073,21.731c-12.068,5.013-25.23,3.447-35.479-3.081 c-1.146-0.641-2.276-1.245-3.352-1.817c23.127-13.082,33.898-34.727,38.309-55.782c5.47-26.121,14.728-49.604-6.815-70.373 c-21.527-20.769-34.002-49.923-39.808-87.508c-5.806-37.567-24.491-68.454-35.783-80.435c-11.31-11.985-6.379-53.643,0-101.612 c3.046-22.958-2.055-40.531-8.199-52.617c2.275,1.466,4.463,3.098,6.531,4.881c5.303,4.544,9.865,10.066,13.416,16.395 c1.194,2.088,2.254,4.256,3.197,6.529c6.683,16.026,6.077,33.263-0.304,48.022c0,0-0.032,0.083-0.099,0.219 c-1.313,3.366-15.772,42.448,21.274,61.164l0.034,0.036c17.201,4.999,32.029,17.47,39.469,35.295 c6.682,16.005,6.076,33.241-0.319,48.003c0,0-0.019,0.083-0.084,0.253c-1.296,3.517-15.063,42.919,19.256,64.987 c0.017,0.016,0.032,0,0.05,0.031c18.884,4.142,35.513,17.151,43.525,36.357C811.984,637.735,803.436,667.19,782.024,683.787z"/><path fill="#001b47" d="M801.6,863.836c-0.604-1.284-61.057-130.51-126.863-288.247L539.234,250.801l3.107-1.296l135.5,324.79 c65.776,157.665,126.203,286.827,126.805,288.115L801.6,863.836z"/><rect width="3.365" height="100.688" x="603.754" y="278.252" fill="#001b47" transform="matrix(0.9738 0.2273 -0.2273 0.9738 90.5603 -129.0406)"/><rect width="3.366" height="121.031" x="620.729" y="279.66" fill="#001b47" transform="matrix(0.9467 0.3222 -0.3222 0.9467 142.7877 -182.3918)"/><rect width="107.11" height="3.364" x="525.654" y="443.804" fill="#001b47" transform="matrix(0.9486 0.3164 -0.3164 0.9486 170.6786 -160.3553)"/><rect width="77.861" height="3.368" x="557.63" y="471.978" fill="#001b47" transform="matrix(0.9967 0.0816 -0.0816 0.9967 40.634 -47.0931)"/><rect width="3.366" height="122.975" x="686.747" y="427.461" fill="#001b47" transform="matrix(0.9174 0.398 -0.398 0.9174 251.5129 -233.6234)"/><rect width="3.365" height="77.526" x="712.871" y="542.368" fill="#001b47" transform="matrix(0.8135 0.5815 -0.5815 0.8135 471.1576 -307.1584)"/><rect width="3.367" height="77.738" x="721.71" y="558.664" fill="#001b47" transform="matrix(0.7784 0.6277 -0.6277 0.7784 535.3944 -321.7061)"/><rect width="3.367" height="114.543" x="763.631" y="599.028" fill="#001b47" transform="matrix(0.7814 0.624 -0.624 0.7814 576.8613 -334.1149)"/><rect width="104.864" height="3.367" x="610.877" y="665.278" fill="#001b47" transform="matrix(0.9989 0.0461 -0.0461 0.9989 31.4604 -29.8769)"/><rect width="3.365" height="106.512" x="667.194" y="633.565" fill="#001b47" transform="matrix(0.0392 0.9992 -0.9992 0.0392 1328.9631 -8.4509)"/><rect width="3.368" height="76.504" x="638.799" y="543.271" fill="#001b47" transform="matrix(0.0197 0.9998 -0.9998 0.0197 1209.266 -70.3008)"/><rect width="113.305" height="3.366" x="555.402" y="547.803" fill="#001b47" transform="matrix(0.9959 0.0907 -0.0907 0.9959 52.338 -53.227)"/><rect width="72.225" height="3.366" x="508.228" y="331.752" fill="#001b47" transform="matrix(0.9682 0.2503 -0.2503 0.9682 100.7845 -125.6333)"/><path fill="#3e98d4" d="M899.166,738.431c-1.555,0.575-18.743,7.246-16.318,25.113c0,0.006,0.008,0.013,0.004,0.023 c4.023,7.536,4.42,16.857,0.263,25.06c-5.666,11.181-18.019,16.751-29.734,14.313c-3.333-0.324-9.218,2.091-13.027,3.883 c-1.979,0.92-3.401,1.677-3.623,1.806c-0.028,0.013-0.035,0.017-0.035,0.017c-4.231,1.501-9.034,1.327-13.349-0.859 c-5.146-2.61-8.393-7.489-9.138-12.805c-1.852-9.189-4.304-13.579-5.694-15.46c-0.596-0.799-0.998-1.147-1.092-1.223 c-0.012-0.019-0.018-0.019-0.018-0.019c-6.811-8.07-8.535-19.761-3.46-29.777c3.774-7.449,10.509-12.412,18.045-14.162l0.007-0.014 c9.728-5.827,13.063-13.089,13.805-19.285c0.335-2.833,0.135-5.447-0.252-7.594c-0.623-3.49-1.719-5.758-1.719-5.758 c-1.025-5.618-0.28-11.603,2.5-17.089c3.858-7.611,10.804-12.623,18.546-14.267l0.013-0.012 c16.609-8.654,12.607-22.879,12.253-24.048c-0.021-0.06-0.03-0.077-0.03-0.077c-3.248-7.221-3.316-15.789,0.545-23.403 c5.422-10.698,16.979-16.271,28.211-14.572c0,0,0.01,0.002,0.018,0c0.017,0.01,0.036,0,0.068,0.005c0,0,0.01-0.009,0.016-0.002 c0.733,0.014,5.406-0.103,12.219-5.082c4.714-7.009,14.019-9.567,21.743-5.651c5.763,2.919,9.143,8.677,9.304,14.711 c0,0-0.004,0.006-0.009,0.029c-0.094,0.276-0.836,2.606-0.934,5.976c-0.101,3.433,0.452,7.93,3.041,12.411c0,0,0,0,0.005,0.003 c0.172,0.298,0.351,0.594,0.538,0.892c5.101,5.135,7.917,12.104,7.89,19.253c-0.011,3.082-0.551,6.194-1.656,9.21 c-0.363,0.998-0.79,1.979-1.283,2.947c-3.466,6.841-9.43,11.579-16.229,13.669c0,0-0.033,0.01-0.1,0.033 c-1.507,0.52-18.792,6.871-14.455,24.694v0.015c3.25,7.215,3.316,15.782-0.543,23.396c-3.462,6.834-9.424,11.576-16.226,13.661 C899.274,738.39,899.239,738.408,899.166,738.431z"/><path fill="#001b47" d="M800.688,862.169l-3.065-1.393c0.261-0.571,26.362-57.973,60.513-125.352l70.295-138.695l3.002,1.522 l-70.296,138.695C827.019,804.261,800.947,861.597,800.688,862.169z"/><rect width="3.365" height="44.488" x="920.428" y="619.472" fill="#001b47" transform="matrix(0.4591 0.8884 -0.8884 0.4591 1068.8958 -472.0798)"/><rect width="3.367" height="53.478" x="921.402" y="624.004" fill="#001b47" transform="matrix(0.3689 0.9295 -0.9295 0.3689 1187.4171 -447.2932)"/><rect width="47.323" height="3.367" x="851.637" y="664.744" fill="#001b47" transform="matrix(0.3752 0.927 -0.927 0.3752 1164.67 -394.9576)"/><rect width="34.403" height="3.367" x="853.605" y="678.66" fill="#001b47" transform="matrix(0.5849 0.8111 -0.8111 0.5849 913.2802 -423.9061)"/><rect width="3.367" height="54.333" x="890.334" y="688.436" fill="#001b47" transform="matrix(0.2927 0.9562 -0.9562 0.2927 1315.2092 -346.7964)"/><rect width="3.365" height="34.253" x="866.848" y="733.697" fill="#001b47" transform="matrix(0.0876 0.9962 -0.9962 0.0876 1540.355 -180.1611)"/><rect width="3.368" height="34.346" x="863.869" y="741.325" fill="#001b47" transform="matrix(0.0284 0.9996 -0.9996 0.0284 1599.146 -128.2611)"/><rect width="3.366" height="50.608" x="856.141" y="764.14" fill="#001b47" transform="matrix(0.0322 0.9995 -0.9995 0.0322 1619.2332 -93.3578)"/><rect width="46.337" height="3.367" x="801.816" y="756.535" fill="#001b47" transform="matrix(0.6134 0.7898 -0.7898 0.6134 917.7902 -358.42)"/><polygon fill="#001b47" points="834.635 784.213 802.706 749.641 805.178 747.354 837.104 781.928"/><rect width="33.803" height="3.366" x="830.252" y="724.356" fill="#001b47" transform="matrix(0.6635 0.7481 -0.7481 0.6635 828.2045 -389.5071)"/><rect width="50.066" height="3.366" x="824.735" y="705.615" fill="#001b47" transform="matrix(0.5775 0.8164 -0.8164 0.5775 936.4542 -394.9092)"/><rect width="31.911" height="3.366" x="887.003" y="620.888" fill="#001b47" transform="matrix(0.4381 0.8989 -0.8989 0.4381 1067.0079 -461.8722)"/><rect width="133.104" height="228.188" x="733.919" y="859.53" fill="#e54c42"/><rect width="30.919" height="228.188" x="836.104" y="859.53" fill="#ac0d1a"/><path fill="#001b47" d="M877.671,308.417c-0.144,0-0.29-0.013-0.438-0.038c-1.373-0.241-2.292-1.55-2.051-2.923 c1.512-8.626,6.556-14.82,12.94-22.664c4.271-5.242,9.11-11.185,14.046-19.211c0.73-1.187,2.286-1.558,3.472-0.827 c1.188,0.728,1.561,2.283,0.829,3.474c-5.109,8.308-10.061,14.387-14.428,19.752c-6.156,7.557-10.602,13.018-11.885,20.346 C879.94,307.553,878.875,308.417,877.671,308.417z"/><path fill="#001b47" d="M914.125,219.969c-1.172,0-2.224-0.822-2.469-2.018c-3.423-16.686-10.889-31.972-10.962-32.124 c-0.616-1.251-0.101-2.765,1.151-3.379c1.248-0.619,2.764-0.101,3.378,1.15c0.319,0.646,7.827,16.025,11.381,33.338 c0.278,1.366-0.602,2.701-1.965,2.981C914.467,219.951,914.295,219.969,914.125,219.969z"/><path fill="#001b47" d="M803.118,621.35c-1.277,0-2.376-0.965-2.507-2.266c-1.396-13.581-11.629-25.47-30.412-35.337 c-1.234-0.65-1.71-2.174-1.063-3.409c0.648-1.236,2.174-1.711,3.409-1.063c20.375,10.705,31.509,23.924,33.088,39.292 c0.142,1.388-0.866,2.627-2.254,2.771C803.293,621.346,803.206,621.35,803.118,621.35z"/><path fill="#001b47" d="M746.526,570.364c-0.678,0-1.354-0.273-1.851-0.807c-9.01-9.696-10.283-23.96-10.771-36.57 c-0.253-6.575,0.692-14.483,1.86-23.389c0.18-1.385,1.455-2.363,2.832-2.175c1.383,0.181,2.355,1.45,2.174,2.832 c-1.139,8.674-2.059,16.356-1.82,22.539c0.472,12.239,1.592,24.894,9.426,33.324c0.949,1.023,0.889,2.62-0.132,3.569 C747.759,570.14,747.143,570.364,746.526,570.364z"/><path fill="#001b47" d="M740.979,487.28c-0.043,0-0.092-0.001-0.137-0.003c-1.394-0.078-2.46-1.268-2.386-2.66 c0.354-6.392,0.242-11.906-0.334-16.858c-2.129-18.27-20.396-29.729-39.817-39.39c-1.25-0.623-1.758-2.139-1.135-3.385 c0.62-1.25,2.136-1.759,3.383-1.136c19.702,9.8,40.174,22.612,42.586,43.326c0.61,5.241,0.729,11.036,0.361,17.719 C743.426,486.239,742.313,487.28,740.979,487.28z"/><path fill="#001b47" d="M677.673,409.707c-0.928,0-1.821-0.514-2.263-1.401c-5.631-11.344-5.969-23.221-5.98-23.722 c-0.031-1.392,1.07-2.547,2.463-2.583c1.352-0.068,2.55,1.069,2.586,2.465c0.002,0.111,0.34,11.287,5.454,21.595 c0.62,1.249,0.11,2.765-1.139,3.383C678.435,409.623,678.051,409.707,677.673,409.707z"/><path fill="#FFF" d="M758.737,135.838c-0.33,0-0.665-0.048-0.996-0.153c-1.776-0.548-2.771-2.434-2.222-4.207 c6.963-22.5,23.122-33.331,23.809-33.779c1.555-1.02,3.641-0.59,4.661,0.962c1.021,1.553,0.593,3.638-0.956,4.659 c-0.173,0.114-14.867,10.065-21.082,30.145C761.503,134.91,760.176,135.837,758.737,135.838z"/><path fill="#FFF" d="M688.431,204.446c-0.295,0-0.597-0.039-0.896-0.124c-1.792-0.494-2.843-2.345-2.35-4.14 c7.678-27.832,32.944-36.89,34.018-37.264c1.751-0.609,3.673,0.319,4.283,2.078c0.608,1.754-0.316,3.669-2.071,4.281l0,0 c-0.229,0.081-23.023,8.356-29.741,32.697C691.264,203.466,689.908,204.445,688.431,204.446z"/><path fill="#FFF" d="M692.031,261.701c-0.504,0-1.014-0.114-1.497-0.352c-13.496-6.711-14.912-30.54-14.965-31.55 c-0.1-1.854,1.323-3.438,3.181-3.539c1.817-0.097,3.441,1.325,3.542,3.178c0.317,5.803,2.954,21.764,11.241,25.883 c1.666,0.828,2.344,2.85,1.515,4.512C694.459,261.018,693.269,261.701,692.031,261.701z"/><path fill="#FFF" d="M528.4,298.035c-1.699,0-3.158-1.282-3.342-3.008c-2.186-20.424,7.744-29.767,8.164-30.155 c1.375-1.256,3.504-1.159,4.759,0.21c1.25,1.365,1.161,3.48-0.191,4.739c-0.36,0.343-7.836,7.706-6.037,24.49 c0.198,1.848-1.143,3.507-2.989,3.705C528.643,298.029,528.52,298.035,528.4,298.035z"/><path fill="#FFF" d="M498.772,369.267c-1.438,0-2.771-0.93-3.217-2.375c-4.301-13.952,10.642-31.375,11.279-32.11 c1.221-1.4,3.343-1.551,4.747-0.334c1.405,1.217,1.555,3.343,0.339,4.75c-3.663,4.229-12.586,17.097-9.932,25.71 c0.549,1.777-0.448,3.662-2.226,4.209C499.436,369.217,499.101,369.267,498.772,369.267z"/><path fill="#FFF" d="M531.806,418.708c-0.251,0-0.507-0.028-0.761-0.087c-21.4-4.957-35.299-30.585-35.881-31.674 c-0.875-1.642-0.254-3.677,1.385-4.553c1.637-0.879,3.678-0.258,4.555,1.379c0.127,0.239,13.057,24.025,31.46,28.289 c1.812,0.42,2.939,2.228,2.521,4.039C534.723,417.657,533.338,418.708,531.806,418.708z"/><path fill="#FFF" d="M557.755,524.497c-1.573,0-2.979-1.108-3.296-2.711c-1.961-9.863,5.049-25.133,5.854-26.84 c0.792-1.682,2.797-2.404,4.479-1.611c1.682,0.792,2.404,2.799,1.613,4.481c-1.925,4.091-6.637,16.138-5.342,22.66 c0.359,1.824-0.823,3.596-2.648,3.958C558.194,524.478,557.973,524.497,557.755,524.497z"/><path fill="#FFF" d="M616.912,672.746c-0.073,0-0.145-0.001-0.219-0.006c-1.855-0.118-3.265-1.719-3.145-3.575 c1.289-20.163,13.135-38.701,13.637-39.481c1.01-1.56,3.096-2.006,4.652-0.998c1.563,1.007,2.01,3.09,1.005,4.653 c-0.115,0.176-11.401,17.877-12.575,36.257C620.153,671.376,618.671,672.746,616.912,672.746z"/><path fill="#FFF" d="M838.786,377.387c-0.36,0-0.72-0.009-1.084-0.024c-1.854-0.086-3.292-1.662-3.206-3.519 c0.087-1.859,1.67-3.252,3.517-3.208c18.531,0.818,34.138-28.953,34.295-29.252c0.85-1.653,2.881-2.301,4.531-1.45 c1.655,0.853,2.306,2.881,1.452,4.533C877.586,345.833,861.059,377.387,838.786,377.387z"/><path fill="#FFF" d="M811.73,435.915c-1.002,0-1.993-0.446-2.655-1.298c-10.991-14.094-2.247-38.783-1.87-39.829 c0.634-1.747,2.559-2.652,4.309-2.02c1.748,0.63,2.654,2.558,2.024,4.307c-0.079,0.22-7.854,22.243,0.845,33.405 c1.144,1.465,0.881,3.581-0.584,4.724C813.185,435.683,812.454,435.915,811.73,435.915z"/><path fill="#FFF" d="M793.534,521.526c-0.397,0-0.802-0.071-1.196-0.22c-1.736-0.662-2.609-2.604-1.949-4.343 c8.803-23.161,30.282-37.962,31.193-38.582c1.531-1.037,3.629-0.647,4.673,0.891c1.046,1.536,0.65,3.63-0.885,4.677 c-0.206,0.141-20.653,14.269-28.688,35.406C796.168,520.699,794.891,521.526,793.534,521.526z"/></svg>