<svg width="987" height="986" viewBox="0 0 987 986" fill="none" xmlns="http://www.w3.org/2000/svg">
<g id="Grow 1">
<g id="main">
<path id="Vector" d="M318.61 840.7C318.61 840.7 303.849 812.818 304.741 812.327C305.631 811.837 332.508 808.542 332.508 808.542L337.681 840.7H318.61V840.7Z" fill="#FFDCC8"/>
<path id="Vector_2" d="M393.16 933.645C383.902 952.696 361.383 955 346.923 953.856C336.296 953.007 320.987 952.78 313.393 940.778C310.672 936.466 308.939 930.631 308.782 922.681C308.21 892.65 305.123 889.308 304.707 886.882C304.413 885.235 306.285 879.728 308.21 874.411C309.562 870.69 310.967 867.071 311.677 864.939C313.411 859.744 313.411 859.744 313.411 859.744C312.822 858.012 294.913 843.584 313.411 840.692C331.892 837.817 344.027 838.961 348.085 840.692C352.125 842.424 345.761 852.816 344.027 859.744C342.294 866.671 372.928 882.274 382.169 890.346C382.169 890.346 382.169 890.363 382.187 890.363C391.445 898.452 402.401 914.609 393.16 933.645Z" fill="#000069"/>
<path id="Vector_3" d="M393.16 933.645C383.902 952.696 361.383 955 346.923 953.856C336.296 953.007 320.987 952.781 313.393 940.778C310.672 936.466 308.939 930.631 308.782 922.681C308.21 892.65 305.123 889.308 304.707 886.882C304.413 885.235 306.285 879.728 308.21 874.411C313.514 881.704 322.79 896.53 321.195 909.015C318.958 926.333 321.732 934.994 337.682 936.725C353.632 938.457 375.198 938.163 384.839 922.87C394.269 907.925 382.705 891.123 382.187 890.363C391.445 898.452 402.401 914.61 393.16 933.645Z" fill="white"/>
<path id="Vector_4" d="M317.347 877.456C317.347 873.282 316.107 869.899 314.576 869.899C313.045 869.899 311.804 873.282 311.804 877.456C311.804 881.627 313.044 885.009 314.576 885.009C316.107 885.008 317.347 881.627 317.347 877.456Z" fill="white"/>
<path id="Vector_5" d="M327.688 872.583C327.567 872.583 327.446 872.538 327.351 872.445C327.16 872.26 327.157 871.954 327.343 871.764C327.516 871.585 331.721 867.441 342.576 870.108C342.836 870.171 342.993 870.433 342.929 870.69C342.867 870.95 342.608 871.108 342.346 871.044C332.015 868.51 328.071 872.398 328.033 872.437C327.939 872.533 327.814 872.583 327.688 872.583Z" fill="white"/>
<path id="Vector_6" d="M327.689 881.07C327.534 881.07 327.383 880.996 327.29 880.859C327.14 880.639 327.197 880.339 327.417 880.189C327.516 880.121 337.514 873.477 350.791 876.989C351.05 877.058 351.203 877.321 351.135 877.579C351.067 877.837 350.808 877.993 350.545 877.921C337.682 874.512 328.056 880.92 327.96 880.985C327.877 881.042 327.783 881.07 327.689 881.07Z" fill="white"/>
<path id="Vector_7" d="M335.074 887.342C334.931 887.342 334.789 887.278 334.693 887.156C334.53 886.946 334.567 886.642 334.777 886.479C335.018 886.292 340.776 881.925 350.79 884.542C351.048 884.609 351.203 884.873 351.135 885.131C351.068 885.389 350.808 885.545 350.546 885.475C340.995 882.978 335.426 887.197 335.371 887.24C335.283 887.309 335.178 887.342 335.074 887.342Z" fill="white"/>
<path id="Vector_8" d="M129.741 843.583C129.741 843.583 144.503 815.7 143.611 815.209C142.721 814.719 115.843 811.424 115.843 811.424L110.671 843.583H129.741Z" fill="#FFDCC8"/>
<path id="Vector_9" d="M55.1919 936.528C64.4494 955.58 86.9679 957.882 101.428 956.739C112.056 955.89 127.364 955.663 134.957 943.662C137.678 939.35 139.413 933.514 139.57 925.564C140.142 895.533 143.228 892.191 143.645 889.766C143.94 888.118 142.067 882.611 140.142 877.294C138.789 873.573 137.383 869.955 136.675 867.823C134.941 862.626 134.941 862.626 134.941 862.626C135.53 860.894 153.439 846.467 134.941 843.575C116.461 840.699 104.324 841.842 100.267 843.575C96.228 845.307 102.59 855.699 104.324 862.626C106.058 869.554 75.4244 885.158 66.1843 893.229C66.1843 893.229 66.1843 893.246 66.166 893.246C56.9076 901.336 45.9517 917.494 55.1919 936.528Z" fill="#000069"/>
<path id="Vector_10" d="M55.1918 936.528C64.4494 955.58 86.9678 957.882 101.428 956.739C112.056 955.89 127.364 955.663 134.957 943.662C137.678 939.35 139.412 933.514 139.57 925.564C140.142 895.533 143.228 892.191 143.645 889.766C143.94 888.118 142.067 882.611 140.142 877.294C134.838 884.587 125.561 899.413 127.156 911.899C129.393 929.217 126.62 937.876 110.669 939.609C94.7194 941.341 73.1533 941.047 63.5136 925.753C54.0837 910.808 65.6463 894.007 66.1651 893.245C56.9076 901.336 45.9517 917.494 55.1918 936.528Z" fill="white"/>
<path id="Vector_11" d="M133.775 887.895C135.306 887.895 136.547 884.512 136.547 880.339C136.547 876.166 135.306 872.783 133.775 872.783C132.245 872.783 131.004 876.166 131.004 880.339C131.004 884.512 132.245 887.895 133.775 887.895Z" fill="white"/>
<path id="Vector_12" d="M120.663 875.467C120.539 875.467 120.414 875.418 120.319 875.323C120.278 875.282 116.268 871.41 106.004 873.927C105.747 873.993 105.484 873.833 105.421 873.574C105.357 873.315 105.515 873.054 105.775 872.991C116.629 870.331 120.836 874.47 121.008 874.648C121.195 874.838 121.191 875.145 121.001 875.33C120.907 875.421 120.785 875.467 120.663 875.467Z" fill="white"/>
<path id="Vector_13" d="M120.662 883.954C120.569 883.954 120.475 883.927 120.392 883.869C120.295 883.805 110.647 877.401 97.8062 880.805C97.5441 880.876 97.2847 880.72 97.216 880.462C97.1481 880.205 97.3004 879.941 97.5589 879.873C110.843 876.357 120.836 883.006 120.934 883.074C121.154 883.223 121.211 883.523 121.061 883.743C120.969 883.879 120.817 883.954 120.662 883.954Z" fill="white"/>
<path id="Vector_14" d="M113.275 890.225C113.173 890.225 113.068 890.192 112.98 890.123C112.925 890.082 107.327 885.869 97.8053 888.359C97.5442 888.429 97.283 888.272 97.216 888.015C97.1481 887.756 97.303 887.493 97.5598 887.426C107.576 884.807 113.331 889.176 113.573 889.362C113.783 889.526 113.82 889.829 113.657 890.039C113.562 890.162 113.42 890.225 113.275 890.225Z" fill="white"/>
<path id="Vector_15" d="M384.92 712.966C380.307 767.243 376.841 807.649 376.841 807.649C376.841 807.649 362.207 812.967 344.559 817.209C325.419 821.833 302.726 825.212 291.302 819.202C269.353 807.65 269.353 807.65 269.353 807.65C269.353 807.65 250.091 629.835 242.377 615.978C240.922 613.347 239.655 610.834 238.579 608.513C233.933 598.555 232.511 591.732 232.511 591.732C232.511 591.732 206.941 733.749 203.473 754.532C200.006 775.315 198.446 792.635 198.446 792.635C198.446 792.635 177.815 809.554 154.044 817.971C144.84 821.227 135.149 823.204 126.011 822.422C88.4616 819.202 76.3254 801.883 76.3254 801.883C76.3254 801.883 98.2911 604.444 106.387 570.949C114.466 537.471 115.628 513.224 114.466 507.456C113.322 501.672 111.763 480.889 114.848 465.89C116.513 457.838 119.649 447.358 122.215 439.393C124.417 432.515 126.186 427.494 126.186 427.494C126.186 427.494 198.065 445.09 218.678 440.483C239.292 435.859 319.04 422.923 319.04 422.923C319.04 422.923 331.765 434.716 343.312 484.354C354.876 534.006 389.548 658.704 384.92 712.966Z" fill="#6C63FF"/>
<path id="Vector_16" d="M106.369 407.179C106.145 407.16 106.041 407.143 106.075 407.107C106.162 407.041 106.266 407.058 106.369 407.179Z" fill="#000069"/>
<path id="Vector_17" d="M384.92 712.966C380.307 767.243 376.841 807.649 376.841 807.649C376.841 807.649 362.207 812.967 344.559 817.209C350.246 788.216 353.469 659.104 350.663 639.116C347.61 617.209 314.428 501.672 310.13 484.647C305.83 467.622 290.158 457.802 235.755 469.926C193.263 479.401 142.431 451.897 122.215 439.394C124.417 432.516 126.186 427.495 126.186 427.495C126.186 427.495 198.064 445.09 218.678 440.484C239.292 435.86 319.04 422.923 319.04 422.923C319.04 422.923 331.765 434.717 343.312 484.354C354.876 534.006 389.548 658.704 384.92 712.966Z" fill="#000069"/>
<path id="Vector_18" d="M238.58 608.513C233.933 598.555 232.512 591.732 232.512 591.732C232.512 591.732 206.942 733.749 203.474 754.532C200.007 775.315 198.447 792.635 198.447 792.635C198.447 792.635 177.815 809.554 154.045 817.971C159.334 792.72 174.121 721.591 186.518 656.972C201.915 576.733 225.439 539.773 230.831 552.814C234.818 562.411 239.188 592.112 238.58 608.513Z" fill="#000069"/>
<path id="Vector_19" d="M246.807 216.306C246.807 216.306 216.034 223.56 178.327 223.56C140.62 223.56 133.686 226.591 127.184 234.817C120.682 243.044 147.988 287.64 146.688 301.064C145.387 314.486 123.879 414.504 126.181 427.494C128.484 440.483 132.385 441.349 147.554 446.112C162.724 450.875 223.836 469.926 274.112 449.143C324.389 428.36 325.255 426.194 325.255 426.194C325.255 426.194 326.123 372.938 311.82 320.115C311.397 307.898 316.587 304.528 319.187 301.496C321.787 298.466 303.585 248.24 303.585 231.354C303.585 214.468 304.885 198.223 304.885 197.582C304.885 196.94 246.807 216.306 246.807 216.306Z" fill="#000069"/>
<path id="Vector_20" d="M239.703 151.166C239.703 151.166 248.293 169.286 239.703 186.454C231.11 203.623 210.106 206.482 192.921 195.993C179.44 187.762 182.998 167.791 185.157 159.565C185.749 157.308 186.236 155.935 186.236 155.935" fill="#FFDCC8"/>
<path id="Vector_21" d="M186.995 174.201C186.995 174.201 173.125 175.066 171.825 165.974C170.524 156.881 181.793 153.851 186.995 160.778C192.196 167.705 186.995 174.201 186.995 174.201Z" fill="#FFDCC8"/>
<path id="Vector_22" d="M238.571 162.077C238.571 162.077 244.207 151.884 249.841 156.981C255.475 162.077 249.407 179.517 240.305 176.641C231.203 173.767 238.571 162.077 238.571 162.077Z" fill="#FFDCC8"/>
<path id="Vector_23" d="M240.749 157.911L250.475 162.749C250.475 162.749 260.361 159.914 262.264 147.503C264.166 135.09 255.337 132.225 253.298 132.225C251.263 132.225 240.749 153.709 240.749 153.709V157.911Z" fill="#B2B2B2"/>
<path id="Vector_24" d="M250.288 140.368C248.518 144.734 246.369 148.681 244.34 151.8C235.967 164.684 224.023 164.217 203.946 164.321C183.887 164.424 159.529 151.8 154.276 132.228C152.057 123.985 151.797 116.657 152.542 110.39C154.433 94.5244 162.857 85.4501 162.857 85.4501C173.729 135.086 218.284 90.6964 240.752 101.192C257.775 109.157 255.852 126.72 250.288 140.368Z" fill="#B2B2B2"/>
<path id="Vector_25" d="M202.146 200.239L232.504 195.632C232.504 195.632 229.904 216.307 232.504 218.882C234.093 220.454 246.808 216.307 246.808 216.307C238.572 236.839 220.37 238.716 206.934 236.55C193.498 234.385 187.862 222.261 191.764 222.261C195.664 222.261 203.974 218.365 203.974 218.365V200.784" fill="#FFDCC8"/>
<path id="Vector_26" d="M300.126 366.444C298.825 369.907 293.191 372.938 289.723 378.567C286.255 384.196 272.82 395.452 263.718 398.483C254.617 401.515 224.711 401.515 209.107 403.68C193.505 405.845 186.57 413.639 171.731 415.802C113.547 431.823 69.9795 415.802 69.9795 415.802C60.0108 404.545 63.4788 372.072 66.0789 361.247C67.866 353.817 84.5766 316.548 97.6834 287.346C103.649 274.044 108.866 262.408 111.589 256.034C120.258 235.684 130.279 231.423 130.279 231.423C130.279 231.423 137.074 248.865 139.674 257.091C142.275 265.317 146.236 308.102 146.671 312.864C146.792 314.198 148.638 317.673 147.544 321.588C144.668 331.703 139.674 346.769 142.795 347.392C147.129 348.259 202.173 355.186 206.507 354.32C210.841 353.453 221.885 348.691 235.755 333.538C249.624 318.383 251.947 322.071 253.248 326.176C254.547 330.265 238.008 343.531 243.523 347.722C247.735 350.927 251.15 347.826 266.753 343.496C282.357 339.166 297.526 337.867 298.827 340.466C300.127 343.064 295.974 347.399 290.591 348.259C285.438 349.082 263.286 360.382 265.021 362.547C266.754 364.712 282.606 368.142 300.127 359.517C302.22 358.485 301.425 362.979 300.126 366.444Z" fill="#FFDCC8"/>
<path id="Vector_27" d="M546.274 86.8372C556.072 97.3315 548.439 106.492 548.439 106.492C548.439 106.492 549.135 109.404 549.135 112.327C549.135 113.852 549.373 112.932 546.288 118.404C539.925 132.242 530.19 136.098 518.955 136.244C506.924 136.4 497.61 138.558 488.942 151.167C480.274 163.774 436.36 229.761 432.319 234.385C428.264 239.01 382.615 255.741 365.851 266.132C357.911 271.05 347.648 278.827 338.737 285.841C328.853 293.652 320.638 300.511 319.198 301.497C316.442 303.369 295.313 249.278 295.313 249.278L289.651 241.108C289.651 241.108 277.468 206.173 283.033 204.354C286.136 203.33 312.072 195.331 335.632 187.726C354.166 181.752 371.208 176.053 374.52 174.217C382.045 170.062 401.687 150.093 410.355 141.71C419.024 133.326 456.002 112.579 460.632 106.795C465.26 101.027 471.034 97.5628 479.13 92.3678C487.209 87.1711 504.546 78.5116 513.215 71.5844C521.883 64.6563 536.866 40.5302 544.542 46.3748C546.201 47.6383 541.543 54.836 539.809 62.3528C538.075 69.8531 535.548 71.2644 533.274 76.4907C549.135 79.5412 543.468 83.831 546.274 86.8372Z" fill="#FFDCC8"/>
<path id="Vector_28" d="M147.545 321.588C137.022 311.3 111.241 295.419 97.6843 287.347C103.65 274.045 108.867 262.409 111.59 256.035C120.258 235.685 130.279 231.424 130.279 231.424C130.279 231.424 139.329 246.076 141.929 254.303C144.529 262.53 148.864 308.425 149.297 313.189C149.416 314.521 148.638 317.673 147.545 321.588Z" fill="#000069"/>
<path id="Vector_29" d="M338.736 285.84C328.851 293.651 320.636 300.51 319.196 301.496C316.44 303.368 290.158 249.973 290.158 249.973L286.1 241.884C286.1 241.884 277.466 206.173 283.031 204.354C286.134 203.33 312.07 195.331 335.631 187.726C336.914 211.437 340.209 260.519 338.736 285.84Z" fill="#000069"/>
<path id="Vector_30" d="M208.138 184.32C207.031 184.32 203.615 183.929 202.47 182.192C202.151 181.708 201.865 180.913 202.312 179.873C203.097 178.051 203.503 172.444 203.594 170.435C203.618 169.903 204.08 169.493 204.602 169.514C205.135 169.538 205.546 169.989 205.523 170.521C205.488 171.295 205.152 178.16 204.086 180.634C203.956 180.937 204.032 181.053 204.083 181.13C204.582 181.888 206.853 182.389 208.137 182.389C208.67 182.389 209.102 182.822 209.102 183.354C209.103 183.888 208.671 184.32 208.138 184.32Z" fill="#000069"/>
<path id="Vector_31" d="M213.291 203.081C213.285 203.081 213.278 203.081 213.27 203.081C186.653 202.515 183.771 185.835 183.745 185.667C183.664 185.141 184.025 184.648 184.552 184.567C185.085 184.491 185.57 184.845 185.653 185.37C185.754 186.001 188.4 200.624 213.311 201.153C213.844 201.164 214.267 201.605 214.255 202.138C214.245 202.663 213.815 203.081 213.291 203.081Z" fill="#000069"/>
<path id="Vector_32" d="M270.307 379.424C269.256 379.424 268.174 379.402 267.053 379.358C266.52 379.337 266.106 378.887 266.127 378.357C266.149 377.824 266.623 377.42 267.13 377.431C295.941 378.573 300.063 363.718 300.101 363.567C300.232 363.054 300.753 362.74 301.271 362.867C301.787 362.995 302.102 363.514 301.976 364.03C301.816 364.68 297.867 379.424 270.307 379.424Z" fill="#000069"/>
<path id="Vector_33" d="M267.091 390.088C266.606 390.088 266.188 389.725 266.132 389.234C266.072 388.704 266.454 388.226 266.983 388.166C279.978 386.698 291.419 379.064 292.967 373.222C293.103 372.705 293.633 372.402 294.147 372.535C294.663 372.671 294.971 373.198 294.834 373.715C292.907 380.988 279.994 388.636 267.2 390.082C267.163 390.087 267.127 390.088 267.091 390.088Z" fill="#000069"/>
<path id="Vector_34" d="M517.867 115.717C514.496 115.718 511.244 115.036 508.464 113.185C505.754 111.381 504.439 109.568 504.447 107.645C504.458 104.732 507.451 102.174 511.944 99.2315C512.393 98.941 512.989 99.0628 513.281 99.5098C513.573 99.955 513.448 100.553 513.004 100.845C509.731 102.989 506.386 105.473 506.378 107.654C506.374 108.861 507.436 110.183 509.535 111.582C515.279 115.407 523.673 113.528 530.348 111.462C535.661 109.819 545.725 97.668 545.31 86.8754C545.212 84.3353 544.313 82.3274 542.637 80.9047C538.62 77.4959 531.451 78.3429 531.382 78.3525C530.846 78.4203 530.369 78.0438 530.304 77.5142C530.239 76.9872 530.613 76.5046 531.142 76.4385C531.471 76.3967 539.231 75.4845 543.888 79.436C545.993 81.2213 547.121 83.6996 547.24 86.8015C547.704 98.8376 536.636 111.537 530.921 113.305C526.903 114.547 522.284 115.717 517.867 115.717Z" fill="#000069"/>
<path id="Vector_35" d="M527.785 121.801C526.098 121.802 524.277 121.564 522.229 121.119C511.978 118.892 508.327 113.132 508.176 112.889C507.898 112.435 508.039 111.841 508.492 111.562C508.947 111.282 509.541 111.424 509.821 111.878C509.851 111.927 513.247 117.194 522.64 119.234C531.949 121.255 535.602 119.258 547.04 105.867C555.232 96.2766 546.027 87.9093 545.631 87.558C545.233 87.2041 545.197 86.5945 545.551 86.1962C545.904 85.7979 546.514 85.7614 546.913 86.1162C547.024 86.2154 557.914 96.1079 548.509 107.118C539.5 117.668 534.81 121.801 527.785 121.801Z" fill="#000069"/>
<path id="Vector_36" d="M532.734 123.99C527.301 123.99 523.565 121.996 522.575 121.402C522.118 121.128 521.97 120.537 522.244 120.079C522.518 119.623 523.11 119.475 523.568 119.749C524.427 120.264 532.268 124.64 542.592 119.705C545.34 118.392 547.093 116.598 547.801 114.374C548.975 110.689 546.952 107 546.933 106.961C546.671 106.496 546.839 105.909 547.305 105.65C547.771 105.39 548.359 105.557 548.619 106.023C548.719 106.202 551.066 110.488 549.642 114.957C548.765 117.711 546.674 119.894 543.425 121.445C539.444 123.347 535.816 123.99 532.734 123.99Z" fill="#000069"/>
<path id="Vector_37" d="M180.516 171.444C180.491 171.444 180.466 171.443 180.443 171.441C179.911 171.401 179.512 170.938 179.553 170.407C179.781 167.39 179.26 165.267 178.047 164.269C176.723 163.18 174.867 163.671 174.847 163.677C174.335 163.817 173.803 163.519 173.659 163.009C173.515 162.498 173.809 161.968 174.32 161.822C174.434 161.789 177.136 161.041 179.253 162.763C181.013 164.194 181.76 166.815 181.478 170.552C181.438 171.059 181.016 171.444 180.516 171.444Z" fill="#000069"/>
<path id="Vector_38" d="M243.888 174.472C243.775 174.472 243.661 174.453 243.55 174.411C242.492 174.014 242.118 173.267 241.99 172.71C241.382 170.072 245.313 165.772 246.108 164.937C246.474 164.551 247.086 164.536 247.472 164.902C247.859 165.269 247.874 165.879 247.508 166.265C245.877 167.981 243.594 171.078 243.872 172.277C243.89 172.356 243.92 172.489 244.227 172.604C244.727 172.79 244.979 173.346 244.793 173.845C244.646 174.233 244.278 174.472 243.888 174.472Z" fill="#000069"/>
<path id="Vector_39" d="M392.041 254.207C391.667 254.207 391.31 253.987 391.153 253.622C390.944 253.132 391.171 252.565 391.661 252.355C391.871 252.265 412.729 243.339 418.938 240.437C419.42 240.211 419.996 240.419 420.223 240.902C420.449 241.384 420.24 241.958 419.757 242.185C413.519 245.1 392.631 254.038 392.422 254.127C392.298 254.18 392.169 254.207 392.041 254.207Z" fill="#000069"/>
<path id="Vector_40" d="M429.989 237.042C429.728 237.042 429.468 236.937 429.279 236.731C428.918 236.34 428.942 235.73 429.334 235.37C429.486 235.228 444.737 221.004 459.356 193.365C459.604 192.894 460.188 192.713 460.659 192.964C461.131 193.212 461.312 193.797 461.062 194.267C446.278 222.221 430.797 236.644 430.643 236.787C430.457 236.957 430.222 237.042 429.989 237.042Z" fill="#000069"/>
<path id="Vector_41" d="M86.1313 420.856C86.0782 420.856 86.026 420.852 85.972 420.843C79.1144 419.701 74.1805 418.127 73.9725 418.061C73.465 417.898 73.1864 417.355 73.3492 416.848C73.5128 416.341 74.0569 416.065 74.5635 416.224C74.6131 416.241 79.5792 417.822 86.288 418.94C86.8138 419.028 87.1698 419.524 87.0819 420.049C87.0044 420.522 86.5953 420.856 86.1313 420.856Z" fill="#000069"/>
<path id="Vector_42" d="M126.008 505.528C125.615 505.528 125.245 505.287 125.102 504.896C124.918 504.396 125.174 503.842 125.675 503.659C142.315 497.553 151.026 464.816 151.112 464.487C151.246 463.97 151.779 463.665 152.29 463.796C152.806 463.931 153.116 464.457 152.981 464.973C152.619 466.361 143.918 499.02 126.341 505.469C126.232 505.509 126.119 505.528 126.008 505.528Z" fill="#000069"/>
<path id="Vector_43" d="M331.769 491.673C331.599 491.673 331.426 491.628 331.27 491.534C311.998 479.866 309.522 450.463 309.427 449.217C309.387 448.685 309.783 448.222 310.315 448.181C310.857 448.144 311.31 448.538 311.351 449.069C311.374 449.364 313.855 478.734 332.271 489.884C332.726 490.16 332.872 490.754 332.596 491.209C332.414 491.507 332.096 491.673 331.769 491.673Z" fill="#000069"/>
<path id="Vector_44" d="M86.1313 786.677C86.0956 786.677 86.0591 786.675 86.0225 786.672C85.4924 786.612 85.112 786.133 85.1712 785.605C86.2915 775.68 91.3794 743.918 96.766 710.29C103.762 666.616 111.691 617.116 112.314 606.689C113.408 588.363 124.944 528.652 125.062 528.05C125.163 527.528 125.669 527.184 126.193 527.287C126.717 527.388 127.059 527.893 126.957 528.417C126.841 529.017 115.329 588.604 114.241 606.805C113.612 617.327 105.675 666.878 98.6723 710.595C93.2901 744.201 88.2057 775.942 87.0906 785.822C87.034 786.313 86.6162 786.677 86.1313 786.677Z" fill="#000069"/>
<path id="Vector_45" d="M280.495 791.295C279.982 791.295 279.554 790.89 279.532 790.372C277.988 754.182 259.076 620.872 253.503 614.298C247.625 607.363 240.202 592.792 239.888 592.175C239.647 591.7 239.837 591.119 240.312 590.878C240.787 590.635 241.368 590.826 241.61 591.303C241.686 591.451 249.245 606.29 254.976 613.051C261.365 620.588 280.041 757.016 281.461 790.289C281.483 790.822 281.071 791.271 280.538 791.295C280.524 791.295 280.509 791.295 280.495 791.295Z" fill="#000069"/>
<path id="Vector_46" d="M368.758 791.295C368.714 791.295 368.669 791.293 368.624 791.286C368.096 791.214 367.728 790.726 367.801 790.199C367.819 790.062 369.71 776.376 371.764 758.108C371.823 757.58 372.305 757.202 372.832 757.257C373.361 757.317 373.744 757.793 373.684 758.323C371.627 776.617 369.733 790.327 369.713 790.462C369.646 790.946 369.233 791.295 368.758 791.295Z" fill="#000069"/>
<path id="Vector_47" d="M373.538 751.755C373.504 751.755 373.47 751.753 373.435 751.75C372.905 751.693 372.521 751.218 372.578 750.688C372.959 747.112 373.342 743.412 373.713 739.642C373.766 739.113 374.229 738.732 374.768 738.776C375.299 738.828 375.688 739.3 375.635 739.83C375.264 743.606 374.881 747.311 374.498 750.893C374.444 751.387 374.026 751.755 373.538 751.755Z" fill="#000069"/>
<path id="Vector_48" d="M376.408 721.182C376.383 721.182 376.357 721.181 376.332 721.18C375.801 721.138 375.404 720.674 375.445 720.143C376.112 711.643 376.587 703.868 376.856 697.034C376.876 696.514 377.304 696.107 377.818 696.107C377.832 696.107 377.845 696.107 377.858 696.107C378.39 696.128 378.806 696.577 378.784 697.108C378.513 703.968 378.038 711.767 377.368 720.294C377.331 720.799 376.907 721.182 376.408 721.182Z" fill="#000069"/>
<path id="Vector_49" d="M378.057 689.68C378.052 689.68 378.047 689.68 378.041 689.68C377.508 689.672 377.082 689.233 377.091 688.701C377.151 684.934 377.133 681.457 377.036 678.365C376.941 675.24 376.59 671.354 375.999 666.816C375.93 666.289 376.303 665.804 376.831 665.736C377.35 665.665 377.844 666.039 377.913 666.567C378.514 671.168 378.869 675.118 378.967 678.306C379.063 681.426 379.083 684.935 379.021 688.732C379.014 689.259 378.583 689.68 378.057 689.68Z" fill="#000069"/>
<path id="Vector_50" d="M374.619 652.977C374.162 652.977 373.755 652.651 373.67 652.184C372.865 647.746 371.903 642.832 370.807 637.577C370.697 637.055 371.032 636.544 371.555 636.436C372.077 636.323 372.588 636.661 372.697 637.183C373.797 642.454 374.763 647.385 375.571 651.841C375.665 652.365 375.318 652.867 374.792 652.962C374.734 652.973 374.677 652.977 374.619 652.977Z" fill="#000069"/>
<path id="Vector_51" d="M368.958 625.486C368.517 625.486 368.118 625.181 368.017 624.734C366.501 617.992 364.781 610.679 362.906 602.996C362.779 602.478 363.098 601.956 363.615 601.83C364.137 601.7 364.655 602.021 364.782 602.539C366.659 610.234 368.382 617.558 369.901 624.31C370.018 624.83 369.691 625.346 369.171 625.463C369.1 625.478 369.028 625.486 368.958 625.486Z" fill="#000069"/>
<path id="Vector_52" d="M361.362 593.699C360.93 593.699 360.537 593.406 360.427 592.969C358.525 585.386 356.432 577.263 354.205 568.826C354.069 568.311 354.376 567.784 354.893 567.648C355.399 567.515 355.935 567.819 356.071 568.335C358.301 576.779 360.396 584.91 362.3 592.5C362.429 593.018 362.114 593.541 361.597 593.67C361.519 593.689 361.44 593.699 361.362 593.699Z" fill="#000069"/>
<path id="Vector_53" d="M353.348 562.8C352.922 562.8 352.531 562.516 352.416 562.084C351.58 558.955 350.767 555.942 349.989 553.073C349.85 552.56 350.153 552.03 350.668 551.891C351.185 551.747 351.713 552.054 351.852 552.569C352.632 555.44 353.444 558.456 354.281 561.588C354.418 562.102 354.112 562.631 353.597 562.768C353.514 562.79 353.43 562.8 353.348 562.8Z" fill="#000069"/>
<path id="Vector_54" d="M347.352 540.782C346.93 540.782 346.54 540.502 346.423 540.075C344.107 531.719 342.402 525.745 341.593 522.926C341.52 522.676 341.329 522.009 341.974 521.631L342.951 523.294L342.464 522.461L343.394 522.203L343.448 522.394C344.259 525.215 345.966 531.195 348.284 539.56C348.426 540.073 348.124 540.604 347.611 540.747C347.524 540.77 347.438 540.782 347.352 540.782Z" fill="#000069"/>
<path id="Vector_55" d="M360.279 791.295C360.245 791.295 360.21 791.294 360.175 791.289C359.645 791.233 359.261 790.757 359.319 790.227C359.332 790.108 360.629 778.044 362.19 761.425C362.24 760.895 362.696 760.503 363.242 760.555C363.772 760.605 364.162 761.076 364.113 761.606C362.551 778.238 361.252 790.314 361.239 790.434C361.185 790.928 360.766 791.295 360.279 791.295Z" fill="#000069"/>
<path id="Vector_56" d="M364.941 742.507C364.914 742.507 364.886 742.506 364.858 742.503C364.327 742.458 363.933 741.992 363.978 741.461C364.826 731.506 365.548 722.155 366.125 713.666C366.16 713.134 366.635 712.746 367.153 712.768C367.686 712.805 368.087 713.265 368.052 713.796C367.474 722.296 366.751 731.659 365.901 741.625C365.86 742.127 365.438 742.507 364.941 742.507Z" fill="#000069"/>
<path id="Vector_57" d="M368.04 698.965C368.022 698.965 368.006 698.965 367.988 698.964C367.455 698.935 367.046 698.482 367.073 697.95C367.549 688.793 367.791 681.028 367.791 674.87C367.791 669.046 367.331 662.846 366.424 656.446C366.349 655.919 366.717 655.43 367.244 655.356C367.779 655.282 368.261 655.649 368.335 656.175C369.255 662.665 369.721 668.955 369.721 674.87C369.721 681.062 369.479 688.86 369.002 698.05C368.975 698.566 368.55 698.965 368.04 698.965Z" fill="#000069"/>
<path id="Vector_58" d="M364.022 640.077C363.589 640.077 363.194 639.782 363.087 639.342C361.513 632.94 359.552 626.374 357.257 619.823C357.082 619.32 357.347 618.77 357.851 618.593C358.355 618.419 358.905 618.683 359.081 619.186C361.394 625.794 363.374 632.422 364.961 638.882C365.088 639.399 364.771 639.922 364.254 640.048C364.176 640.068 364.098 640.077 364.022 640.077Z" fill="#000069"/>
<path id="Vector_59" d="M210.919 643.06C210.864 643.06 210.807 643.056 210.75 643.045C210.225 642.953 209.874 642.452 209.967 641.928C212.252 628.996 212.297 628.949 212.596 628.64C212.968 628.257 213.579 628.245 213.961 628.615C214.257 628.901 214.331 629.329 214.18 629.685C214.01 630.307 213.233 634.537 211.868 642.263C211.786 642.732 211.379 643.06 210.919 643.06Z" fill="#000069"/>
<path id="Vector_60" d="M207.642 661.763C207.588 661.763 207.533 661.758 207.476 661.749C206.95 661.657 206.6 661.158 206.691 660.633C207.495 656.023 208.24 651.756 208.907 647.947C208.999 647.424 209.489 647.072 210.026 647.164C210.551 647.256 210.902 647.757 210.81 648.281C210.142 652.089 209.397 656.355 208.594 660.965C208.511 661.432 208.104 661.763 207.642 661.763Z" fill="#000069"/>
<path id="Vector_61" d="M204.183 681.612C204.128 681.612 204.073 681.608 204.016 681.598C203.491 681.507 203.139 681.007 203.231 680.483L205.358 668.277C205.451 667.753 205.953 667.404 206.474 667.492C207 667.583 207.352 668.082 207.26 668.607L205.134 680.815C205.052 681.282 204.644 681.612 204.183 681.612Z" fill="#000069"/>
<path id="Vector_62" d="M200.31 703.783C200.256 703.783 200.2 703.778 200.143 703.769C199.617 703.677 199.268 703.177 199.359 702.651L200.742 694.746C200.834 694.221 201.324 693.873 201.861 693.962C202.386 694.054 202.736 694.554 202.645 695.08L201.262 702.985C201.178 703.453 200.771 703.783 200.31 703.783Z" fill="#000069"/>
<path id="Vector_63" d="M197.589 719.234C197.534 719.234 197.477 719.23 197.42 719.22C196.895 719.128 196.545 718.627 196.638 718.102C197.305 714.318 197.977 710.501 198.646 706.688C198.738 706.164 199.228 705.815 199.765 705.904C200.29 705.997 200.64 706.497 200.549 707.021C199.88 710.835 199.207 714.652 198.539 718.437C198.457 718.906 198.05 719.234 197.589 719.234Z" fill="#000069"/>
<path id="Vector_64" d="M194.987 733.891C194.931 733.891 194.874 733.886 194.817 733.876C194.292 733.783 193.943 733.281 194.037 732.757C194.673 729.197 195.32 725.558 195.97 721.874C196.062 721.348 196.567 720.994 197.089 721.092C197.614 721.184 197.964 721.684 197.871 722.208C197.22 725.895 196.574 729.534 195.937 733.096C195.853 733.563 195.446 733.891 194.987 733.891Z" fill="#000069"/>
<path id="Vector_65" d="M189.821 762.306C189.763 762.306 189.704 762.3 189.643 762.29C189.119 762.192 188.773 761.688 188.871 761.165C189.59 757.31 190.363 753.117 191.171 748.674C191.265 748.149 191.77 747.799 192.293 747.897C192.819 747.992 193.166 748.495 193.071 749.018C192.262 753.464 191.49 757.66 190.77 761.519C190.684 761.981 190.278 762.306 189.821 762.306Z" fill="#000069"/>
<path id="Vector_66" d="M184.698 786.677C184.538 786.677 184.375 786.638 184.226 786.553C183.762 786.293 183.596 785.705 183.857 785.24C184.115 784.76 184.976 781.698 187.849 766.596C187.948 766.074 188.456 765.731 188.977 765.829C189.501 765.929 189.845 766.434 189.745 766.956C186.366 784.719 185.787 785.746 185.541 786.185C185.364 786.5 185.036 786.677 184.698 786.677Z" fill="#000069"/>
<path id="Vector_67" d="M187.671 718.175C187.611 718.175 187.55 718.17 187.489 718.158C186.965 718.058 186.622 717.553 186.722 717.03L188.36 708.464C188.46 707.939 188.966 707.601 189.489 707.697C190.013 707.797 190.356 708.303 190.256 708.825L188.619 717.392C188.53 717.853 188.125 718.175 187.671 718.175Z" fill="#000069"/>
<path id="Vector_68" d="M184.1 736.871C184.04 736.871 183.979 736.865 183.918 736.853C183.395 736.753 183.051 736.249 183.151 735.725L185.565 723.082C185.666 722.557 186.167 722.216 186.695 722.315C187.218 722.415 187.563 722.919 187.462 723.442L185.048 736.086C184.959 736.549 184.556 736.871 184.1 736.871Z" fill="#000069"/>
<path id="Vector_69" d="M180.779 754.261C180.719 754.261 180.658 754.256 180.597 754.244C180.074 754.144 179.73 753.639 179.83 753.116L182.024 741.63C182.124 741.107 182.628 740.767 183.153 740.864C183.676 740.964 184.021 741.468 183.921 741.992L181.727 753.477C181.639 753.94 181.234 754.261 180.779 754.261Z" fill="#000069"/>
<path id="Vector_70" d="M177.794 769.883C177.734 769.883 177.674 769.877 177.613 769.866C177.089 769.766 176.745 769.262 176.845 768.737L178.482 760.166C178.582 759.64 179.089 759.304 179.612 759.399C180.135 759.499 180.479 760.003 180.379 760.527L178.742 769.099C178.653 769.562 178.249 769.883 177.794 769.883Z" fill="#000069"/>
<path id="Vector_71" d="M174.586 786.677C174.526 786.677 174.465 786.672 174.404 786.66C173.881 786.56 173.537 786.055 173.637 785.532L175.16 777.554C175.261 777.029 175.768 776.691 176.29 776.787C176.814 776.887 177.158 777.391 177.057 777.916L175.534 785.893C175.444 786.356 175.04 786.677 174.586 786.677Z" fill="#000069"/>
<path id="Vector_72" d="M250.288 140.368C248.518 144.734 246.369 148.681 244.34 151.8C235.967 164.684 224.023 164.217 203.946 164.321C183.887 164.424 159.529 151.8 154.276 132.228C152.057 123.985 151.797 116.657 152.542 110.39C160.451 142.613 183.342 150.045 180.577 147.487C173.119 140.584 170.312 127.414 172.776 127.137C179.598 137.356 210.133 144.931 221.28 139.717C230.867 135.246 241.428 134.098 250.288 140.368Z" fill="#838383"/>
<path id="Vector_73" d="M510.912 101.781C507.348 101.781 504.301 101.503 502.57 101.041C501.641 100.793 501.089 99.8402 501.336 98.9124C501.583 97.9845 502.535 97.4323 503.467 97.6802C508.824 99.1063 525.696 98.2393 530.84 94.2913C532.05 93.3626 532.05 92.6634 532.05 92.433C532.05 86.9032 531.488 85.5475 516.729 84.2057C503.061 82.9613 486.164 90.8929 485.994 90.9729C485.125 91.3834 484.087 91.0156 483.674 90.1477C483.261 89.2798 483.631 88.2433 484.499 87.8302C485.225 87.4859 502.452 79.4099 517.044 80.7413C530.739 81.9857 535.531 83.2414 535.531 92.4321C535.531 93.6383 535.085 95.4183 532.961 97.0488C528.447 100.515 518.508 101.781 510.912 101.781Z" fill="#000069"/>
<path id="Vector_74" d="M526.69 85.5136C526.297 85.5136 525.902 85.3814 525.576 85.111C524.711 84.3901 524.734 83.4318 525.648 82.2604C525.992 81.8187 526.69 80.943 528.11 79.209C543.144 60.8501 543.319 47.9644 543.319 47.8365C543.319 46.8765 544.099 46.0974 545.06 46.0974C546.021 46.0974 546.801 46.8765 546.801 47.8365C546.801 48.4096 546.619 62.1006 530.805 81.4108C528.754 83.917 528.272 84.5518 528.173 84.6883C528.129 84.757 528.082 84.824 528.028 84.8875C527.683 85.3005 527.188 85.5136 526.69 85.5136Z" fill="#000069"/>
<path id="Vector_75" d="M66.0998 408.808C65.4644 408.808 64.8507 408.459 64.5443 407.852C59.9717 398.814 62.0103 374.326 62.1 373.288C62.1827 372.33 63.0366 371.622 63.9828 371.703C64.9412 371.785 65.6515 372.628 65.5688 373.584C65.5479 373.829 63.5232 398.122 67.6519 406.284C68.0854 407.141 67.7416 408.186 66.8833 408.62C66.6317 408.748 66.3636 408.808 66.0998 408.808Z" fill="#000069"/>
</g>
<g id="graph">
<path id="graph_2" d="M579.129 900.572C579.129 904.575 575.882 907.82 571.875 907.82H434.293C430.286 907.82 427.039 904.575 427.039 900.572V517.257C427.039 513.253 430.286 510.009 434.293 510.009H571.875C575.882 510.009 579.129 513.253 579.129 517.257V900.572Z" fill="#B2B2B2"/>
<path id="graph_3" d="M771.999 902.84C771.999 905.69 768.754 908 764.749 908H627.249C623.244 908 620 905.69 620 902.84V515.16C620 512.31 623.244 510 627.249 510H764.75C768.755 510 772 512.31 772 515.16V902.84H771.999Z" fill="#838383"/>
<path id="graph_4" d="M966 891.176C966 900.468 962.756 908 958.75 908H821.251C817.246 908 814 900.468 814 891.176V526.824C814 517.532 817.246 510 821.251 510H958.75C962.755 510 966 517.532 966 526.824V891.176Z" fill="#B2B2B2"/>
</g>
<g id="line">
<path id="Vector_76" d="M378.346 452C378.076 452 377.801 451.976 377.535 451.927C376.319 451.7 375.697 451.018 376.146 450.402L447.047 353.174C447.341 352.771 448.045 352.479 448.885 352.413C449.729 352.348 450.572 352.516 451.095 352.856L504.51 387.561L648.004 225.731C648.309 225.387 648.919 225.137 649.645 225.058C650.375 224.976 651.131 225.078 651.691 225.327L728.149 259.448L752.7 240.313C753.075 240.022 753.681 239.827 754.362 239.783C755.043 239.738 755.728 239.846 756.237 240.079L786.555 253.935L938.757 147.491C939.517 146.959 940.984 146.842 942.031 147.226C943.079 147.609 943.314 148.352 942.554 148.883L788.822 256.397C788.431 256.67 787.832 256.846 787.168 256.882C786.501 256.915 785.848 256.808 785.354 256.582L755.135 242.772L730.604 261.895C730.232 262.184 729.63 262.377 728.955 262.424C728.284 262.469 727.601 262.366 727.088 262.137L650.979 228.171L507.194 390.331C506.856 390.711 506.152 390.973 505.335 391.024C504.513 391.071 503.712 390.903 503.205 390.574L449.987 355.997L380.547 451.224C380.196 451.703 379.3 452 378.346 452Z" fill="#000069"/>
<path id="Vector_77" d="M949.525 157.722L953.723 134.195L916.461 143.849L949.525 157.722Z" fill="#000069"/>
</g>
</g>
</svg>
