<svg width="832" height="832" viewBox="0 0 832 832" fill="none" xmlns="http://www.w3.org/2000/svg">
<g id="Like-sign 1">
<g id="dog">
<path id="dogVector" d="M422.519 560.579C411.735 566.57 397.741 571.364 397.741 571.364C397.741 571.364 400.94 575.761 410.933 575.761C420.926 575.761 424.521 590.954 422.124 589.756C419.729 588.557 410.537 589.756 402.139 592.151C393.751 594.548 388.155 599.341 380.152 604.541C372.16 609.742 353.384 640.511 353.384 640.511C353.384 640.511 353.384 640.511 366.169 644.909C378.955 649.305 392.542 642.908 404.537 638.51C416.53 634.113 430.117 620.13 430.514 628.517C430.919 636.916 429.612 642.116 423.324 645.711C430.919 642.511 446.507 627.32 443.704 647.613C436.515 683.087 389.749 685.275 370.963 685.275C352.175 685.275 334.531 672.49 334.531 672.49C334.531 672.49 319.404 679.285 297.826 694.07C276.246 708.855 233.076 714.054 233.076 714.054C233.076 714.054 191.906 761.215 145.942 732.831C141.15 733.635 123.166 754.016 121.165 761.612C119.164 769.208 130.763 777.2 117.164 778.003C103.576 778.794 101.586 768.814 98.387 756.819C95.1885 744.826 116.372 726.445 116.372 726.445C116.372 726.445 102.785 726.84 94.793 729.238C86.7897 731.634 80.4029 746.43 76.0054 737.229C71.6086 728.04 83.5912 716.848 93.9903 710.45C104.379 704.063 126.365 697.27 128.829 707.262C131.302 717.244 142.746 710.45 142.746 710.45C142.746 710.45 144.747 712.056 141.152 694.071C137.557 676.085 153.936 658.893 153.936 658.893C153.936 658.893 148.748 656.496 138.755 660.09C128.762 663.697 109.975 653.704 112.371 653.704C114.768 653.704 132.752 644.514 126.761 644.91C120.769 645.305 108.777 640.513 104.379 635.312C101.663 632.114 107.919 632.103 113.118 632.553C108.534 631.673 102.599 629.564 97.8162 621.053C91.2202 609.336 105.149 618.13 105.149 618.13C105.149 618.13 112.47 621.791 96.3545 607.863C80.2268 593.945 92.6827 577.819 92.6827 577.819C92.6827 577.819 94.8811 591.011 124.2 618.131C153.519 645.24 171.108 644.515 223.875 647.439C276.643 650.375 292.759 615.196 308.886 602.74C325.013 590.274 334.533 557.295 334.533 557.295C334.533 557.295 310.348 569.76 300.454 574.718C290.561 579.676 286.9 571.959 292.033 563.164C297.156 554.371 308.886 518.455 308.886 518.455C309.711 515.948 340.986 511.419 346.186 516.608C351.385 521.808 372.162 536.593 384.959 538.197C397.744 539.792 424.919 524.61 436.111 521.808C447.301 519.014 446.905 531.8 444.036 540.595C441.175 549.387 433.315 554.578 422.519 560.579Z" fill="#000069"/>
</g>
<g id="Group 1">
<path id="Vector" d="M587.328 210.765C587.328 210.765 587.306 210.765 587.269 210.765C586.844 210.787 584.187 210.933 580.151 211.689C580.144 211.689 580.144 211.689 580.144 211.689C572.806 210.905 566.195 208.248 563.113 202.847C556.194 190.74 560.45 176.292 573.496 172.513C575.499 178.72 579.579 184.745 587.328 188.773C610.229 200.682 587.328 210.765 587.328 210.765Z" fill="#000069"/>
<path id="Vector_2" d="M117.603 633.311C116.394 633.047 114.855 632.892 113.117 632.552C116.349 632.837 119.164 633.311 119.164 633.311" fill="#000069"/>
<path id="Vector_3" d="M119.965 724.191C119.903 724.191 119.839 724.182 119.778 724.159C119.495 724.055 119.347 723.746 119.448 723.462C119.518 723.264 121.284 718.62 131.896 717.45C141.15 716.43 142.454 712.235 144.82 704.618C145.013 703.997 145.211 703.357 145.421 702.697C145.513 702.407 145.822 702.25 146.111 702.339C146.4 702.432 146.56 702.741 146.468 703.03C146.259 703.689 146.06 704.326 145.868 704.944C143.531 712.471 141.986 717.444 132.015 718.542C122.177 719.627 120.497 723.792 120.481 723.834C120.399 724.055 120.189 724.191 119.965 724.191Z" fill="white"/>
<path id="Vector_4" d="M233.075 714.601C232.969 714.601 232.864 714.571 232.771 714.508C232.518 714.34 232.45 713.999 232.618 713.747C238.849 704.398 239.318 670.027 239.322 669.681C239.325 669.376 239.57 669.12 239.878 669.138C240.181 669.142 240.424 669.391 240.421 669.694C240.404 671.122 239.944 704.739 233.533 714.356C233.427 714.515 233.252 714.601 233.075 714.601Z" fill="white"/>
<path id="Vector_5" d="M388.917 651.877C362.239 651.877 346.754 635.475 346.581 635.289C346.376 635.066 346.39 634.719 346.612 634.512C346.835 634.305 347.182 634.317 347.389 634.544C347.579 634.748 366.774 655.051 399.259 649.961C419.269 646.827 424.426 645.261 425.737 644.626C425.625 644.506 425.567 644.336 425.596 644.159C425.646 643.862 425.922 643.654 426.228 643.707C426.815 643.805 427.182 644.133 427.18 644.564C427.177 645.312 427.17 646.702 399.428 651.047C395.755 651.623 392.249 651.877 388.917 651.877Z" fill="white"/>
<path id="Vector_6" d="M332.91 562.849C332.849 562.849 332.786 562.837 332.725 562.816C332.439 562.714 332.29 562.4 332.392 562.113C333.106 560.116 338.244 549.453 339.801 546.233C346.516 532.349 346.529 532.368 347.077 532.452C347.341 532.498 347.535 532.732 347.535 532.999C347.535 533.143 347.48 533.274 347.389 533.371C346.59 534.741 334.579 559.264 333.428 562.483C333.348 562.708 333.135 562.849 332.91 562.849Z" fill="white"/>
<path id="Vector_7" d="M107.131 605.841C106.995 605.841 106.86 605.792 106.754 605.691C101.129 600.398 94.0431 587.25 93.7437 586.692C93.5999 586.425 93.7004 586.092 93.9675 585.948C94.2361 585.806 94.5692 585.905 94.7123 586.173C94.785 586.308 102.013 599.72 107.508 604.891C107.73 605.099 107.739 605.447 107.532 605.668C107.422 605.784 107.276 605.841 107.131 605.841Z" fill="white"/>
<path id="Vector_8" d="M125.326 623.046C125.263 623.046 125.199 623.035 125.135 623.011C118.202 620.428 112.883 612.549 112.66 612.214C112.492 611.963 112.559 611.62 112.812 611.453C113.064 611.283 113.405 611.351 113.575 611.605C113.627 611.682 118.923 619.524 125.518 621.98C125.803 622.087 125.948 622.404 125.841 622.688C125.76 622.909 125.55 623.046 125.326 623.046Z" fill="white"/>
<path id="Vector_9" d="M111.762 616.098C111.666 616.098 111.568 616.073 111.48 616.021C108.126 614.009 100.572 604.709 100.252 604.315C100.061 604.079 100.097 603.733 100.333 603.54C100.57 603.349 100.914 603.387 101.107 603.623C101.183 603.717 108.858 613.165 112.045 615.078C112.305 615.233 112.39 615.571 112.234 615.831C112.131 616.003 111.949 616.098 111.762 616.098Z" fill="white"/>
<path id="Vector_10" d="M111.763 628.34C111.726 628.34 111.688 628.336 111.651 628.327C103.518 626.632 100.304 619.057 100.172 618.735C100.055 618.455 100.188 618.134 100.469 618.018C100.751 617.906 101.07 618.035 101.187 618.314C101.218 618.39 104.324 625.676 111.875 627.251C112.171 627.313 112.363 627.604 112.3 627.9C112.246 628.16 112.018 628.34 111.763 628.34Z" fill="white"/>
<path id="Vector_11" d="M124.212 642.191C117.782 642.191 111.792 638.389 111.464 638.177C111.208 638.013 111.135 637.672 111.299 637.419C111.464 637.162 111.804 637.088 112.06 637.254C112.159 637.318 122.149 643.652 129.712 639.87C129.984 639.734 130.314 639.844 130.449 640.116C130.585 640.387 130.475 640.719 130.204 640.852C128.271 641.822 126.22 642.191 124.212 642.191Z" fill="white"/>
<path id="Vector_12" d="M131.873 658.789C127.737 658.789 125.197 657.148 125.022 657.031C124.77 656.863 124.702 656.523 124.87 656.269C125.037 656.017 125.378 655.948 125.631 656.114C125.905 656.295 132.427 660.46 141.907 654.454C142.164 654.295 142.503 654.368 142.665 654.625C142.828 654.881 142.751 655.221 142.495 655.383C138.36 658.003 134.733 658.789 131.873 658.789Z" fill="white"/>
<path id="Vector_13" d="M223.259 714.601C223.123 714.601 222.987 714.551 222.88 714.45C222.66 714.24 222.652 713.892 222.862 713.672C231.226 704.899 232.515 689.114 232.527 688.954C232.551 688.653 232.816 688.426 233.117 688.449C233.42 688.472 233.647 688.736 233.624 689.04C233.574 689.701 232.296 705.369 223.658 714.431C223.549 714.544 223.404 714.601 223.259 714.601Z" fill="white"/>
<path id="Vector_14" d="M181.572 738.182C181.285 738.182 181.043 737.958 181.024 737.668C181.004 737.365 181.233 737.103 181.536 737.084C181.688 737.075 196.73 735.981 208.686 726.286C208.923 726.095 209.268 726.133 209.459 726.368C209.651 726.604 209.614 726.949 209.379 727.142C197.142 737.061 181.761 738.172 181.608 738.181C181.596 738.182 181.583 738.182 181.572 738.182Z" fill="white"/>
<path id="Vector_15" d="M203.409 725.609C203.241 725.609 203.077 725.533 202.968 725.389C202.785 725.146 202.835 724.802 203.078 724.619C203.357 724.411 204.038 723.99 205.069 723.35C208.905 720.976 217.891 715.413 220.485 711.521C220.653 711.267 220.994 711.199 221.248 711.368C221.501 711.536 221.568 711.879 221.4 712.13C218.673 716.221 209.876 721.668 205.648 724.286C204.715 724.863 203.978 725.319 203.738 725.499C203.639 725.574 203.523 725.609 203.409 725.609Z" fill="white"/>
<path id="Vector_16" d="M119.163 759.026C119.155 759.026 119.146 759.026 119.138 759.026C118.834 759.01 118.6 758.754 118.614 758.45C118.738 755.765 124.213 744.901 124.837 743.67C124.973 743.398 125.305 743.293 125.575 743.428C125.846 743.566 125.954 743.897 125.817 744.167C124.151 747.45 119.808 756.427 119.712 758.501C119.699 758.798 119.456 759.026 119.163 759.026Z" fill="white"/>
<path id="Vector_17" d="M89.5956 727.263C89.5333 727.263 89.4702 727.252 89.4078 727.23C89.1231 727.127 88.9749 726.812 89.0791 726.526C90.4857 722.66 105.401 721.638 107.096 721.534C107.412 721.511 107.661 721.745 107.679 722.048C107.697 722.352 107.467 722.613 107.164 722.631C101.035 723.007 90.9862 724.499 90.1122 726.901C90.0308 727.126 89.8202 727.263 89.5956 727.263Z" fill="white"/>
<path id="Vector_18" d="M213.996 724.948C213.818 724.948 213.644 724.863 213.538 724.704C213.37 724.452 213.437 724.109 213.691 723.942C214.479 723.416 218.931 719.499 220.579 718.032C220.805 717.832 221.153 717.85 221.354 718.079C221.556 718.306 221.535 718.653 221.309 718.855C221.064 719.072 215.314 724.18 214.301 724.856C214.207 724.918 214.099 724.948 213.996 724.948Z" fill="white"/>
<path id="Vector_19" d="M224.582 702.074C224.445 702.074 224.308 702.024 224.202 701.921C223.983 701.713 223.975 701.365 224.185 701.144C224.781 700.288 226.405 690.283 227.623 681.314C227.664 681.013 227.942 680.795 228.241 680.843C228.542 680.884 228.753 681.161 228.712 681.462C228.098 685.983 226.015 700.822 224.98 701.903C224.872 702.018 224.727 702.074 224.582 702.074Z" fill="white"/>
<path id="Vector_20" d="M260.409 649.514C260.109 649.514 259.864 649.272 259.859 648.972C259.856 648.668 260.098 648.42 260.401 648.414C260.432 648.414 263.574 648.334 268.66 645.648C268.929 645.507 269.261 645.609 269.403 645.878C269.544 646.146 269.442 646.479 269.174 646.621C263.824 649.445 260.552 649.513 260.415 649.514C260.412 649.514 260.41 649.514 260.409 649.514Z" fill="white"/>
<path id="Vector_21" d="M275.533 643.673C275.436 643.673 275.339 643.648 275.252 643.594C274.992 643.439 274.907 643.105 275.062 642.844C275.308 642.431 276.001 641.934 277.424 640.938C280.068 639.087 284.494 635.987 286.289 632.309C286.422 632.038 286.752 631.927 287.024 632.057C287.296 632.191 287.41 632.519 287.277 632.793C285.358 636.724 280.786 639.926 278.054 641.838C277.161 642.464 276.149 643.172 276.007 643.407C275.902 643.578 275.719 643.673 275.533 643.673Z" fill="white"/>
<path id="Vector_22" d="M298.693 554.891C298.564 554.891 298.435 554.846 298.331 554.754C298.103 554.555 298.079 554.207 298.28 553.979C303.291 548.26 308.368 529.571 308.419 529.384C308.498 529.09 308.804 528.917 309.093 528.997C309.386 529.074 309.559 529.377 309.481 529.669C309.271 530.448 304.286 548.792 299.107 554.702C298.998 554.829 298.845 554.891 298.693 554.891Z" fill="white"/>
<path id="Vector_23" d="M301.875 571.499C298.915 571.499 296.001 570.559 294.048 568.997C293.812 568.808 293.773 568.462 293.962 568.224C294.152 567.989 294.497 567.951 294.736 568.139C297.713 570.522 304.427 571.677 308.595 568.15C308.826 567.954 309.173 567.982 309.369 568.213C309.565 568.445 309.537 568.792 309.305 568.988C307.235 570.739 304.537 571.499 301.875 571.499Z" fill="white"/>
<path id="Vector_24" d="M301.145 569.163C300.409 569.163 299.744 568.927 299.162 568.456C297.055 566.755 296.829 562.505 296.82 562.324C296.806 562.022 297.04 561.764 297.343 561.751C297.624 561.701 297.904 561.968 297.919 562.272C297.921 562.312 298.13 566.213 299.853 567.603C300.347 567.998 300.909 568.139 301.58 568.026C301.88 567.974 302.163 568.179 302.212 568.478C302.263 568.778 302.059 569.06 301.761 569.111C301.551 569.146 301.345 569.163 301.145 569.163Z" fill="white"/>
<path id="Vector_25" d="M445.062 533.559C436.295 533.559 433.067 522.823 433.036 522.714C432.95 522.423 433.118 522.117 433.409 522.034C433.702 521.946 434.005 522.114 434.091 522.407C434.12 522.511 437.259 532.876 445.603 532.446C445.895 532.415 446.167 532.66 446.182 532.963C446.198 533.267 445.966 533.527 445.663 533.542C445.46 533.554 445.259 533.559 445.062 533.559Z" fill="white"/>
<path id="Vector_26" d="M344.35 643.676C344.273 643.676 344.193 643.66 344.118 643.624C340.137 641.759 337.718 639.672 336.929 637.423C336.364 635.814 336.887 634.719 336.91 634.673C337.044 634.402 337.374 634.291 337.646 634.424C337.916 634.556 338.028 634.881 337.899 635.154C337.871 635.218 336.385 638.789 344.585 642.629C344.859 642.757 344.978 643.085 344.849 643.36C344.755 643.559 344.557 643.676 344.35 643.676Z" fill="white"/>
<path id="Vector_27" d="M370.158 651.888C370.139 651.888 370.12 651.885 370.103 651.885C360.505 650.948 352.761 646.656 352.683 646.613C352.419 646.464 352.324 646.13 352.473 645.865C352.621 645.599 352.955 645.506 353.221 645.653C353.297 645.697 360.85 649.878 370.21 650.79C370.512 650.819 370.732 651.088 370.703 651.391C370.676 651.674 370.436 651.888 370.158 651.888Z" fill="white"/>
<path id="Vector_28" d="M352.953 655.468C345.076 655.468 342.222 649.25 342.194 649.187C342.072 648.91 342.196 648.586 342.473 648.463C342.748 648.338 343.074 648.463 343.199 648.74C343.302 648.969 345.81 654.368 352.953 654.368C353.257 654.368 353.502 654.615 353.502 654.92C353.502 655.223 353.256 655.468 352.953 655.468Z" fill="white"/>
<path id="Vector_29" d="M197.861 420.533H207.482V430.159C207.482 431.39 208.487 432.394 209.719 432.394C210.957 432.394 211.957 431.39 211.957 430.159V420.533H221.582C222.817 420.533 223.818 419.532 223.818 418.295C223.818 417.06 222.817 416.059 221.582 416.059H211.957V406.434C211.957 405.199 210.957 404.196 209.719 404.196C208.487 404.196 207.482 405.199 207.482 406.434V416.059H197.861C196.626 416.059 195.624 417.06 195.624 418.295C195.625 419.532 196.627 420.533 197.861 420.533Z" fill="#B2B2B2"/>
<path id="Vector_30" d="M91.356 419.907H100.979V429.529C100.979 430.764 101.983 431.768 103.217 431.768C104.452 431.768 105.454 430.764 105.454 429.529V419.907H115.078C116.312 419.907 117.316 418.904 117.316 417.667C117.316 416.433 116.312 415.432 115.078 415.432H105.454V405.806C105.454 404.572 104.452 403.571 103.217 403.571C101.983 403.571 100.979 404.572 100.979 405.806V415.432H91.356C90.1218 415.432 89.1202 416.433 89.1202 417.667C89.1202 418.904 90.1218 419.907 91.356 419.907Z" fill="#B2B2B2"/>
<path id="Vector_31" d="M140.09 367.414H149.713V377.036C149.713 378.271 150.714 379.271 151.951 379.271C153.186 379.271 154.187 378.271 154.187 377.036V367.414H163.812C165.046 367.414 166.048 366.409 166.048 365.175C166.048 363.939 165.046 362.937 163.812 362.937H154.187V353.314C154.187 352.079 153.186 351.076 151.951 351.076C150.714 351.076 149.713 352.079 149.713 353.314V362.937H140.09C138.853 362.937 137.852 363.939 137.852 365.175C137.852 366.409 138.853 367.414 140.09 367.414Z" fill="#B2B2B2"/>
<path id="Vector_32" d="M178.02 297.347H187.644V306.969C187.644 308.203 188.647 309.207 189.881 309.207C191.117 309.207 192.118 308.203 192.118 306.969V297.347H201.742C202.976 297.347 203.98 296.344 203.98 295.107C203.98 293.873 202.976 292.872 201.742 292.872H192.118V283.246C192.118 282.012 191.117 281.01 189.881 281.01C188.647 281.01 187.644 282.012 187.644 283.246V292.872H178.02C176.786 292.872 175.784 293.873 175.784 295.107C175.785 296.343 176.787 297.347 178.02 297.347Z" fill="#B2B2B2"/>
<path id="Vector_33" d="M260.775 106.205H270.397V115.831C270.397 117.061 271.402 118.066 272.633 118.066C273.871 118.066 274.872 117.061 274.872 115.831V106.205H284.497C285.731 106.205 286.733 105.202 286.733 103.965C286.733 102.731 285.731 101.73 284.497 101.73H274.872V92.1045C274.872 90.8703 273.871 89.868 272.633 89.868C271.402 89.868 270.397 90.8703 270.397 92.1045V101.73H260.776C259.541 101.73 258.539 102.731 258.539 103.965C258.538 105.202 259.541 106.205 260.775 106.205Z" fill="#B2B2B2"/>
<path id="Vector_34" d="M154.27 105.578H163.894V115.2C163.894 116.434 164.897 117.439 166.131 117.439C167.367 117.439 168.368 116.434 168.368 115.2V105.578H177.992C179.226 105.578 180.229 104.575 180.229 103.339C180.229 102.104 179.225 101.104 177.992 101.104H168.368V91.4779C168.368 90.2437 167.367 89.2413 166.131 89.2413C164.897 89.2413 163.894 90.2437 163.894 91.4779V101.104H154.27C153.036 101.104 152.034 102.104 152.034 103.339C152.034 104.575 153.036 105.578 154.27 105.578Z" fill="#B2B2B2"/>
<path id="Vector_35" d="M633.131 774.152C633.131 774.152 615.726 779.648 597.506 783.309C579.286 786.97 533.279 796.135 524.121 775.979C514.956 755.829 557.097 744.83 557.097 744.83C557.097 744.83 554.683 731.923 551.131 711.81C573.658 715.582 610.876 719.023 630.563 705.492C632.067 742.856 633.131 774.152 633.131 774.152Z" fill="#B2B2B2"/>
<path id="Vector_36" d="M718.322 795.219C690.843 797.053 640.461 767.739 638.627 762.243C637.468 758.773 642.883 726.846 646.566 697.083C660.508 702.448 703.185 718.018 733.842 720.088C730.862 733.92 726.981 745.682 721.991 753.996C744.892 764.07 745.809 793.384 718.322 795.219Z" fill="#B2B2B2"/>
<path id="Vector_37" d="M733.842 720.088C703.185 718.019 660.508 702.448 646.566 697.083C648.731 679.685 650.294 663.029 649.619 653.225C648.283 633.817 635.692 573.309 629.014 542.138L735.302 502.823C736.814 515.355 738.142 525.621 739.066 531.389C742.544 553.131 747.299 657.717 733.842 720.088Z" fill="#FFDCC8"/>
<path id="Vector_38" d="M630.563 705.492C610.875 719.023 573.658 715.582 551.131 711.81C544.887 676.479 535.12 618.892 528.7 569.861C526.381 552.147 525.376 531.968 525.192 511.387C551.425 519.208 607.133 536.335 623.218 541.28C622.41 553.747 622 570.653 623.973 585.44C626.02 600.812 628.648 658.046 630.563 705.492Z" fill="#FFDCC8"/>
<path id="Vector_39" d="M735.302 502.824L629.014 542.139C626.549 530.648 624.883 523.141 624.883 523.141C624.883 523.141 623.907 530.574 623.218 541.28C607.133 536.335 551.425 519.208 525.192 511.387C524.84 470.434 527.768 427.911 530.197 400.175C562.454 411.776 645.664 436.775 711.33 413.801C715.879 412.216 720.34 410.395 724.699 408.327C727.473 434.149 731.867 474.345 735.302 502.824Z" fill="#000069"/>
<path id="Vector_40" d="M724.699 408.328C720.34 410.396 715.878 412.217 711.33 413.802C645.664 436.776 562.454 411.776 530.197 400.175C531.576 384.37 532.802 373.37 533.168 370.194C555.468 351.291 584.275 311.638 580.423 286.279C577.018 263.84 555.981 241.709 543.184 230.086C556.07 217.832 571.361 213.334 580.144 211.691C580.144 211.691 580.144 211.691 580.152 211.691C582.522 211.94 584.965 211.999 587.394 211.896C587.665 214.787 587.673 218.361 586.947 222.191C585.149 231.635 592.847 244.975 613.429 237.93C628.552 232.757 621.068 216.57 621.743 210.722V211.676C621.743 211.676 657.867 199.767 685.347 219.006C688.832 221.449 692.567 225.464 696.427 230.637C688.296 245.21 671.405 277.07 670.37 284.481C659.261 291.753 635.912 300.669 631.744 319.549C631.018 322.836 630.871 326.417 631.473 330.35C635.516 356.883 680.489 389.493 691.51 389.265C698.511 389.118 707.22 385.809 714.492 383.982C717.42 383.248 720.12 382.749 722.373 382.808C722.123 382.925 721.991 382.984 721.991 382.984C721.991 382.984 723.062 393.182 724.699 408.328Z" fill="#838383"/>
<path id="Vector_41" d="M533.168 370.193C533.242 369.569 533.278 369.247 533.278 369.247C533.278 369.247 500.096 373.957 492.054 348.172C482.897 287.709 510.377 313.362 524.12 262.98C528.134 248.26 535.193 237.68 543.183 230.085C555.98 241.708 577.017 263.839 580.422 286.278C584.275 311.637 555.468 351.29 533.168 370.193Z" fill="#B2B2B2"/>
<path id="Vector_42" d="M594.711 143.418C594.682 143.418 594.652 143.417 594.622 143.413C594.238 143.367 593.955 143.029 593.978 142.641C594.017 141.977 594.097 141.563 594.101 141.547C594.172 141.175 594.513 140.919 594.892 140.957C595.268 140.993 595.555 141.309 595.555 141.687C595.555 141.765 595.549 142.189 595.433 142.817C595.367 143.169 595.06 143.418 594.711 143.418Z" fill="#FFDCC8"/>
<path id="Vector_43" d="M753.14 362.833C750.579 369.658 725.756 381.251 722.373 382.807C720.12 382.748 717.42 383.247 714.492 383.981C714.008 347.784 695.164 329.74 675.543 319.328C656.362 309.158 639.287 315.556 631.744 319.549C635.912 300.669 659.261 291.753 670.37 284.481C671.405 277.07 688.296 245.209 696.427 230.637C723.011 266.224 755.54 356.435 753.14 362.833Z" fill="#B2B2B2"/>
<path id="Vector_44" d="M714.492 383.98C707.22 385.807 698.511 389.117 691.51 389.263C680.489 389.492 635.516 356.882 631.473 330.348C630.871 326.416 631.018 322.835 631.744 319.547C639.287 315.555 656.362 309.157 675.543 319.327C695.164 329.739 714.008 347.784 714.492 383.98Z" fill="#FFDCC8"/>
<path id="Vector_45" d="M638.568 170.752C638.179 172.175 637.592 173.32 636.793 174.12C629.279 181.633 622.953 189.918 621.897 191.319C621.794 191.451 621.743 191.525 621.743 191.525V210.72C621.068 216.569 628.552 232.755 613.429 237.929C592.847 244.973 585.149 231.633 586.947 222.189C587.673 218.358 587.665 214.786 587.394 211.894C587.357 211.506 587.32 211.131 587.269 210.764C587.306 210.764 587.328 210.764 587.328 210.764C587.328 210.764 590.788 194.52 587.328 188.773C579.579 184.745 575.499 178.72 573.496 172.513C573.114 171.331 572.814 170.15 572.572 168.976C566.921 167.553 565.05 167.538 564.236 162.827C563.48 158.417 567.963 154.564 572.197 154.433C572.733 150.287 573.585 147.55 573.585 147.55C591.196 153.34 594.204 145.524 594.71 142.685C594.542 145.488 595.128 153.317 606.737 154.051C606.737 154.051 618.184 158.424 628.868 139.72C631.803 143.338 634.1 147.345 635.765 151.322C638.847 145.444 643.477 139.413 647.792 144.806C653.435 151.857 646.038 167.069 638.568 170.752Z" fill="#FFDCC8"/>
<path id="Vector_46" d="M621.896 191.319C622.953 189.918 629.279 181.633 636.792 174.12C637.592 173.32 638.179 172.176 638.567 170.752C646.037 167.068 653.434 151.857 647.791 144.806C643.476 139.412 638.847 145.444 635.764 151.322C634.099 147.345 631.802 143.338 628.867 139.72C618.183 158.424 606.736 154.051 606.736 154.051C595.128 153.317 594.541 145.488 594.71 142.685C594.819 142.09 594.819 141.701 594.819 141.687C594.819 141.687 594.746 142.062 594.71 142.685C594.203 145.524 591.195 153.34 573.584 147.55C573.584 147.55 535.904 153.376 533.432 129.096C530.959 104.807 557.94 92.2161 570.979 94.2413C584.026 96.2665 598.415 110.656 599.765 117.179C602.686 101.432 614.155 102.107 617.978 105.71C621.801 109.306 621.852 112.145 621.742 118.522C621.742 118.522 632.367 102.107 643.617 112.901C654.858 123.695 642.942 128.193 640.916 129.771C649.457 129.543 688.135 120.327 693.308 160.574C698.025 197.3 642.281 220.363 621.896 191.319Z" fill="#000069"/>
<path id="Vector_47" d="M761.066 434.183L465.982 242.213L463.848 245.493L758.932 437.464L761.066 434.183Z" fill="#6C63FF"/>
<path id="Vector_48" d="M349.097 232.633C348.898 233.139 348.847 233.689 348.957 234.24C348.855 233.69 348.905 233.14 349.097 232.633Z" fill="#FFDCC8"/>
<path id="Vector_49" d="M348.957 234.24C348.848 233.69 348.899 233.14 349.097 232.633C348.905 233.14 348.855 233.69 348.957 234.24Z" fill="#FFDCC8"/>
<path id="Vector_50" d="M348.957 234.24C348.848 233.69 348.899 233.14 349.097 232.633C348.905 233.14 348.855 233.69 348.957 234.24Z" fill="#000069"/>
<path id="Vector_51" d="M589.553 181.837C588.55 181.837 587.756 181.532 587.182 180.924C584.293 177.865 587.69 153.461 587.759 153.252C587.887 152.868 588.302 152.661 588.688 152.787C589.059 152.911 589.266 153.302 589.164 153.676C588.804 155.358 586.177 177.722 588.249 179.916C588.621 180.311 589.261 180.449 590.146 180.325C593.39 179.878 597.921 176.397 598.285 175.703C598.427 175.324 598.845 175.143 599.225 175.283C599.605 175.426 599.792 175.859 599.651 176.238C599.207 177.424 594.309 180.994 590.797 181.703C590.352 181.791 589.937 181.837 589.553 181.837Z" fill="#000069"/>
<path id="Vector_52" d="M571.582 163.542C571.194 163.542 570.87 163.238 570.849 162.847C570.578 157.67 568.332 157.474 568.309 157.474C567.904 157.464 567.583 157.128 567.592 156.724C567.601 156.318 567.928 156.009 568.342 156.006C568.49 156.01 571.968 156.166 572.314 162.77C572.335 163.175 572.024 163.52 571.62 163.542C571.608 163.542 571.595 163.542 571.582 163.542Z" fill="#000069"/>
<path id="Vector_53" d="M640.848 160.507C640.607 160.507 640.37 160.388 640.23 160.171C638.681 157.764 638.179 155.274 638.735 152.772C639.883 147.612 645.119 144.27 645.34 144.13C645.684 143.915 646.136 144.018 646.351 144.361C646.567 144.703 646.464 145.156 646.122 145.372C646.073 145.403 641.175 148.538 640.166 153.097C639.7 155.2 640.136 157.313 641.464 159.377C641.684 159.717 641.585 160.171 641.244 160.391C641.122 160.469 640.985 160.507 640.848 160.507Z" fill="#000069"/>
<path id="Vector_54" d="M609.17 194.095C607.063 194.095 605.76 193.758 605.576 193.708C605.186 193.601 604.956 193.196 605.064 192.805C605.172 192.416 605.575 192.19 605.965 192.293C606.144 192.342 621.963 196.294 636.757 173.027C636.975 172.684 637.428 172.584 637.77 172.801C638.112 173.018 638.213 173.472 637.995 173.814C626.702 191.577 614.932 194.095 609.17 194.095Z" fill="#000069"/>
<path id="Vector_55" d="M538.362 743.306C538.361 743.306 538.362 743.306 538.361 743.306C531.738 743.306 526.305 740.283 522.212 734.322C519.959 731.039 519.305 728.605 520.213 726.88C521.054 725.282 523.099 724.506 526.463 724.506C537.44 724.506 559.171 732.866 560.091 733.222C560.334 733.316 560.51 733.531 560.551 733.788C560.592 734.045 560.494 734.306 560.293 734.472C559.856 734.833 549.463 743.306 538.362 743.306ZM526.462 725.973C523.771 725.973 522.059 726.523 521.511 727.564C520.898 728.727 521.559 730.777 523.422 733.49C527.224 739.03 532.251 741.838 538.361 741.838C546.997 741.838 555.455 736.233 558.329 734.126C553.502 732.335 535.706 725.973 526.462 725.973Z" fill="#000069"/>
<path id="Vector_56" d="M590.599 739.991C577.471 739.991 563.893 733.005 563.322 732.707C563.055 732.569 562.9 732.28 562.931 731.982C562.962 731.682 563.172 731.432 563.462 731.351C564.505 731.056 589.168 724.121 602.22 724.121C606.785 724.121 609.415 724.983 610.263 726.756C610.971 728.237 610.376 730.122 608.443 732.517C604.44 737.476 598.437 739.991 590.599 739.991ZM565.75 732.245C569.857 734.129 580.521 738.523 590.599 738.523C597.972 738.523 603.591 736.192 607.3 731.596C608.799 729.738 609.365 728.283 608.938 727.389C608.616 726.717 607.317 725.59 602.219 725.59C591.426 725.589 571.882 730.599 565.75 732.245Z" fill="#000069"/>
<path id="Vector_57" d="M559.827 756.719C559.541 756.719 559.27 756.551 559.152 756.273C558.993 755.9 559.166 755.469 559.539 755.31C567.489 751.923 558.292 725.405 554.078 715.473C553.92 715.1 554.094 714.669 554.467 714.51C554.84 714.353 555.271 714.526 555.429 714.899C556.071 716.413 571.028 752.009 560.114 756.659C560.02 756.7 559.922 756.719 559.827 756.719Z" fill="#000069"/>
<path id="Vector_58" d="M696.92 749.206C696.92 749.206 696.92 749.206 696.919 749.206C693.684 749.206 689.701 747.952 685.082 745.477C679.791 742.641 677.571 740.344 678.098 738.247C678.891 735.088 686.524 733.488 700.785 733.488C703.946 733.488 706.199 733.579 706.222 733.58C706.588 733.595 706.887 733.877 706.922 734.242C706.953 734.562 707.635 742.114 703.753 746.389C702.057 748.259 699.757 749.206 696.92 749.206ZM700.785 734.956C685.782 734.956 679.964 736.84 679.521 738.605C679.373 739.195 679.686 740.92 685.775 744.183C690.178 746.543 693.928 747.739 696.92 747.739H696.92C699.326 747.739 701.26 746.954 702.667 745.404C705.509 742.274 705.569 736.871 705.499 735.024C704.613 734.997 702.907 734.956 700.785 734.956Z" fill="#000069"/>
<path id="Vector_59" d="M725.81 739.748C717.623 739.748 709.404 732.909 709.058 732.617C708.896 732.481 708.802 732.283 708.797 732.073C708.792 731.863 708.878 731.66 709.033 731.517C709.792 730.816 727.724 714.343 736.04 714.343C737.52 714.343 738.663 714.842 739.438 715.826C740.805 717.563 740.918 720.699 739.78 725.412C737.484 734.925 732.784 739.748 725.81 739.748ZM710.666 732.018C712.755 733.608 719.433 738.28 725.81 738.28C732.017 738.28 736.238 733.834 738.353 725.068C739.612 719.851 739.011 717.655 738.284 716.734C737.795 716.112 737.061 715.811 736.039 715.811C729.122 715.811 713.959 729.063 710.666 732.018Z" fill="#000069"/>
<path id="Vector_60" d="M709.588 763.343C709.383 763.343 709.179 763.257 709.034 763.089C701.21 754.082 708.501 721.316 708.815 719.926C708.905 719.531 709.297 719.281 709.693 719.372C710.088 719.461 710.336 719.854 710.247 720.249C710.171 720.582 702.802 753.677 710.142 762.127C710.407 762.433 710.375 762.896 710.069 763.162C709.93 763.283 709.759 763.343 709.588 763.343Z" fill="#000069"/>
<path id="Vector_61" d="M656.176 293.443C655.958 293.443 655.742 293.346 655.598 293.161C655.348 292.842 655.404 292.381 655.723 292.132C661.271 287.788 666.182 284.704 670.489 282.551L695.767 230.315C695.943 229.951 696.384 229.8 696.747 229.974C697.111 230.151 697.264 230.59 697.088 230.954L672.607 281.543C683.903 276.452 690.661 277.984 693.56 279.247C695.9 280.266 697.493 281.893 697.62 283.392C697.681 284.103 697.392 284.723 696.829 285.092C693.542 287.248 672.673 285.424 670.305 285.209C670.065 285.187 669.851 285.049 669.732 284.839C669.699 284.781 669.675 284.718 669.659 284.654C665.808 286.698 661.469 289.495 656.629 293.285C656.494 293.392 656.334 293.443 656.176 293.443ZM671.494 283.842C680.321 284.598 693.956 285.221 696.024 283.866C696.078 283.83 696.179 283.764 696.157 283.518C696.103 282.876 695.209 281.567 692.973 280.593C690.73 279.616 683.808 277.726 671.571 283.682L671.494 283.842Z" fill="#000069"/>
<path id="Vector_62" d="M577.973 308.041C577.877 308.041 577.779 308.023 577.685 307.983C577.312 307.823 577.139 307.392 577.299 307.019C578.247 304.799 577.795 302.26 575.956 299.472C569.223 289.273 545.87 278.72 540.19 278.72C539.785 278.72 539.456 278.392 539.456 277.987C539.456 277.581 539.785 277.253 540.19 277.253C546.241 277.253 570.076 287.901 577.18 298.665C579.309 301.889 579.803 304.894 578.648 307.596C578.529 307.874 578.258 308.041 577.973 308.041Z" fill="#000069"/>
<path id="Vector_63" d="M621.079 526.098C618.797 526.098 610.24 524.13 571.927 510.734C548.523 502.55 525.225 493.996 524.992 493.911C524.611 493.772 524.417 493.35 524.556 492.97C524.696 492.59 525.118 492.393 525.498 492.534C561.974 505.931 617.489 525.508 621.231 524.617C621.565 524.439 621.983 524.546 622.192 524.87C622.41 525.211 622.311 525.665 621.97 525.884C621.819 525.98 621.636 526.098 621.079 526.098Z" fill="white"/>
<path id="Vector_64" d="M637.377 526.094C637.093 526.094 636.823 525.927 636.703 525.651C636.543 525.279 636.715 524.846 637.087 524.687C637.934 524.322 721.895 488.152 724.381 487.061C724.752 486.901 725.185 487.068 725.348 487.439C725.511 487.81 725.341 488.243 724.971 488.406C722.479 489.497 638.515 525.67 637.667 526.034C637.573 526.074 637.473 526.094 637.377 526.094Z" fill="white"/>
<path id="Vector_65" d="M709.53 456.452C709.418 456.452 709.304 456.427 709.198 456.373C687.254 445.217 696.13 424.309 696.223 424.099C696.385 423.727 696.818 423.559 697.189 423.723C697.56 423.886 697.729 424.318 697.567 424.689C697.215 425.495 689.172 444.545 709.863 455.064C710.225 455.248 710.368 455.69 710.185 456.051C710.055 456.305 709.797 456.452 709.53 456.452Z" fill="white"/>
<path id="Vector_66" d="M540.191 447.621C539.975 447.621 539.761 447.526 539.616 447.343C539.364 447.026 539.417 446.564 539.734 446.312C553.269 435.551 558.319 416.09 558.369 415.896C558.468 415.503 558.872 415.269 559.259 415.364C559.653 415.464 559.89 415.863 559.791 416.255C559.74 416.455 554.565 436.395 540.647 447.461C540.512 447.569 540.351 447.621 540.191 447.621Z" fill="white"/>
<path id="Vector_67" d="M533.273 503.557C532.994 503.557 532.727 503.397 532.604 503.126C526.879 490.462 525.089 463.18 529.745 459.555C530.065 459.305 530.525 459.363 530.775 459.683C531.024 460.003 530.966 460.464 530.646 460.713C527.209 463.388 527.883 489.12 533.941 502.521C534.108 502.89 533.944 503.325 533.575 503.492C533.477 503.537 533.375 503.557 533.273 503.557Z" fill="white"/>
<path id="Vector_68" d="M724.698 503.557C724.546 503.557 724.393 503.51 724.262 503.413C723.937 503.171 723.868 502.711 724.11 502.386C727.264 498.139 725.061 470.504 723.945 460.213C723.901 459.81 724.193 459.448 724.596 459.404C724.995 459.359 725.36 459.652 725.404 460.055C725.821 463.9 729.358 497.78 725.287 503.262C725.144 503.455 724.923 503.557 724.698 503.557Z" fill="white"/>
<path id="Vector_69" d="M521.512 282.86C521.512 282.86 516.032 282.507 517.976 286.572C519.921 290.639 523.279 291.346 527.698 302.482C532.117 313.618 533.001 318.213 538.659 323.871C538.659 323.871 546.888 328.55 553.929 327.357C560.971 326.163 565.983 327.551 565.983 327.551C565.983 327.551 581.02 316.617 581.617 307.545C582.213 298.475 580.066 286.777 572.428 291.074C573.145 286.063 573.024 278.436 566.699 279.498C560.373 280.561 558.822 285.348 558.822 285.348C558.822 285.348 561.209 271.503 554.526 272.816C547.843 274.129 536.863 287.973 536.504 292.27C530.759 287.851 521.512 282.86 521.512 282.86Z" fill="#FFDCC8"/>
<path id="Vector_70" d="M635.944 315.607C635.944 315.607 628.89 315.607 622.697 320.683C616.503 325.759 610.74 337.285 611.514 342.791C612.288 348.297 615.126 352.512 617.535 353.372C619.944 354.232 623.694 353.716 623.694 353.716C623.694 353.716 624.675 356.813 627.17 358.448C629.665 360.082 631.643 360.34 632.245 360.254C632.848 360.168 633.278 363.351 635.944 363.953C638.611 364.555 642.568 363.179 644.977 361.372C647.386 359.566 644.005 365.26 646.181 365.931C651.502 367.574 668.719 357.072 661.924 338.404C655.128 319.736 635.944 315.607 635.944 315.607Z" fill="#FFDCC8"/>
<path id="Vector_71" d="M536.242 295.167C536.225 295.167 536.208 295.166 536.189 295.164C535.785 295.136 535.481 294.785 535.509 294.381C535.526 294.141 536.008 288.402 543.182 280.274C549.088 273.582 553.83 271.612 556.299 272.006C557.303 272.165 558.058 272.719 558.426 273.566C559.525 276.101 562.583 285.002 555.769 293.119C555.509 293.43 555.046 293.469 554.736 293.209C554.425 292.949 554.385 292.486 554.645 292.176C560.917 284.704 558.094 276.49 557.079 274.15C556.911 273.764 556.581 273.537 556.07 273.456C553.919 273.108 549.447 275.393 544.281 281.246C537.433 289.004 536.976 294.431 536.972 294.485C536.946 294.872 536.624 295.167 536.242 295.167Z" fill="#000069"/>
<path id="Vector_72" d="M569.789 297.03C569.648 297.03 569.506 296.99 569.38 296.905C569.044 296.679 568.954 296.222 569.181 295.886C572.793 290.52 573.236 285.149 570.397 281.153C569.988 280.577 569.44 280.253 568.721 280.164C566.018 279.817 561.706 282.905 560.276 284.12C559.967 284.383 559.504 284.346 559.242 284.037C558.979 283.728 559.016 283.265 559.325 283.003C559.556 282.807 564.999 278.214 568.903 278.708C570.036 278.849 570.942 279.386 571.593 280.303C574.807 284.825 574.372 290.804 570.399 296.706C570.257 296.917 570.025 297.03 569.789 297.03Z" fill="#000069"/>
<path id="Vector_73" d="M536.241 293.635C536.07 293.635 535.898 293.576 535.759 293.455C525.636 284.634 521.262 283.687 519.563 283.912C518.662 284.03 518.354 284.486 518.222 284.68C518.165 284.765 518.117 284.823 518.087 284.855C517.806 285.147 517.342 285.156 517.05 284.875C516.772 284.608 516.75 284.175 516.99 283.881C517.217 283.546 517.83 282.658 519.372 282.457C522.837 282 528.672 285.331 536.723 292.347C537.029 292.614 537.06 293.077 536.794 293.383C536.65 293.55 536.446 293.635 536.241 293.635Z" fill="#000069"/>
<path id="Vector_74" d="M630.919 361.312C629.43 361.312 627.096 360.485 624.341 356.604C619.834 350.253 627.399 329.523 627.723 328.644C627.863 328.263 628.287 328.07 628.665 328.209C629.046 328.349 629.24 328.771 629.1 329.151C626.966 334.94 622.167 351.003 625.538 355.754C629.339 361.112 631.819 359.655 631.844 359.64C632.182 359.429 632.635 359.523 632.853 359.857C633.071 360.192 632.989 360.635 632.66 360.859C632.6 360.901 631.969 361.312 630.919 361.312Z" fill="#000069"/>
<path id="Vector_75" d="M639.234 365.15C636.515 365.15 634.18 363.788 632.875 362.479C629.023 358.615 636.354 336.473 637.203 333.961C637.333 333.578 637.749 333.368 638.133 333.501C638.517 333.63 638.723 334.047 638.593 334.431C635.5 343.587 631.495 359.017 633.914 361.444C635.045 362.578 637.099 363.76 639.461 363.679C641.569 363.607 643.512 362.564 645.237 360.58C647.914 357.5 649.929 352.31 651.222 345.154C651.295 344.755 651.677 344.495 652.075 344.562C652.473 344.635 652.739 345.017 652.666 345.415C651.325 352.834 649.198 358.26 646.345 361.543C644.371 363.814 642.007 365.06 639.511 365.145C639.418 365.148 639.326 365.15 639.234 365.15Z" fill="#000069"/>
<path id="Vector_76" d="M647.646 366.807C647.292 366.807 646.935 366.792 646.575 366.762C646.172 366.729 645.849 366.373 645.883 365.97C645.916 365.565 646.238 365.259 646.653 365.296C648.783 365.471 655.135 365.992 661.174 354.377C667.181 342.825 654.665 327.704 654.538 327.553C654.278 327.242 654.318 326.779 654.628 326.519C654.939 326.259 655.402 326.299 655.662 326.608C656.207 327.257 668.937 342.63 662.478 355.053C658.418 362.858 653.433 366.807 647.646 366.807Z" fill="#000069"/>
<path id="Vector_77" d="M629.014 542.872C628.674 542.872 628.369 542.635 628.296 542.289C621.531 510.054 628.223 471.415 628.292 471.029C628.341 470.749 628.547 470.524 628.821 470.449C629.11 470.37 657.792 462.464 662.913 455.997C663.166 455.679 663.627 455.625 663.944 455.877C664.262 456.129 664.316 456.59 664.065 456.908C658.953 463.363 633.524 470.66 629.661 471.739C628.933 476.17 623.423 511.919 629.733 541.988C629.816 542.384 629.563 542.773 629.166 542.857C629.114 542.867 629.063 542.872 629.014 542.872Z" fill="white"/>
<path id="Vector_78" d="M629.014 471.89C628.802 471.89 628.592 471.799 628.447 471.623C628.19 471.308 628.235 470.846 628.549 470.589C635.097 465.217 668.003 438.454 672.924 439.333C673.324 439.405 673.589 439.785 673.518 440.184C673.447 440.583 673.063 440.85 672.667 440.778C669.393 440.195 644.439 459.45 629.48 471.725C629.343 471.835 629.178 471.89 629.014 471.89Z" fill="white"/>
<path id="Vector_79" d="M580.422 287.012C580.036 287.012 579.712 286.711 579.69 286.319C578.526 265.583 543.031 230.96 542.673 230.612C542.382 230.331 542.374 229.866 542.657 229.575C542.939 229.284 543.403 229.277 543.694 229.559C545.174 230.993 579.96 264.93 581.156 286.238C581.179 286.642 580.869 286.989 580.465 287.011C580.45 287.011 580.436 287.012 580.422 287.012Z" fill="#000069"/>
</g>
<g id="hand">
<path id="border" d="M493.209 161.404C483.427 104.169 436.466 135.48 448.206 86.0668C482.452 39.105 457.012 26.881 432.555 37.6375C432.555 37.6375 396.35 50.8455 392.931 89.9859C391.243 109.203 388.381 117.451 385.38 121.097C383.465 123.438 381.484 123.886 379.723 124.121C378.638 124.267 377.639 124.333 376.788 124.715C372.385 126.675 331.778 107.104 314.167 115.91C296.556 124.715 306.829 141.834 309.764 145.261C294.113 150.156 286.284 145.261 281.881 162.38C277.478 179.507 284.332 187.82 289.219 192.222C270.632 199.069 273.185 213.73 280.472 227.436C287.751 241.144 304.386 250.433 306.829 251.417C307.387 251.637 309.919 253.456 313.83 256.099C316.28 257.764 319.282 259.752 322.672 261.881C337.611 271.251 360.204 283.285 377.764 281.743C405.647 279.301 436.957 286.902 442.828 281.876C448.698 276.849 452.117 269.028 452.117 269.028C452.117 269.028 502.997 218.638 493.209 161.404ZM312.567 128.913C312.729 128.113 313.221 125.684 317.887 123.351C319.736 122.426 322.524 121.942 325.959 121.942C336.473 121.942 350.386 126.279 360.542 129.448C368.605 131.965 372.627 133.175 375.9 133.175H375.907C377.265 133.175 378.541 132.948 379.693 132.508C379.855 132.486 380.024 132.471 380.192 132.449C380.515 132.412 380.839 132.362 381.154 132.31C381.47 132.259 381.785 132.2 382.094 132.134C382.394 132.068 382.702 132.002 382.995 131.921C383.296 131.848 383.591 131.767 383.876 131.672C384.162 131.591 384.441 131.496 384.712 131.393C384.742 131.386 384.764 131.378 384.787 131.364C385.05 131.268 385.308 131.165 385.557 131.055C385.792 130.96 386.019 130.857 386.239 130.747C386.284 130.732 386.32 130.711 386.357 130.689C386.621 130.564 386.885 130.424 387.135 130.277C398.237 140.022 409.449 152.474 411.365 164.244C412.26 169.776 411.035 174.612 407.6 179.029C407.526 179.125 406.595 180.159 402.082 179.668C400.798 179.521 399.213 179.256 397.268 178.802C390.994 177.349 380.978 173.965 365.055 166.709C345.089 157.603 325.916 146.978 325.725 146.868C324.624 146.259 316.083 139.845 316.083 139.845C314.717 138.253 311.775 132.853 312.567 128.913ZM289.937 164.456C290.591 161.926 291.662 158.696 293.078 157.691C294.215 156.876 296.864 156.443 299.931 155.937C303.262 155.394 307.408 154.712 312.244 153.2L320.918 151.99C319.045 154.865 322.187 151.615 322.876 151.997C323.067 152.107 342.417 162.835 362.596 172.037C379.164 179.595 390.12 183.36 397.472 184.857C399.115 192.546 399.475 208.749 383.655 214.926C381.799 215.653 379.391 215.976 376.551 215.976C358.016 215.976 321.401 202.101 304.693 194.954C304.693 194.954 304.685 194.954 304.685 194.946L294.787 186.037C290.612 182.28 286.768 176.776 289.937 164.456ZM359.669 219.446C359.559 218.896 359.61 218.346 359.808 217.839C359.617 218.346 359.566 218.896 359.669 219.446ZM315.157 246.934C312.126 244.85 311.18 244.204 309.97 243.712C307.937 242.803 293.687 234.577 287.817 223.534C283.818 216.012 282.446 210.091 283.847 206.422C284.839 203.832 287.612 201.682 292.095 200.031L297.444 200.259C297.752 201.879 299.309 199.011 300.065 199.349C304.76 201.411 335.169 214.537 359.728 219.703C359.765 219.807 359.794 219.909 359.838 220.004C359.889 220.136 365.158 233.249 357.277 243.404C353.241 248.599 345.001 253.898 328.308 255.578C322.664 252.092 318.033 248.907 315.157 246.934ZM446.254 263.12L445.139 264.236L444.493 265.688C443.781 267.289 441.279 271.947 437.999 275.029C437.419 275.147 436.142 275.315 433.633 275.315C433.625 275.315 433.625 275.315 433.625 275.315C429.501 275.315 424.072 274.875 417.776 274.369C409.381 273.694 399.864 272.923 390.068 272.923C385.372 272.923 381.108 273.099 377.036 273.452C376.258 273.526 375.443 273.555 374.614 273.555C362.888 273.555 348.462 267.135 336.414 260.368C348.191 258.16 356.717 253.698 361.913 246.999C367.474 239.83 367.951 231.736 367.24 225.888C367.218 225.705 367.195 225.521 367.166 225.338C367.012 224.215 366.814 223.173 366.608 222.256C366.542 221.933 366.461 221.625 366.388 221.331C366.351 221.185 366.314 221.045 366.278 220.906C369.969 221.471 373.44 221.794 376.566 221.794C380.161 221.794 383.302 221.368 385.79 220.4C403.121 213.634 405.455 196.735 403.634 185.648C403.892 185.656 404.134 185.663 404.375 185.663C408.83 185.663 410.95 184.276 412.227 182.633C416.659 176.939 418.317 170.43 417.151 163.297C415.015 150.177 403.51 136.926 391.697 126.44C391.858 126.249 392.012 126.051 392.166 125.853C392.32 125.661 392.46 125.471 392.606 125.273C392.775 125.031 392.952 124.774 393.128 124.51C393.253 124.311 393.385 124.114 393.502 123.908C393.649 123.681 393.789 123.439 393.928 123.197C393.943 123.175 393.957 123.145 393.972 123.123C394.089 122.91 394.214 122.682 394.332 122.456C394.47 122.205 394.596 121.949 394.728 121.684C394.86 121.421 394.985 121.156 395.109 120.877C395.242 120.606 395.367 120.32 395.484 120.033C395.609 119.747 395.726 119.462 395.843 119.161C395.961 118.867 396.078 118.566 396.189 118.258C396.305 117.95 396.416 117.635 396.526 117.312C396.754 116.682 396.967 116.02 397.165 115.331C397.274 114.986 397.369 114.642 397.473 114.281C397.568 113.951 397.656 113.622 397.744 113.276C398.082 112.014 398.397 110.678 398.69 109.262C398.749 108.961 398.816 108.653 398.874 108.345C399.153 106.944 399.409 105.476 399.652 103.928C399.696 103.648 399.74 103.369 399.784 103.09C400.18 100.5 400.525 97.7045 400.834 94.6887C400.878 94.2631 400.922 93.8302 400.966 93.3899C401.054 92.5094 401.134 91.6142 401.216 90.7043C404.144 57.2367 435.094 45.5696 435.403 45.4522L435.66 45.3642L435.901 45.2548C440.201 43.3617 444.604 42.3197 448.288 42.3197C450.511 42.3197 454.445 42.7152 455.78 45.3502C458.018 49.7529 455.618 61.7795 441.486 81.1659L440.496 82.5161L440.113 84.1458C433.187 113.298 444.766 121.48 459.441 128.495C470.477 133.778 480.897 138.76 485.014 162.806C493.927 214.992 446.739 262.644 446.254 263.12Z" fill="#6C63FF"/>
<path id="finger4" d="M357.277 243.403C353.241 248.599 345 253.897 328.307 255.578C322.665 252.092 318.034 248.907 315.158 246.934C312.127 244.85 311.181 244.204 309.971 243.712C307.937 242.803 293.688 234.577 287.818 223.534C283.819 216.012 282.447 210.091 283.848 206.422C284.839 203.832 287.612 201.682 292.096 200.031C292.096 200.031 299.309 199.01 300.065 199.348C304.76 201.41 335.169 214.537 359.728 219.702C359.765 219.806 359.794 219.908 359.838 220.003C359.888 220.135 365.157 233.248 357.277 243.403Z" fill="#000069"/>
<path id="finger3" d="M383.656 214.926C381.799 215.652 379.392 215.975 376.552 215.975C358.017 215.975 321.402 202.1 304.693 194.953C304.693 194.953 304.686 194.953 304.686 194.946L294.787 186.037C290.612 182.28 286.767 176.776 289.937 164.456C290.591 161.926 291.719 158.772 293.078 157.691C298.333 153.514 322.187 151.615 322.876 151.997C323.067 152.106 342.417 162.835 362.596 172.036C379.164 179.594 390.12 183.359 397.472 184.856C399.116 192.545 399.476 208.748 383.656 214.926Z" fill="#000069"/>
<path id="finger2" d="M407.599 179.03C407.525 179.125 406.594 180.16 402.08 179.668C400.796 179.522 399.211 179.257 397.267 178.802C390.993 177.35 380.977 173.966 365.054 166.71C345.088 157.604 325.914 146.978 325.723 146.868C324.623 146.259 316.082 139.846 316.082 139.846C314.717 138.254 311.774 132.854 312.567 128.914C312.728 128.114 313.22 125.685 317.887 123.352C319.736 122.427 322.523 121.943 325.958 121.943C336.473 121.943 350.386 126.279 360.541 129.449C368.605 131.966 372.626 133.176 375.899 133.176H375.906C377.265 133.176 378.541 132.949 379.693 132.508C379.854 132.487 380.023 132.472 380.192 132.45C380.515 132.413 380.838 132.362 381.154 132.311C381.469 132.26 381.784 132.201 382.093 132.135C382.401 132.076 382.701 132.003 382.995 131.922C383.296 131.849 383.59 131.768 383.875 131.673C384.161 131.592 384.44 131.496 384.712 131.394C384.741 131.386 384.763 131.378 384.786 131.364C385.049 131.269 385.307 131.166 385.556 131.056C385.791 130.961 386.019 130.857 386.239 130.748C386.284 130.733 386.319 130.711 386.356 130.689C386.62 130.565 386.884 130.425 387.134 130.278C398.237 140.022 409.448 152.474 411.364 164.244C412.258 169.776 411.033 174.612 407.599 179.03Z" fill="#000069"/>
<path id="finger1" d="M446.254 263.12L445.139 264.236L444.493 265.688C443.781 267.289 441.279 271.947 437.999 275.029C437.419 275.147 436.142 275.315 433.633 275.315C433.625 275.315 433.625 275.315 433.625 275.315C429.501 275.315 424.072 274.875 417.776 274.369C409.381 273.694 399.864 272.923 390.068 272.923C385.372 272.923 381.108 273.099 377.036 273.452C376.258 273.526 375.443 273.555 374.614 273.555C362.888 273.555 348.462 267.135 336.414 260.368C348.191 258.16 356.717 253.698 361.913 246.999C367.474 239.83 367.951 231.736 367.24 225.888C367.218 225.705 367.195 225.521 367.166 225.338C367.012 224.215 366.814 223.173 366.608 222.256C366.542 221.933 366.461 221.625 366.388 221.331C366.351 221.185 366.314 221.045 366.278 220.906C369.969 221.471 373.44 221.794 376.566 221.794C380.161 221.794 383.302 221.368 385.79 220.4C403.121 213.634 405.455 196.735 403.634 185.648C403.892 185.656 404.134 185.663 404.375 185.663C408.83 185.663 410.95 184.276 412.227 182.633C416.659 176.939 418.317 170.43 417.151 163.297C415.015 150.177 403.51 136.926 391.697 126.44C391.858 126.249 392.019 126.058 392.166 125.853C392.32 125.661 392.46 125.471 392.606 125.273C392.775 125.031 392.952 124.774 393.128 124.51C393.253 124.311 393.385 124.114 393.502 123.908C393.649 123.681 393.789 123.439 393.928 123.197C393.943 123.175 393.957 123.145 393.972 123.123C394.097 122.902 394.221 122.682 394.332 122.456C394.47 122.205 394.596 121.949 394.728 121.684C394.86 121.421 394.985 121.156 395.109 120.877C395.242 120.606 395.367 120.32 395.484 120.033C395.609 119.747 395.726 119.462 395.843 119.161C395.961 118.867 396.078 118.566 396.189 118.258C396.305 117.95 396.416 117.635 396.526 117.312C396.754 116.681 396.967 116.02 397.165 115.331C397.274 114.986 397.377 114.642 397.473 114.281C397.568 113.951 397.656 113.622 397.744 113.276C398.082 112.014 398.397 110.678 398.69 109.262C398.749 108.961 398.816 108.653 398.874 108.345C399.153 106.944 399.409 105.476 399.652 103.928C399.696 103.648 399.74 103.369 399.784 103.09C400.18 100.5 400.525 97.7045 400.834 94.6887C400.878 94.2631 400.922 93.8302 400.966 93.3899C401.054 92.5094 401.134 91.6142 401.216 90.7043C404.144 57.2367 435.094 45.5696 435.403 45.4522L435.66 45.3641L435.901 45.2548C440.201 43.3617 444.604 42.3197 448.288 42.3197C450.511 42.3197 454.445 42.7152 455.78 45.3502C458.018 49.7529 455.618 61.7795 441.486 81.1659L440.496 82.5161L440.113 84.1458C433.187 113.298 444.766 121.48 459.441 128.495C470.477 133.778 480.897 138.76 485.014 162.806C493.927 214.992 446.739 262.644 446.254 263.12Z" fill="#000069"/>
</g>
</g>
</svg>
