<svg xmlns="http://www.w3.org/2000/svg" version="1.0" viewBox="0 0 1133.859 1133.858"><path fill="#000069" d="M800.417,287.232c0,0-0.03,0-0.08,0c-0.58,0.03-4.2,0.23-9.7,1.26c-0.01,0-0.01,0-0.01,0 c-10-1.069-19.01-4.689-23.21-12.05c-9.43-16.5-3.63-36.189,14.15-41.34c2.729,8.46,8.29,16.67,18.85,22.16 C831.627,273.492,800.417,287.232,800.417,287.232z"/><path fill="#6c63ff" d="M575.814,763.963c-14.697,8.165-33.768,14.698-33.768,14.698s4.36,5.992,17.978,5.992 c13.619,0,18.518,20.705,15.251,19.072c-3.264-1.634-15.79,0-27.236,3.265c-11.431,3.266-19.057,9.798-29.963,16.884 c-10.892,7.088-36.48,49.021-36.48,49.021s0,0,17.423,5.993c17.425,5.992,35.942-2.727,52.288-8.72 c16.345-5.992,34.861-25.049,35.402-13.618c0.552,11.446-1.229,18.532-9.798,23.431c10.35-4.36,31.594-25.063,27.774,2.593 c-9.797,48.344-73.53,51.326-99.133,51.326c-25.604,0-49.649-17.424-49.649-17.424s-20.616,9.26-50.023,29.41 c-29.409,20.149-88.242,27.234-88.242,27.234s-56.106,64.272-118.746,25.59c-6.531,1.095-31.04,28.871-33.767,39.223 c-2.727,10.352,13.08,21.243-5.453,22.337c-18.518,1.079-21.229-12.523-25.589-28.87c-4.359-16.344,24.51-41.394,24.51-41.394 s-18.516,0.539-29.408,3.807c-10.907,3.265-19.611,23.43-25.604,10.89c-5.992-12.523,10.338-27.775,24.51-36.494 c14.158-8.705,44.121-17.963,47.478-4.345c3.371,13.603,18.967,4.345,18.967,4.345s2.727,2.188-2.173-22.322 c-4.899-24.511,17.423-47.941,17.423-47.941s-7.071-3.266-20.689,1.632c-13.619,4.915-39.222-8.703-35.956-8.703 c3.266,0,27.775-12.525,19.611-11.985c-8.166,0.538-24.51-5.993-30.503-13.08c-3.701-4.359,4.824-4.374,11.91-3.76 c-6.247-1.199-14.336-4.074-20.854-15.672c-8.989-15.969,9.993-3.984,9.993-3.984s9.978,4.989-11.985-13.992 c-21.979-18.967-5.004-40.944-5.004-40.944s2.996,17.978,42.952,54.937c39.957,36.945,63.927,35.956,135.839,39.941 c71.912,4.001,93.875-43.94,115.853-60.916c21.978-16.988,34.952-61.933,34.952-61.933s-32.959,16.988-46.443,23.745 c-13.482,6.757-18.472-3.761-11.476-15.746c6.981-11.984,22.967-60.93,22.967-60.93c1.124-3.417,43.746-9.589,50.833-2.517 c7.086,7.086,35.401,27.236,52.841,29.422c17.423,2.173,54.457-18.517,69.71-22.336c15.25-3.807,14.71,13.618,10.8,25.603 C601.238,748.71,590.527,755.784,575.814,763.963z"/><path fill="#000069" d="M160.27,863.083c-1.647-0.36-3.745-0.571-6.113-1.035c4.405,0.389,8.241,1.035,8.241,1.035"/><path fill="#FFF" d="M163.49,986.935c-0.085,0-0.172-0.013-0.255-0.044c-0.386-0.141-0.587-0.563-0.45-0.95 c0.095-0.27,2.502-6.598,16.965-8.193c12.611-1.39,14.388-7.107,17.612-17.487c0.263-0.847,0.533-1.719,0.819-2.619 c0.126-0.394,0.547-0.609,0.941-0.487c0.393,0.127,0.612,0.548,0.486,0.941c-0.285,0.898-0.556,1.767-0.817,2.609 c-3.186,10.258-5.291,17.035-18.879,18.532c-13.408,1.478-15.697,7.154-15.719,7.212 C164.081,986.749,163.795,986.935,163.49,986.935z"/><path fill="#FFF" d="M317.637,973.866c-0.144,0-0.287-0.041-0.414-0.127c-0.345-0.229-0.438-0.694-0.208-1.037 c8.491-12.741,9.13-59.582,9.136-60.054c0.004-0.416,0.338-0.764,0.757-0.74c0.414,0.005,0.745,0.345,0.741,0.758 c-0.023,1.946-0.65,47.759-9.388,60.866C318.117,973.749,317.879,973.866,317.637,973.866z"/><path fill="#FFF" d="M530.021,888.385c-36.357,0-57.461-22.353-57.696-22.607c-0.28-0.304-0.261-0.776,0.042-1.058 s0.777-0.266,1.059,0.043c0.259,0.278,26.418,27.947,70.688,21.01c27.271-4.27,34.299-6.405,36.085-7.27 c-0.152-0.164-0.232-0.396-0.192-0.637c0.068-0.405,0.445-0.688,0.861-0.616c0.801,0.134,1.3,0.581,1.298,1.168 c-0.005,1.02-0.014,2.914-37.821,8.836C539.34,888.038,534.561,888.385,530.021,888.385z"/><path fill="#FFF" d="M453.693,767.056c-0.083,0-0.169-0.016-0.251-0.045c-0.39-0.139-0.593-0.566-0.454-0.957 c0.973-2.722,7.975-17.254,10.097-21.642c9.151-18.922,9.168-18.896,9.916-18.781c0.359,0.063,0.624,0.381,0.624,0.745 c0,0.197-0.076,0.375-0.2,0.508c-1.088,1.866-17.457,35.287-19.025,39.674C454.29,766.864,454,767.056,453.693,767.056z"/><path fill="#FFF" d="M145.999,825.646c-0.185,0-0.369-0.066-0.513-0.204c-7.666-7.214-17.323-25.132-17.731-25.892 c-0.196-0.364-0.059-0.818,0.305-1.014c0.366-0.194,0.82-0.059,1.015,0.306c0.099,0.184,9.949,18.462,17.438,25.51 c0.302,0.283,0.315,0.758,0.033,1.059C146.396,825.568,146.197,825.646,145.999,825.646z"/><path fill="#FFF" d="M170.796,849.094c-0.086,0-0.174-0.015-0.26-0.048c-9.449-3.52-16.698-14.258-17.002-14.714 c-0.229-0.343-0.137-0.81,0.207-1.038c0.344-0.231,0.809-0.139,1.04,0.207c0.071,0.106,7.288,10.793,16.277,14.14 c0.388,0.146,0.585,0.577,0.44,0.965C171.387,848.907,171.101,849.094,170.796,849.094z"/><path fill="#FFF" d="M152.311,839.625c-0.132,0-0.265-0.034-0.385-0.106c-4.57-2.742-14.865-15.415-15.301-15.953 c-0.261-0.321-0.211-0.792,0.11-1.055c0.323-0.261,0.792-0.209,1.055,0.113c0.104,0.127,10.563,13.003,14.906,15.61 c0.355,0.212,0.471,0.672,0.258,1.026C152.813,839.495,152.565,839.625,152.311,839.625z"/><path fill="#FFF" d="M152.312,856.308c-0.05,0-0.102-0.006-0.153-0.017c-11.083-2.31-15.463-12.634-15.644-13.072 c-0.159-0.382,0.022-0.819,0.405-0.978c0.385-0.153,0.819,0.024,0.979,0.404c0.042,0.103,4.275,10.033,14.565,12.179 c0.404,0.084,0.665,0.481,0.58,0.885C152.97,856.063,152.659,856.308,152.312,856.308z"/><path fill="#FFF" d="M169.277,875.185c-8.762,0-16.926-5.182-17.373-5.471c-0.348-0.224-0.448-0.688-0.224-1.033 c0.224-0.35,0.688-0.451,1.036-0.225c0.136,0.088,13.75,8.719,24.057,3.565c0.37-0.185,0.82-0.035,1.005,0.336 c0.185,0.369,0.035,0.821-0.335,1.003C174.809,874.681,172.014,875.185,169.277,875.185z"/><path fill="#FFF" d="M179.718,897.804c-5.637,0-9.098-2.236-9.336-2.395c-0.344-0.23-0.437-0.693-0.208-1.039 c0.228-0.343,0.693-0.438,1.038-0.211c0.373,0.246,9.261,5.923,22.18-2.262c0.351-0.217,0.813-0.117,1.034,0.233 c0.222,0.349,0.117,0.812-0.232,1.032C188.559,896.733,183.616,897.804,179.718,897.804z"/><path fill="#FFF" d="M304.26,973.866c-0.186,0-0.371-0.069-0.517-0.206c-0.3-0.287-0.31-0.761-0.024-1.06 c11.398-11.957,13.155-33.469,13.172-33.687c0.032-0.41,0.393-0.719,0.803-0.688c0.413,0.031,0.723,0.391,0.691,0.805 c-0.068,0.902-1.81,22.254-13.582,34.604C304.655,973.788,304.458,973.866,304.26,973.866z"/><path fill="#FFF" d="M247.448,1006.002c-0.391,0-0.72-0.306-0.747-0.701c-0.027-0.412,0.286-0.769,0.699-0.796 c0.206-0.012,20.706-1.502,37-14.715c0.322-0.261,0.793-0.209,1.053,0.111c0.262,0.322,0.212,0.793-0.109,1.055 c-16.676,13.518-37.638,15.032-37.846,15.044C247.481,1006.002,247.464,1006.002,247.448,1006.002z"/><path fill="#FFF" d="M277.208,988.868c-0.229,0-0.453-0.104-0.601-0.3c-0.249-0.331-0.181-0.8,0.15-1.05 c0.38-0.283,1.308-0.857,2.713-1.729c5.228-3.236,17.474-10.817,21.01-16.121c0.229-0.346,0.693-0.439,1.039-0.208 c0.345,0.229,0.437,0.696,0.208,1.038c-3.717,5.575-15.706,12.998-21.468,16.566c-1.271,0.786-2.276,1.408-2.603,1.654 C277.521,988.819,277.364,988.868,277.208,988.868z"/><path fill="#FFF" d="M162.397,1034.408c-0.011,0-0.023,0-0.035,0c-0.414-0.021-0.733-0.37-0.713-0.784 c0.169-3.66,7.63-18.466,8.48-20.143c0.186-0.37,0.638-0.514,1.006-0.33c0.37,0.188,0.517,0.639,0.33,1.008 c-2.27,4.474-8.189,16.708-8.32,19.534C163.127,1034.097,162.796,1034.408,162.397,1034.408z"/><path fill="#FFF" d="M122.102,991.122c-0.085,0-0.171-0.015-0.256-0.045c-0.388-0.141-0.59-0.57-0.448-0.96 c1.917-5.269,22.244-6.661,24.554-6.803c0.431-0.031,0.77,0.288,0.794,0.701c0.025,0.413-0.289,0.769-0.701,0.794 c-8.353,0.512-22.048,2.545-23.239,5.819C122.695,990.935,122.408,991.122,122.102,991.122z"/><path fill="#FFF" d="M291.636,987.966c-0.243,0-0.479-0.115-0.624-0.332c-0.229-0.344-0.137-0.811,0.208-1.039 c1.075-0.717,7.141-6.055,9.387-8.054c0.309-0.272,0.783-0.247,1.057,0.064c0.275,0.31,0.247,0.782-0.062,1.058 c-0.333,0.295-8.169,7.257-9.55,8.178C291.924,987.926,291.777,987.966,291.636,987.966z"/><path fill="#FFF" d="M306.063,956.793c-0.187,0-0.373-0.068-0.518-0.208c-0.299-0.284-0.31-0.758-0.023-1.059 c0.812-1.166,3.025-14.801,4.685-27.025c0.056-0.41,0.435-0.707,0.843-0.641c0.41,0.056,0.697,0.433,0.641,0.843 c-0.836,6.162-3.675,26.384-5.086,27.858C306.458,956.717,306.261,956.793,306.063,956.793z"/><path fill="#FFF" d="M354.888,885.164c-0.409,0-0.743-0.329-0.749-0.739c-0.004-0.413,0.326-0.752,0.739-0.76 c0.042,0,4.324-0.109,11.255-3.769c0.366-0.192,0.819-0.054,1.013,0.313c0.192,0.366,0.052,0.819-0.313,1.013 c-7.29,3.848-11.75,3.941-11.936,3.942C354.893,885.164,354.89,885.164,354.888,885.164z"/><path fill="#FFF" d="M375.5,877.204c-0.132,0-0.265-0.034-0.384-0.108c-0.354-0.211-0.47-0.666-0.259-1.021 c0.336-0.564,1.281-1.241,3.219-2.598c3.604-2.523,9.636-6.747,12.082-11.76c0.181-0.369,0.631-0.52,1.001-0.343 c0.371,0.182,0.526,0.629,0.345,1.003c-2.615,5.357-8.846,9.721-12.569,12.327c-1.217,0.853-2.596,1.818-2.79,2.138 C376.002,877.075,375.753,877.204,375.5,877.204z"/><path fill="#FFF" d="M407.062,756.211c-0.175,0-0.351-0.061-0.493-0.187c-0.311-0.271-0.343-0.745-0.07-1.056 c6.83-7.794,13.749-33.263,13.818-33.518c0.107-0.401,0.524-0.636,0.918-0.528c0.4,0.106,0.636,0.518,0.529,0.916 c-0.286,1.062-7.079,26.062-14.138,34.115C407.478,756.126,407.27,756.211,407.062,756.211z"/><path fill="#FFF" d="M411.399,778.845c-4.034,0-8.006-1.282-10.667-3.41c-0.322-0.258-0.375-0.729-0.117-1.053 c0.259-0.321,0.729-0.373,1.054-0.116c4.058,3.247,13.207,4.821,18.888,0.014c0.315-0.267,0.788-0.228,1.055,0.087 c0.267,0.316,0.228,0.789-0.088,1.056C418.704,777.809,415.026,778.845,411.399,778.845z"/><path fill="#FFF" d="M410.404,775.661c-1.003,0-1.909-0.322-2.703-0.964c-2.871-2.317-3.179-8.11-3.191-8.356 c-0.019-0.412,0.3-0.764,0.713-0.781c0.382-0.068,0.764,0.296,0.785,0.71c0.002,0.054,0.287,5.371,2.635,7.265 c0.673,0.539,1.439,0.731,2.354,0.576c0.408-0.071,0.794,0.209,0.861,0.616c0.069,0.41-0.208,0.793-0.615,0.863 C410.957,775.638,410.677,775.661,410.404,775.661z"/><path fill="#FFF" d="M606.535,727.14c-11.947,0-16.347-14.631-16.389-14.78c-0.117-0.397,0.112-0.813,0.508-0.927 c0.4-0.12,0.813,0.109,0.93,0.508c0.04,0.142,4.318,14.268,15.689,13.682c0.398-0.043,0.768,0.292,0.789,0.705 c0.021,0.414-0.295,0.768-0.707,0.789C607.078,727.133,606.804,727.14,606.535,727.14z"/><path fill="#FFF" d="M469.284,877.208c-0.105,0-0.214-0.021-0.316-0.07c-5.426-2.542-8.722-5.386-9.798-8.452 c-0.77-2.192-0.057-3.685-0.025-3.747c0.183-0.369,0.632-0.521,1.003-0.34c0.368,0.18,0.521,0.623,0.345,0.995 c-0.039,0.087-2.064,4.954,9.111,10.187c0.374,0.175,0.536,0.622,0.36,0.996C469.836,877.049,469.566,877.208,469.284,877.208z"/><path fill="#FFF" d="M504.455,888.399c-0.025,0-0.051-0.003-0.074-0.003c-13.081-1.277-23.634-7.126-23.74-7.185 c-0.36-0.203-0.49-0.658-0.287-1.02c0.202-0.362,0.657-0.489,1.02-0.288c0.103,0.059,10.396,5.757,23.152,7 c0.412,0.04,0.712,0.406,0.672,0.819C505.162,888.108,504.835,888.399,504.455,888.399z"/><path fill="#FFF" d="M481.008,893.279c-10.734,0-14.624-8.475-14.662-8.56c-0.167-0.378,0.002-0.819,0.38-0.987 c0.375-0.171,0.819,0,0.989,0.377c0.141,0.313,3.559,7.671,13.293,7.671c0.414,0,0.749,0.336,0.749,0.751 C481.757,892.944,481.421,893.279,481.008,893.279z"/><path fill="#b2b2b2" d="M269.647,573.107h13.112v13.118c0,1.677,1.37,3.046,3.048,3.046c1.687,0,3.051-1.369,3.051-3.046v-13.118 h13.117c1.682,0,3.047-1.365,3.047-3.051c0-1.683-1.365-3.047-3.047-3.047h-13.117v-13.117c0-1.683-1.364-3.049-3.051-3.049 c-1.678,0-3.048,1.366-3.048,3.049v13.117h-13.112c-1.683,0-3.048,1.364-3.048,3.047 C266.6,571.742,267.965,573.107,269.647,573.107z"/><path fill="#b2b2b2" d="M124.501,572.254h13.115v13.113c0,1.682,1.367,3.051,3.049,3.051c1.684,0,3.049-1.369,3.049-3.051v-13.113 h13.115c1.682,0,3.05-1.368,3.05-3.053c0-1.682-1.368-3.046-3.05-3.046h-13.115v-13.118c0-1.682-1.365-3.047-3.049-3.047 c-1.682,0-3.049,1.365-3.049,3.047v13.118h-13.115c-1.682,0-3.047,1.364-3.047,3.046 C121.454,570.886,122.819,572.254,124.501,572.254z"/><path fill="#b2b2b2" d="M190.916,500.716h13.115v13.112c0,1.683,1.364,3.047,3.05,3.047c1.682,0,3.047-1.364,3.047-3.047v-13.112 h13.117c1.682,0,3.047-1.37,3.047-3.052c0-1.684-1.365-3.05-3.047-3.05h-13.117V481.5c0-1.683-1.365-3.05-3.047-3.05 c-1.686,0-3.05,1.367-3.05,3.05v13.114h-13.115c-1.685,0-3.05,1.366-3.05,3.05C187.866,499.346,189.231,500.716,190.916,500.716z"/><path fill="#b2b2b2" d="M242.608,405.227h13.115v13.113c0,1.682,1.367,3.051,3.049,3.051c1.684,0,3.049-1.369,3.049-3.051v-13.113 h13.115c1.682,0,3.05-1.367,3.05-3.052c0-1.682-1.368-3.046-3.05-3.046h-13.115v-13.118c0-1.682-1.365-3.048-3.049-3.048 c-1.682,0-3.049,1.366-3.049,3.048v13.118h-13.115c-1.682,0-3.047,1.364-3.047,3.046 C239.562,403.859,240.927,405.227,242.608,405.227z"/><path fill="#b2b2b2" d="M355.387,144.737H368.5v13.118c0,1.677,1.37,3.046,3.048,3.046c1.687,0,3.051-1.369,3.051-3.046v-13.118 h13.117c1.682,0,3.047-1.366,3.047-3.052c0-1.682-1.365-3.047-3.047-3.047h-13.117v-13.117c0-1.682-1.364-3.048-3.051-3.048 c-1.678,0-3.048,1.366-3.048,3.048v13.117h-13.112c-1.683,0-3.048,1.365-3.048,3.047 C352.339,143.371,353.705,144.737,355.387,144.737z"/><path fill="#b2b2b2" d="M210.241,143.883h13.115v13.113c0,1.682,1.367,3.051,3.049,3.051c1.684,0,3.049-1.369,3.049-3.051v-13.113 h13.115c1.682,0,3.049-1.367,3.049-3.052c0-1.682-1.368-3.046-3.049-3.046h-13.115v-13.118c0-1.682-1.365-3.048-3.049-3.048 c-1.682,0-3.049,1.366-3.049,3.048v13.118h-13.115c-1.682,0-3.047,1.364-3.047,3.046 C207.194,142.516,208.559,143.883,210.241,143.883z"/><path fill="#b2b2b2" d="M862.838,1055.022c0,0-23.72,7.49-48.55,12.48c-24.83,4.989-87.53,17.479-100.01-9.99 c-12.49-27.46,44.94-42.45,44.94-42.45s-3.29-17.59-8.13-45c30.7,5.14,81.42,9.83,108.25-8.61 C861.388,1012.372,862.838,1055.022,862.838,1055.022z"/><path fill="#b2b2b2" d="M978.938,1083.732c-37.45,2.5-106.11-37.45-108.61-44.94c-1.58-4.729,5.8-48.239,10.82-88.8 c19,7.311,77.16,28.53,118.94,31.351c-4.061,18.85-9.35,34.88-16.15,46.21C1015.147,1041.282,1016.397,1081.232,978.938,1083.732z"/><path fill="#ffdcc8" d="M1000.088,981.343c-41.78-2.82-99.94-24.04-118.94-31.351c2.95-23.71,5.08-46.41,4.16-59.77 c-1.82-26.45-18.98-108.91-28.08-151.391l144.85-53.579c2.06,17.079,3.87,31.069,5.13,38.93 C1011.948,753.813,1018.428,896.343,1000.088,981.343z"/><path fill="#ffdcc8" d="M859.338,961.452c-26.831,18.44-77.55,13.75-108.25,8.61c-8.51-48.15-21.82-126.63-30.57-193.45 c-3.16-24.14-4.53-51.64-4.78-79.689c35.75,10.659,111.67,34,133.59,40.739c-1.1,16.99-1.66,40.03,1.03,60.181 C853.147,818.792,856.728,896.792,859.338,961.452z"/><path fill="#000069" d="M1002.078,685.253l-144.85,53.579c-3.36-15.659-5.63-25.89-5.63-25.89s-1.33,10.13-2.27,24.72 c-21.92-6.739-97.84-30.08-133.59-40.739c-0.48-55.811,3.51-113.761,6.82-151.561c43.96,15.811,157.36,49.88,246.85,18.57 c6.2-2.16,12.28-4.641,18.22-7.46C991.408,591.662,997.397,646.442,1002.078,685.253z"/><path fill="#838383" d="M987.628,556.473c-5.94,2.819-12.021,5.3-18.22,7.46c-89.49,31.31-202.89-2.76-246.85-18.57 c1.88-21.54,3.55-36.53,4.05-40.859c30.39-25.761,69.649-79.801,64.399-114.36c-4.64-30.58-33.31-60.74-50.75-76.58 c17.561-16.7,38.4-22.83,50.37-25.07c0,0,0,0,0.01,0c3.23,0.34,6.56,0.42,9.87,0.28c0.37,3.94,0.38,8.81-0.609,14.03 c-2.45,12.87,8.04,31.05,36.09,21.45c20.61-7.051,10.41-29.11,11.33-37.08v1.3c0,0,49.23-16.23,86.68,9.99 c4.75,3.329,9.84,8.8,15.1,15.85c-11.08,19.86-34.1,63.28-35.51,73.38c-15.14,9.91-46.96,22.061-52.64,47.79 c-0.99,4.48-1.19,9.36-0.37,14.72c5.51,36.16,66.8,80.601,81.82,80.29c9.54-0.2,21.41-4.71,31.32-7.2c3.99-1,7.67-1.68,10.74-1.6 c-0.34,0.16-0.521,0.24-0.521,0.24S985.397,535.832,987.628,556.473z"/><path fill="#b2b2b2" d="M726.608,504.503c0.1-0.851,0.149-1.29,0.149-1.29s-45.22,6.42-56.18-28.721 c-12.48-82.399,24.97-47.439,43.7-116.1c5.47-20.061,15.09-34.48,25.979-44.83c17.44,15.84,46.11,46,50.75,76.58 C796.257,424.702,756.998,478.742,726.608,504.503z"/><path fill="#ffdcc8" d="M810.479,195.452c-0.04,0-0.081-0.002-0.121-0.007c-0.524-0.063-0.909-0.524-0.878-1.052 c0.053-0.906,0.162-1.469,0.167-1.492c0.098-0.506,0.562-0.855,1.078-0.804c0.513,0.05,0.904,0.48,0.904,0.995 c0,0.107-0.008,0.685-0.166,1.541C811.373,195.112,810.955,195.452,810.479,195.452z"/><path fill="#b2b2b2" d="M1026.388,494.473c-3.49,9.3-37.32,25.1-41.93,27.22c-3.07-0.08-6.75,0.6-10.74,1.6 c-0.66-49.329-26.34-73.92-53.08-88.109c-26.14-13.86-49.41-5.141-59.69,0.3c5.68-25.729,37.5-37.88,52.64-47.79 c1.41-10.1,24.43-53.52,35.51-73.38C985.328,362.813,1029.658,485.753,1026.388,494.473z"/><path fill="#ffdcc8" d="M973.718,523.292c-9.91,2.49-21.78,7-31.32,7.2c-15.02,0.311-76.31-44.13-81.82-80.29 c-0.82-5.359-0.62-10.239,0.37-14.72c10.28-5.44,33.55-14.16,59.69-0.3C947.378,449.372,973.058,473.963,973.718,523.292z"/><path fill="#ffdcc8" d="M870.248,232.702c-0.53,1.94-1.33,3.5-2.42,4.59c-10.24,10.24-18.86,21.53-20.3,23.44 c-0.14,0.18-0.21,0.28-0.21,0.28v26.16c-0.92,7.97,9.28,30.029-11.33,37.08c-28.05,9.6-38.54-8.58-36.09-21.45 c0.99-5.221,0.979-10.09,0.609-14.03c-0.05-0.53-0.1-1.04-0.17-1.54c0.05,0,0.08,0,0.08,0s4.715-22.138,0-29.97 c-10.56-5.49-16.12-13.7-18.85-22.16c-0.521-1.61-0.93-3.22-1.26-4.82c-7.7-1.939-10.25-1.96-11.36-8.38 c-1.03-6.01,5.08-11.26,10.85-11.439c0.73-5.65,1.891-9.381,1.891-9.381c24,7.891,28.1-2.76,28.79-6.63 c-0.23,3.82,0.569,14.49,16.39,15.49c0,0,15.6,5.96,30.16-19.53c4,4.931,7.13,10.391,9.4,15.811c4.2-8.01,10.51-16.23,16.39-8.88 C890.508,206.952,880.428,227.683,870.248,232.702z"/><path fill="#000069" d="M847.527,260.732c1.44-1.91,10.061-13.2,20.3-23.44c1.09-1.09,1.89-2.649,2.42-4.59 c10.18-5.02,20.26-25.75,12.57-35.359c-5.88-7.351-12.189,0.87-16.39,8.88c-2.27-5.42-5.4-10.88-9.4-15.811 c-14.56,25.49-30.16,19.53-30.16,19.53c-15.82-1-16.62-11.67-16.39-15.49c0.149-0.81,0.149-1.34,0.149-1.359 c0,0-0.1,0.51-0.149,1.359c-0.69,3.87-4.79,14.521-28.79,6.63c0,0-51.351,7.94-54.72-25.149c-3.37-33.101,33.4-50.26,51.17-47.5 c17.78,2.76,37.39,22.37,39.23,31.26c3.98-21.46,19.61-20.54,24.82-15.63c5.21,4.9,5.28,8.77,5.13,17.46 c0,0,14.48-22.37,29.811-7.66c15.32,14.71-0.92,20.84-3.68,22.99c11.64-0.311,64.35-12.87,71.4,41.979 C951.277,268.883,875.308,300.313,847.527,260.732z"/><rect width="479.771" height="5.333" x="594.808" y="460.49" fill="#6c63ff" transform="matrix(0.8382 0.5453 -0.5453 0.8382 387.5828 -380.241)"/><path fill="#ffdcc8" d="M475.753,317.034c-0.271,0.69-0.34,1.44-0.19,2.19C475.423,318.475,475.492,317.725,475.753,317.034z"/><path fill="#6c63ff" d="M657.553,240.124c-13.33-78-77.33-35.329-61.33-102.67c46.67-64,12-80.659-21.33-66c0,0-49.34,18-54,71.341 c-2.3,26.189-6.2,37.43-10.29,42.399c-2.61,3.19-5.31,3.8-7.71,4.12c-1.479,0.2-2.84,0.29-4,0.81c-6,2.671-61.34-24-85.34-12 s-10,35.33-6,40c-21.33,6.671-32,0-38,23.33c-6,23.341,3.34,34.67,10,40.67c-25.33,9.33-21.851,29.311-11.92,47.99 c9.92,18.681,32.59,31.34,35.92,32.681c0.76,0.3,4.21,2.779,9.54,6.38c3.34,2.27,7.43,4.979,12.05,7.88 c20.36,12.77,51.15,29.17,75.08,27.069c38-3.329,80.67,7.03,88.67,0.181c8-6.851,12.66-17.51,12.66-17.51 S670.893,318.124,657.553,240.124z M411.373,195.845c0.22-1.09,0.89-4.4,7.25-7.58c2.52-1.26,6.319-1.92,11-1.92 c14.329,0,33.29,5.91,47.13,10.229c10.989,3.431,16.47,5.08,20.93,5.08h0.01c1.851,0,3.59-0.31,5.16-0.91 c0.22-0.029,0.45-0.05,0.68-0.08c0.44-0.05,0.881-0.119,1.311-0.189s0.859-0.15,1.28-0.24c0.409-0.09,0.829-0.18,1.229-0.29 c0.41-0.1,0.811-0.21,1.2-0.34c0.39-0.11,0.77-0.24,1.14-0.38c0.04-0.01,0.07-0.021,0.101-0.04c0.359-0.13,0.71-0.271,1.05-0.42 c0.32-0.13,0.63-0.271,0.93-0.42c0.061-0.021,0.11-0.05,0.16-0.08c0.36-0.17,0.72-0.36,1.06-0.561 c15.131,13.28,30.41,30.25,33.021,46.29c1.22,7.54-0.45,14.13-5.13,20.15c-0.101,0.13-1.37,1.54-7.521,0.87 c-1.75-0.2-3.91-0.561-6.56-1.18c-8.55-1.98-22.2-6.591-43.9-16.48c-27.21-12.41-53.34-26.89-53.6-27.04 c-1.5-0.83-13.14-9.57-13.14-9.57C414.303,208.574,410.293,201.215,411.373,195.845z M380.532,244.284 c0.891-3.449,2.351-7.85,4.28-9.22c1.55-1.11,5.16-1.7,9.34-2.39c4.54-0.74,10.19-1.67,16.78-3.73l11.821-1.649 c-2.552,3.918,1.729-0.511,2.669,0.01c0.26,0.149,26.63,14.77,54.13,27.31c22.58,10.3,37.51,15.431,47.53,17.471 c2.239,10.479,2.729,32.56-18.83,40.979c-2.53,0.99-5.811,1.43-9.681,1.43c-25.26,0-75.159-18.909-97.93-28.649 c0,0-0.01,0-0.01-0.01l-13.49-12.141C381.452,268.574,376.213,261.074,380.532,244.284z M475.563,319.225 c-0.149-0.75-0.08-1.5,0.19-2.19C475.492,317.725,475.423,318.475,475.563,319.225z M414.902,356.685 c-4.13-2.84-5.42-3.72-7.069-4.39c-2.771-1.24-22.19-12.45-30.19-27.5c-5.45-10.25-7.32-18.32-5.41-23.32 c1.351-3.53,5.13-6.46,11.24-8.71l7.29,0.311c0.419,2.208,2.541-1.701,3.571-1.24c6.399,2.81,47.84,20.699,81.31,27.739 c0.05,0.141,0.09,0.28,0.15,0.41c0.069,0.18,7.25,18.05-3.49,31.89c-5.5,7.08-16.73,14.301-39.48,16.591 C425.133,363.715,418.822,359.374,414.902,356.685z M593.563,378.744l-1.52,1.521l-0.88,1.979c-0.971,2.181-4.381,8.53-8.851,12.73 c-0.79,0.16-2.53,0.39-5.95,0.39c-0.01,0-0.01,0-0.01,0c-5.62,0-13.02-0.6-21.6-1.29c-11.44-0.92-24.41-1.97-37.761-1.97 c-6.399,0-12.21,0.24-17.76,0.72c-1.06,0.101-2.17,0.141-3.3,0.141c-15.98,0-35.64-8.75-52.06-17.971 c16.05-3.01,27.67-9.09,34.75-18.22c7.579-9.77,8.229-20.8,7.26-28.77c-0.03-0.25-0.061-0.5-0.101-0.75 c-0.21-1.53-0.479-2.95-0.76-4.2c-0.09-0.44-0.2-0.86-0.3-1.26c-0.05-0.2-0.1-0.391-0.15-0.58c5.03,0.77,9.761,1.21,14.021,1.21 c4.899,0,9.18-0.58,12.57-1.9c23.619-9.22,26.8-32.25,24.319-47.36c0.351,0.011,0.681,0.021,1.01,0.021c6.07,0,8.96-1.89,10.7-4.13 c6.04-7.76,8.3-16.63,6.71-26.351c-2.91-17.88-18.59-35.939-34.689-50.229c0.22-0.26,0.43-0.53,0.64-0.8 c0.21-0.261,0.4-0.521,0.6-0.79c0.23-0.33,0.471-0.681,0.711-1.04c0.17-0.271,0.35-0.54,0.51-0.82c0.2-0.31,0.39-0.64,0.58-0.97 c0.02-0.03,0.04-0.07,0.06-0.101c0.16-0.29,0.33-0.6,0.49-0.909c0.189-0.341,0.36-0.69,0.54-1.051c0.18-0.359,0.35-0.72,0.52-1.1 c0.181-0.37,0.351-0.76,0.511-1.15c0.17-0.39,0.329-0.779,0.489-1.189c0.16-0.4,0.32-0.811,0.471-1.23 c0.159-0.42,0.31-0.85,0.46-1.29c0.31-0.859,0.6-1.76,0.87-2.699c0.149-0.471,0.279-0.94,0.42-1.431 c0.13-0.45,0.25-0.899,0.369-1.37c0.461-1.72,0.891-3.54,1.29-5.47c0.08-0.41,0.171-0.83,0.25-1.25 c0.381-1.91,0.73-3.91,1.061-6.02c0.06-0.381,0.12-0.761,0.18-1.141c0.54-3.53,1.01-7.34,1.431-11.45 c0.06-0.58,0.119-1.17,0.18-1.77c0.12-1.2,0.229-2.42,0.34-3.66c3.99-45.61,46.17-61.51,46.59-61.67l0.351-0.12l0.329-0.149 c5.86-2.58,11.86-4,16.881-4c3.029,0,8.39,0.539,10.21,4.13c3.05,6-0.221,22.39-19.48,48.81l-1.35,1.84l-0.521,2.221 c-9.439,39.729,6.34,50.88,26.34,60.439c15.04,7.2,29.24,13.99,34.851,46.76C658.532,313.154,594.223,378.095,593.563,378.744z"/><path fill="#ffdcc8" d="M475.563,319.225c-0.149-0.75-0.08-1.5,0.19-2.19C475.492,317.725,475.423,318.475,475.563,319.225z"/><path fill="#ffdcc8" d="M472.303,351.874c-5.5,7.08-16.73,14.301-39.48,16.591c-7.689-4.75-14-9.091-17.92-11.78 c-4.13-2.84-5.42-3.72-7.069-4.39c-2.771-1.24-22.19-12.45-30.19-27.5c-5.45-10.25-7.32-18.32-5.41-23.32 c1.351-3.53,5.13-6.46,11.24-8.71l9.169,0.861c0.36,0.979,0.661-2.252,1.691-1.791c6.399,2.81,47.84,20.699,81.31,27.739 c0.05,0.141,0.09,0.28,0.15,0.41C475.862,320.164,483.043,338.034,472.303,351.874z"/><path fill="#ffdcc8" d="M508.253,313.064c-2.53,0.99-5.811,1.43-9.681,1.43c-25.26,0-75.159-18.909-97.93-28.649 c0,0-0.01,0-0.01-0.01l-13.49-12.141c-5.69-5.12-10.93-12.62-6.61-29.41c0.891-3.449,2.351-7.85,4.28-9.22 c1.55-1.11,5.16-1.7,9.34-2.39c4.54-0.74,10.19-1.67,16.78-3.73l14.49-1.64c0.29,0.949-0.94-0.521,0,0 c0.26,0.149,26.63,14.77,54.13,27.31c22.58,10.3,37.51,15.431,47.53,17.471C529.322,282.564,529.813,304.645,508.253,313.064z"/><path fill="#ffdcc8" d="M540.883,264.145c-0.101,0.13-1.37,1.54-7.521,0.87c-1.75-0.2-3.91-0.561-6.56-1.18 c-8.55-1.98-22.2-6.591-43.9-16.48c-27.21-12.41-53.34-26.89-53.6-27.04c-1.5-0.83-3.217-7.604-4.446-6.534l-8.693-3.036 c-1.86-2.17-5.87-9.529-4.79-14.899c0.22-1.09,0.89-4.4,7.25-7.58c2.52-1.26,6.319-1.92,11-1.92c14.329,0,33.29,5.91,47.13,10.229 c10.989,3.431,16.47,5.08,20.93,5.08h0.01c1.851,0,3.59-0.31,5.16-0.91c0.22-0.029,0.45-0.05,0.68-0.08 c0.44-0.05,0.881-0.119,1.311-0.189s0.859-0.15,1.28-0.24c0.42-0.08,0.829-0.18,1.229-0.29c0.41-0.1,0.811-0.21,1.2-0.34 c0.39-0.11,0.77-0.24,1.14-0.38c0.04-0.01,0.07-0.021,0.101-0.04c0.359-0.13,0.71-0.271,1.05-0.42c0.32-0.13,0.63-0.271,0.93-0.42 c0.061-0.021,0.11-0.05,0.16-0.08c0.36-0.17,0.72-0.36,1.06-0.561c15.131,13.28,30.41,30.25,33.021,46.29 C547.232,251.534,545.563,258.124,540.883,264.145z"/><path fill="#ffdcc8" d="M593.563,378.744l-1.52,1.521l-0.88,1.979c-0.971,2.181-4.381,8.53-8.851,12.73 c-0.79,0.16-2.53,0.39-5.95,0.39c-0.01,0-0.01,0-0.01,0c-5.62,0-13.02-0.6-21.6-1.29c-11.44-0.92-24.41-1.97-37.761-1.97 c-6.399,0-12.21,0.24-17.76,0.72c-1.06,0.101-2.17,0.141-3.3,0.141c-15.98,0-35.64-8.75-52.06-17.971 c16.05-3.01,27.67-9.09,34.75-18.22c7.579-9.77,8.229-20.8,7.26-28.77c-0.03-0.25-0.061-0.5-0.101-0.75 c-0.21-1.53-0.479-2.95-0.76-4.2c-0.09-0.44-0.2-0.86-0.3-1.26c-0.05-0.2-0.1-0.391-0.15-0.58c5.03,0.77,9.761,1.21,14.021,1.21 c4.899,0,9.18-0.58,12.57-1.9c23.619-9.22,26.8-32.25,24.319-47.36c0.351,0.011,0.681,0.021,1.01,0.021c6.07,0,8.96-1.89,10.7-4.13 c6.04-7.76,8.3-16.63,6.71-26.351c-2.91-17.88-18.59-35.939-34.689-50.229c0.22-0.26,0.439-0.521,0.64-0.8 c0.21-0.261,0.4-0.521,0.6-0.79c0.23-0.33,0.471-0.681,0.711-1.04c0.17-0.271,0.35-0.54,0.51-0.82c0.2-0.31,0.39-0.64,0.58-0.97 c0.02-0.03,0.04-0.07,0.06-0.101c0.17-0.3,0.34-0.6,0.49-0.909c0.189-0.341,0.36-0.69,0.54-1.051c0.18-0.359,0.35-0.72,0.52-1.1 c0.181-0.37,0.351-0.76,0.511-1.15c0.17-0.39,0.329-0.779,0.489-1.189c0.16-0.4,0.32-0.811,0.471-1.23 c0.159-0.42,0.31-0.85,0.46-1.29c0.31-0.859,0.6-1.76,0.87-2.699c0.149-0.471,0.289-0.94,0.42-1.431 c0.13-0.45,0.25-0.899,0.369-1.37c0.461-1.72,0.891-3.54,1.29-5.47c0.08-0.41,0.171-0.83,0.25-1.25 c0.381-1.91,0.73-3.91,1.061-6.02c0.06-0.381,0.12-0.761,0.18-1.141c0.54-3.53,1.01-7.34,1.431-11.45 c0.06-0.58,0.119-1.17,0.18-1.77c0.12-1.2,0.229-2.42,0.34-3.66c3.99-45.61,46.17-61.51,46.59-61.67l0.351-0.12l0.329-0.149 c5.86-2.58,11.86-4,16.881-4c3.029,0,8.39,0.539,10.21,4.13c3.05,6-0.221,22.39-19.48,48.81l-1.35,1.84l-0.521,2.221 c-9.439,39.729,6.34,50.88,26.34,60.439c15.04,7.2,29.24,13.99,34.851,46.76C658.532,313.154,594.223,378.095,593.563,378.744z"/><path fill="#000069" d="M475.563,319.225c-0.149-0.75-0.08-1.5,0.19-2.19C475.492,317.725,475.423,318.475,475.563,319.225z"/><path fill="#000069" d="M472.303,351.874c-5.5,7.08-16.73,14.301-39.48,16.591c-7.689-4.75-14-9.091-17.92-11.78 c-4.13-2.84-5.42-3.72-7.069-4.39c-2.771-1.24-22.19-12.45-30.19-27.5c-5.45-10.25-7.32-18.32-5.41-23.32 c1.351-3.53,5.13-6.46,11.24-8.71c0,0,9.83-1.391,10.86-0.93c6.399,2.81,47.84,20.699,81.31,27.739c0.05,0.141,0.09,0.28,0.15,0.41 C475.862,320.164,483.043,338.034,472.303,351.874z"/><path fill="#000069" d="M508.253,313.064c-2.53,0.99-5.811,1.43-9.681,1.43c-25.26,0-75.159-18.909-97.93-28.649 c0,0-0.01,0-0.01-0.01l-13.49-12.141c-5.69-5.12-10.93-12.62-6.61-29.41c0.891-3.449,2.428-7.747,4.28-9.22 c7.162-5.693,39.67-8.28,40.61-7.76c0.26,0.149,26.63,14.77,54.13,27.31c22.58,10.3,37.51,15.431,47.53,17.471 C529.322,282.564,529.813,304.645,508.253,313.064z"/><path fill="#000069" d="M540.883,264.145c-0.101,0.13-1.37,1.54-7.521,0.87c-1.75-0.2-3.91-0.561-6.56-1.18 c-8.55-1.98-22.2-6.591-43.9-16.48c-27.21-12.41-53.34-26.89-53.6-27.04c-1.5-0.83-13.14-9.57-13.14-9.57 c-1.86-2.17-5.87-9.529-4.79-14.899c0.22-1.09,0.89-4.4,7.25-7.58c2.52-1.26,6.319-1.92,11-1.92c14.329,0,33.29,5.91,47.13,10.229 c10.989,3.431,16.47,5.08,20.93,5.08h0.01c1.851,0,3.59-0.31,5.16-0.91c0.22-0.029,0.45-0.05,0.68-0.08 c0.44-0.05,0.881-0.119,1.311-0.189s0.859-0.15,1.28-0.24c0.42-0.08,0.829-0.18,1.229-0.29c0.41-0.1,0.811-0.21,1.2-0.34 c0.39-0.11,0.77-0.24,1.14-0.38c0.04-0.01,0.07-0.021,0.101-0.04c0.359-0.13,0.71-0.271,1.05-0.42c0.32-0.13,0.63-0.271,0.93-0.42 c0.061-0.021,0.11-0.05,0.16-0.08c0.36-0.17,0.72-0.36,1.06-0.561c15.131,13.28,30.41,30.25,33.021,46.29 C547.232,251.534,545.563,258.124,540.883,264.145z"/><path fill="#000069" d="M593.563,378.744l-1.52,1.521l-0.88,1.979c-0.971,2.181-4.381,8.53-8.851,12.73 c-0.79,0.16-2.53,0.39-5.95,0.39c-0.01,0-0.01,0-0.01,0c-5.62,0-13.02-0.6-21.6-1.29c-11.44-0.92-24.41-1.97-37.761-1.97 c-6.399,0-12.21,0.24-17.76,0.72c-1.06,0.101-2.17,0.141-3.3,0.141c-15.98,0-35.64-8.75-52.06-17.971 c16.05-3.01,27.67-9.09,34.75-18.22c7.579-9.77,8.229-20.8,7.26-28.77c-0.03-0.25-0.061-0.5-0.101-0.75 c-0.21-1.53-0.479-2.95-0.76-4.2c-0.09-0.44-0.2-0.86-0.3-1.26c-0.05-0.2-0.1-0.391-0.15-0.58c5.03,0.77,9.761,1.21,14.021,1.21 c4.899,0,9.18-0.58,12.57-1.9c23.619-9.22,26.8-32.25,24.319-47.36c0.351,0.011,0.681,0.021,1.01,0.021c6.07,0,8.96-1.89,10.7-4.13 c6.04-7.76,8.3-16.63,6.71-26.351c-2.91-17.88-18.59-35.939-34.689-50.229c0.22-0.26,0.439-0.521,0.64-0.8 c0.21-0.261,0.4-0.521,0.6-0.79c0.23-0.33,0.471-0.681,0.711-1.04c0.17-0.271,0.35-0.54,0.51-0.82c0.2-0.31,0.39-0.64,0.58-0.97 c0.02-0.03,0.04-0.07,0.06-0.101c0.17-0.3,0.34-0.6,0.49-0.909c0.189-0.341,0.36-0.69,0.54-1.051c0.18-0.359,0.35-0.72,0.52-1.1 c0.181-0.37,0.351-0.76,0.511-1.15c0.17-0.39,0.329-0.779,0.489-1.189c0.16-0.4,0.32-0.811,0.471-1.23 c0.159-0.42,0.31-0.85,0.46-1.29c0.31-0.859,0.6-1.76,0.87-2.699c0.149-0.471,0.289-0.94,0.42-1.431 c0.13-0.45,0.25-0.899,0.369-1.37c0.461-1.72,0.891-3.54,1.29-5.47c0.08-0.41,0.171-0.83,0.25-1.25 c0.381-1.91,0.73-3.91,1.061-6.02c0.06-0.381,0.12-0.761,0.18-1.141c0.54-3.53,1.01-7.34,1.431-11.45 c0.06-0.58,0.119-1.17,0.18-1.77c0.12-1.2,0.229-2.42,0.34-3.66c3.99-45.61,46.17-61.51,46.59-61.67l0.351-0.12l0.329-0.149 c5.86-2.58,11.86-4,16.881-4c3.029,0,8.39,0.539,10.21,4.13c3.05,6-0.221,22.39-19.48,48.81l-1.35,1.84l-0.521,2.221 c-9.439,39.729,6.34,50.88,26.34,60.439c15.04,7.2,29.24,13.99,34.851,46.76C658.532,313.154,594.223,378.095,593.563,378.744z"/><path fill="#000069" d="M803.45,247.809c-1.367,0-2.45-0.416-3.232-1.244c-3.937-4.169,0.692-37.427,0.787-37.712 c0.174-0.523,0.739-0.805,1.265-0.633c0.506,0.169,0.788,0.702,0.649,1.211c-0.49,2.293-4.071,32.771-1.247,35.761 c0.507,0.537,1.38,0.726,2.586,0.557c4.421-0.61,10.596-5.353,11.091-6.299c0.194-0.517,0.764-0.764,1.282-0.572 c0.517,0.194,0.773,0.784,0.58,1.301c-0.605,1.616-7.28,6.481-12.066,7.447C804.538,247.747,803.973,247.809,803.45,247.809z"/><path fill="#000069" d="M778.958,222.876c-0.528,0-0.97-0.414-0.998-0.947c-0.37-7.055-3.431-7.322-3.462-7.322 c-0.552-0.013-0.989-0.471-0.977-1.022c0.012-0.553,0.458-0.975,1.022-0.978c0.202,0.005,4.941,0.217,5.413,9.217 c0.029,0.552-0.395,1.022-0.946,1.052C778.994,222.876,778.976,222.876,778.958,222.876z"/><path fill="#000069" d="M873.355,218.741c-0.329,0-0.651-0.162-0.842-0.459c-2.111-3.28-2.796-6.673-2.038-10.083 c1.565-7.032,8.7-11.587,9.002-11.777c0.469-0.293,1.084-0.153,1.378,0.314c0.294,0.467,0.154,1.084-0.313,1.378 c-0.067,0.043-6.741,4.315-8.117,10.528c-0.635,2.866-0.04,5.746,1.77,8.558c0.299,0.464,0.165,1.083-0.3,1.382 C873.728,218.689,873.541,218.741,873.355,218.741z"/><path fill="#000069" d="M830.184,264.514c-2.872,0-4.647-0.458-4.898-0.527c-0.532-0.146-0.845-0.697-0.698-1.23 c0.147-0.53,0.697-0.839,1.228-0.698c0.244,0.066,21.802,5.453,41.964-26.256c0.296-0.467,0.914-0.604,1.38-0.308 c0.466,0.296,0.604,0.914,0.307,1.38C854.076,261.083,838.036,264.514,830.184,264.514z"/><path fill="#000069" d="M733.686,1012.985c-0.001,0,0,0-0.001,0c-9.026,0-16.431-4.12-22.008-12.244 c-3.071-4.474-3.962-7.791-2.725-10.142c1.146-2.177,3.933-3.235,8.518-3.235c14.96,0,44.575,11.393,45.829,11.878 c0.331,0.128,0.57,0.422,0.626,0.772s-0.077,0.705-0.351,0.932C762.978,1001.438,748.814,1012.985,733.686,1012.985z M717.469,989.364c-3.668,0-6.001,0.749-6.748,2.167c-0.835,1.586,0.065,4.38,2.604,8.077c5.182,7.549,12.032,11.377,20.359,11.377 c11.769,0,23.297-7.639,27.213-10.51C754.319,998.034,730.066,989.364,717.469,989.364z"/><path fill="#000069" d="M804.875,1008.467c-17.891,0-36.395-9.521-37.173-9.927c-0.364-0.188-0.575-0.581-0.533-0.988 c0.042-0.408,0.328-0.749,0.723-0.86c1.422-0.402,35.033-9.852,52.82-9.852c6.221,0,9.806,1.174,10.961,3.59 c0.965,2.019,0.154,4.587-2.48,7.852C823.738,1005.04,815.557,1008.467,804.875,1008.467z M771.011,997.911 c5.597,2.567,20.129,8.556,33.864,8.556c10.048,0,17.706-3.177,22.76-9.441c2.043-2.532,2.815-4.515,2.232-5.733 c-0.438-0.916-2.209-2.452-9.156-2.452C806.002,988.84,779.367,995.667,771.011,997.911z"/><path fill="#000069" d="M762.938,1031.264c-0.389,0-0.758-0.228-0.92-0.608c-0.216-0.508,0.02-1.095,0.528-1.312 c10.834-4.616-1.699-40.755-7.442-54.29c-0.216-0.509,0.021-1.096,0.53-1.312c0.508-0.214,1.095,0.021,1.311,0.53 c0.875,2.063,21.258,50.574,6.385,56.911C763.201,1031.238,763.068,1031.264,762.938,1031.264z"/><path fill="#000069" d="M949.771,1021.026c-0.001,0-0.001,0-0.002,0c-4.409,0-9.836-1.71-16.131-5.083 c-7.211-3.864-10.236-6.995-9.519-9.852c1.081-4.305,11.483-6.486,30.919-6.486c4.307,0,7.378,0.124,7.409,0.125 c0.499,0.021,0.906,0.405,0.954,0.902c0.042,0.436,0.972,10.729-4.318,16.555C956.771,1019.735,953.637,1021.026,949.771,1021.026z M955.038,1001.605c-20.446,0-28.376,2.568-28.979,4.973c-0.202,0.805,0.225,3.155,8.523,7.602 c6.001,3.216,11.111,4.847,15.188,4.847c0,0,0.001,0,0.001,0c3.279,0,5.914-1.07,7.832-3.183 c3.872-4.265,3.955-11.629,3.859-14.146C960.255,1001.661,957.929,1001.605,955.038,1001.605z"/><path fill="#000069" d="M989.142,1008.136c-11.157,0-22.358-9.32-22.83-9.718c-0.22-0.185-0.349-0.455-0.355-0.741 c-0.007-0.287,0.11-0.563,0.321-0.758c1.035-0.956,25.473-23.405,36.805-23.405c2.018,0,3.576,0.68,4.631,2.021 c1.864,2.367,2.017,6.641,0.467,13.064C1005.052,1001.563,998.646,1008.136,989.142,1008.136z M968.504,997.601 c2.847,2.168,11.947,8.535,20.638,8.535c8.459,0,14.211-6.059,17.094-18.006c1.716-7.11,0.896-10.102-0.094-11.358 c-0.667-0.847-1.667-1.258-3.06-1.258C993.656,975.514,972.992,993.575,968.504,997.601z"/><path fill="#000069" d="M967.035,1040.291c-0.28,0-0.558-0.116-0.755-0.345c-10.663-12.275-0.727-56.929-0.299-58.824 c0.122-0.538,0.657-0.878,1.196-0.755c0.539,0.122,0.877,0.657,0.755,1.196c-0.103,0.454-10.146,45.555-0.143,57.072 c0.362,0.416,0.318,1.048-0.099,1.41C967.5,1040.21,967.267,1040.291,967.035,1040.291z"/><path fill="#000069" d="M894.244,399.907c-0.297,0-0.591-0.132-0.788-0.384c-0.34-0.435-0.264-1.063,0.171-1.403 c7.561-5.92,14.254-10.122,20.123-13.057l34.449-71.187c0.24-0.497,0.841-0.702,1.335-0.465c0.497,0.241,0.705,0.839,0.465,1.336 l-33.363,68.942c15.395-6.938,24.604-4.849,28.556-3.129c3.188,1.39,5.36,3.607,5.533,5.65c0.083,0.969-0.311,1.813-1.078,2.316 c-4.48,2.939-32.921,0.453-36.148,0.16c-0.327-0.03-0.619-0.218-0.78-0.504c-0.045-0.08-0.079-0.165-0.1-0.252 c-5.249,2.785-11.161,6.597-17.757,11.762C894.677,399.838,894.459,399.907,894.244,399.907z M915.119,386.823 c12.03,1.03,30.612,1.879,33.43,0.033c0.074-0.049,0.211-0.139,0.182-0.475c-0.074-0.875-1.292-2.658-4.339-3.986 c-3.058-1.332-12.491-3.907-29.167,4.21L915.119,386.823z"/><path fill="#000069" d="M787.668,419.802c-0.131,0-0.264-0.025-0.393-0.08c-0.508-0.218-0.744-0.805-0.526-1.313 c1.293-3.026,0.677-6.486-1.83-10.285c-9.176-13.9-41.001-28.281-48.742-28.281c-0.552,0-1-0.447-1-1s0.448-1,1-1 c8.247,0,40.729,14.512,50.411,29.18c2.901,4.395,3.574,8.489,2,12.172C788.426,419.574,788.057,419.802,787.668,419.802z"/><path fill="#FFF" d="M846.413,716.971c-3.11,0-14.771-2.681-66.985-20.938c-31.895-11.153-63.646-22.81-63.963-22.926 c-0.519-0.19-0.784-0.765-0.594-1.283s0.766-0.786,1.283-0.594c49.71,18.258,125.367,44.938,130.467,43.723 c0.455-0.242,1.025-0.097,1.309,0.345c0.298,0.465,0.163,1.083-0.302,1.382C847.422,716.811,847.172,716.971,846.413,716.971z"/><path fill="#FFF" d="M868.625,716.966c-0.387,0-0.756-0.227-0.919-0.604c-0.218-0.507,0.016-1.096,0.523-1.313 c1.155-0.498,115.577-49.791,118.965-51.277c0.506-0.219,1.096,0.009,1.318,0.515s-0.009,1.096-0.514,1.317 c-3.395,1.488-117.822,50.784-118.978,51.281C868.891,716.939,868.756,716.966,868.625,716.966z"/><path fill="#FFF" d="M966.955,622.058c-0.152,0-0.307-0.035-0.452-0.108c-29.906-15.204-17.809-43.697-17.683-43.983 c0.222-0.507,0.812-0.737,1.317-0.513c0.505,0.222,0.736,0.811,0.515,1.316c-0.48,1.099-11.441,27.061,16.758,41.396 c0.492,0.25,0.688,0.853,0.438,1.345C967.671,621.857,967.32,622.058,966.955,622.058z"/><path fill="#FFF" d="M736.178,610.022c-0.294,0-0.586-0.129-0.783-0.378c-0.344-0.432-0.272-1.062,0.16-1.405 c18.446-14.666,25.328-41.187,25.396-41.452c0.136-0.535,0.686-0.854,1.214-0.725c0.536,0.136,0.86,0.68,0.724,1.215 c-0.069,0.272-7.121,27.446-26.089,42.528C736.616,609.951,736.396,610.022,736.178,610.022z"/><path fill="#FFF" d="M726.751,686.253c-0.381,0-0.745-0.219-0.912-0.588c-7.802-17.258-10.242-54.439-3.896-59.379 c0.436-0.341,1.063-0.261,1.403,0.175c0.339,0.436,0.261,1.064-0.175,1.403c-4.685,3.646-3.766,38.714,4.49,56.977 c0.228,0.503,0.004,1.096-0.499,1.323C727.029,686.225,726.889,686.253,726.751,686.253z"/><path fill="#FFF" d="M987.627,686.253c-0.207,0-0.416-0.064-0.595-0.197c-0.443-0.329-0.536-0.956-0.207-1.399 c4.299-5.788,1.296-43.45-0.224-57.474c-0.06-0.549,0.337-1.042,0.886-1.102c0.544-0.062,1.042,0.337,1.102,0.887 c0.568,5.24,5.389,51.412-0.159,58.882C988.234,686.113,987.933,686.253,987.627,686.253z"/><path fill="#ffdcc8" d="M710.722,385.485c0,0-7.468-0.482-4.818,5.058c2.65,5.543,7.227,6.506,13.249,21.682 c6.022,15.177,7.227,21.439,14.937,29.149c0,0,11.215,6.377,20.811,4.751c9.596-1.627,16.427,0.265,16.427,0.265 s20.493-14.901,21.306-27.265c0.813-12.36-2.114-28.302-12.523-22.446c0.977-6.83,0.813-17.223-7.807-15.776 c-8.621,1.448-10.735,7.972-10.735,7.972s3.253-18.868-5.855-17.078c-9.108,1.789-24.071,20.655-24.56,26.511 C723.325,392.286,710.722,385.485,710.722,385.485z"/><path fill="#ffdcc8" d="M866.672,430.113c0,0-9.613,0-18.054,6.917s-16.295,22.625-15.24,30.129 c1.055,7.504,4.923,13.248,8.206,14.42s8.393,0.469,8.393,0.469s1.337,4.221,4.737,6.448s6.096,2.579,6.917,2.462 c0.821-0.117,1.407,4.221,5.041,5.041c3.635,0.82,9.027-1.055,12.31-3.517s-1.324,5.298,1.641,6.213 c7.251,2.238,30.715-12.074,21.454-37.515C892.816,435.74,866.672,430.113,866.672,430.113z"/><path fill="#000069" d="M730.797,402.256c-0.024,0-0.047-0.001-0.072-0.003c-0.551-0.038-0.966-0.517-0.927-1.067 c0.023-0.328,0.68-8.149,10.456-19.226c8.049-9.119,14.512-11.804,17.877-11.268c1.368,0.217,2.397,0.972,2.898,2.127 c1.498,3.454,5.665,15.585-3.62,26.646c-0.355,0.424-0.986,0.478-1.409,0.123c-0.423-0.354-0.478-0.985-0.123-1.408 c8.547-10.183,4.7-21.377,3.317-24.565c-0.229-0.526-0.679-0.836-1.376-0.946c-2.931-0.475-9.026,2.64-16.066,10.616 c-9.332,10.573-9.955,17.969-9.96,18.042C731.756,401.854,731.317,402.256,730.797,402.256z"/><path fill="#000069" d="M776.515,404.796c-0.192,0-0.386-0.055-0.558-0.171c-0.458-0.308-0.58-0.93-0.271-1.388 c4.923-7.314,5.527-14.633,1.658-20.079c-0.558-0.785-1.305-1.226-2.284-1.348c-3.684-0.472-9.561,3.736-11.509,5.392 c-0.421,0.358-1.052,0.308-1.41-0.114c-0.358-0.421-0.307-1.052,0.114-1.409c0.314-0.267,7.732-6.526,13.053-5.853 c1.544,0.192,2.778,0.924,3.666,2.174c4.379,6.162,3.786,14.311-1.628,22.354C777.153,404.642,776.837,404.796,776.515,404.796z"/><path fill="#000069" d="M730.795,400.169c-0.233,0-0.467-0.081-0.656-0.246c-13.796-12.021-19.757-13.312-22.073-13.005 c-1.228,0.161-1.647,0.782-1.827,1.047c-0.078,0.116-0.143,0.195-0.184,0.238c-0.383,0.398-1.015,0.411-1.414,0.027 c-0.378-0.364-0.408-0.954-0.081-1.354c0.309-0.457,1.144-1.667,3.246-1.941c4.722-0.623,12.674,3.917,23.646,13.479 c0.417,0.363,0.46,0.994,0.097,1.411C731.352,400.053,731.075,400.169,730.795,400.169z"/><path fill="#000069" d="M859.824,492.4c-2.029,0-5.21-1.127-8.965-6.417c-6.142-8.655,4.167-36.906,4.609-38.104 c0.191-0.519,0.769-0.782,1.284-0.593c0.519,0.191,0.784,0.767,0.593,1.284c-2.908,7.89-9.449,29.781-4.855,36.255 c5.181,7.302,8.56,5.317,8.594,5.296c0.461-0.288,1.078-0.159,1.375,0.296c0.297,0.456,0.186,1.06-0.263,1.366 C862.114,491.84,861.255,492.4,859.824,492.4z"/><path fill="#000069" d="M871.155,497.63c-3.705,0-6.888-1.856-8.666-3.64c-5.249-5.266,4.742-35.441,5.899-38.865 c0.176-0.522,0.743-0.808,1.267-0.627c0.523,0.177,0.804,0.744,0.627,1.268c-4.215,12.478-9.673,33.506-6.377,36.813 c1.541,1.546,4.34,3.157,7.559,3.047c2.874-0.099,5.522-1.52,7.872-4.224c3.649-4.197,6.394-11.271,8.157-21.022 c0.099-0.544,0.62-0.899,1.162-0.807c0.543,0.099,0.905,0.619,0.806,1.162c-1.828,10.111-4.727,17.506-8.615,21.979 c-2.69,3.096-5.911,4.793-9.313,4.91C871.406,497.628,871.28,497.63,871.155,497.63z"/><path fill="#000069" d="M882.619,499.888c-0.482,0-0.969-0.02-1.459-0.061c-0.55-0.045-0.989-0.53-0.943-1.08 c0.044-0.551,0.484-0.968,1.049-0.918c2.903,0.238,11.559,0.948,19.79-14.881c8.186-15.742-8.871-36.35-9.044-36.556 c-0.355-0.423-0.3-1.054,0.123-1.409c0.423-0.354,1.054-0.3,1.409,0.122c0.743,0.884,18.091,21.834,9.288,38.765 C897.3,494.507,890.506,499.888,882.619,499.888z"/><path fill="#FFF" d="M857.227,739.832c-0.463,0-0.879-0.323-0.978-0.795c-9.219-43.93-0.1-96.588-0.006-97.114 c0.067-0.381,0.348-0.688,0.721-0.791c0.394-0.107,39.483-10.882,46.462-19.695c0.344-0.433,0.973-0.506,1.405-0.163 c0.433,0.343,0.506,0.972,0.164,1.405c-6.967,8.797-41.622,18.741-46.886,20.212c-0.992,6.038-8.501,54.758,0.098,95.736 c0.114,0.54-0.232,1.07-0.773,1.184C857.364,739.825,857.294,739.832,857.227,739.832z"/><path fill="#FFF" d="M857.228,643.097c-0.289,0-0.576-0.125-0.773-0.365c-0.351-0.428-0.289-1.058,0.139-1.408 c8.923-7.322,53.768-43.794,60.475-42.596c0.544,0.097,0.906,0.616,0.809,1.159c-0.097,0.544-0.62,0.908-1.16,0.81 c-4.461-0.795-38.469,25.446-58.855,42.174C857.676,643.022,857.451,643.097,857.228,643.097z"/><path fill="#000069" d="M791.006,391.143c-0.526,0-0.968-0.411-0.998-0.944c-1.586-28.26-49.959-75.444-50.447-75.918 c-0.396-0.384-0.407-1.017-0.022-1.414c0.385-0.396,1.017-0.406,1.414-0.021c2.017,1.954,49.423,48.203,51.053,77.242 c0.031,0.551-0.391,1.023-0.942,1.054C791.044,391.142,791.025,391.143,791.006,391.143z"/></svg>