<svg width="1134" height="1134" viewBox="0 0 1134 1134" fill="none" xmlns="http://www.w3.org/2000/svg">
<g id="Listen 1">
<g id="head">
<path id="face" d="M856.135 576.052C856.135 576.052 808.797 592.982 826.628 640.237C834.763 656.25 848.11 658.728 848.11 658.728C848.11 658.728 840.086 687.506 835.626 691.965C831.169 696.422 821.438 699.1 827.643 706.233C833.843 713.366 882.289 720.426 885.557 701.903C888.233 686.743 899.827 669.675 909.635 664.326C919.444 658.975 925.685 660.758 931.034 651.843C936.383 642.927 933.709 639.36 931.034 630.445C928.358 621.529 937.21 614.393 934.123 602.802C931.034 591.212 912.31 568.921 907.852 568.921C903.395 568.919 856.135 576.052 856.135 576.052Z" fill="#FFDCC8"/>
<path id="backhair" d="M912.893 633.875C912.893 633.875 924.317 628.364 929.707 631.334C934.787 634.132 933.591 646.251 933.591 646.251C933.591 646.251 956.524 645.859 962.241 621.523C969.902 588.912 955.998 600.124 949.757 598.341C943.516 596.557 912.893 609.645 912.893 609.645V633.875Z" fill="#A4A4A4"/>
<path id="Vector" d="M834.517 617.363C834.308 617.363 834.097 617.304 833.91 617.179C831.499 615.58 830.235 613.713 830.25 611.778C830.263 609.854 831.499 608.089 833.923 606.531C838.174 603.8 843.943 592.059 844.001 591.941C844.269 591.393 844.932 591.167 845.475 591.434C846.025 591.701 846.25 592.361 845.984 592.909C845.736 593.415 839.882 605.323 835.117 608.387C833.909 609.164 832.466 610.387 832.457 611.795C832.448 612.933 833.398 614.191 835.131 615.342C835.639 615.679 835.777 616.363 835.439 616.871C835.226 617.189 834.874 617.363 834.517 617.363Z" fill="#00003E"/>
<path id="Vector_2" d="M915.756 649.625C915.695 649.625 915.635 649.621 915.572 649.61C914.971 649.509 914.566 648.941 914.666 648.341C916.658 636.4 926.822 637.885 926.93 637.901C927.532 637.997 927.941 638.563 927.844 639.165C927.748 639.764 927.193 640.174 926.585 640.081C926.251 640.03 918.468 638.962 916.842 648.704C916.753 649.243 916.285 649.625 915.756 649.625Z" fill="#00003E"/>
<path id="Vector_3" d="M863.977 663.628C840.79 663.628 827.86 644.58 827.697 644.333C827.361 643.825 827.501 643.142 828.007 642.806C828.516 642.467 829.201 642.607 829.537 643.117C830.349 644.343 849.839 672.941 884.85 656.33C885.402 656.068 886.059 656.304 886.32 656.853C886.581 657.403 886.345 658.061 885.797 658.322C877.758 662.136 870.463 663.628 863.977 663.628Z" fill="#00003E"/>
</g>
<g id="hair">
<path id="hairmain" d="M939.773 607.254C933.067 609.231 924.691 610.17 915.535 609.843C875.134 608.502 819.645 582.708 825.624 513.646C827.248 506.518 829.74 500.516 832.8 495.433C847.721 470.725 876.405 468.161 888.24 468.161C871.297 546.637 939.773 489.574 964.574 551.979C964.574 551.979 976.178 596.571 939.773 607.254Z" fill="#A4A4A4"/>
<path id="hairfront" d="M926.807 605.372C924.526 607.089 920.667 608.713 915.536 609.843C875.135 608.502 819.646 582.708 825.625 513.646C827.249 506.518 829.741 500.516 832.801 495.433C827.65 522.517 834.52 552.707 834.52 552.707C834.52 552.707 843.767 506.281 842.002 534.566C840.214 562.85 867.886 575.015 882.171 568.921C896.454 562.826 923.232 551.815 934.788 565.202C946.338 578.592 937.514 597.347 926.807 605.372Z" fill="#757575"/>
</g>
<g id="boy">
<path id="Vector_4" d="M869.514 859.591C869.514 859.591 922.118 944.294 929.25 957.67C936.383 971.047 951.541 977.288 971.155 976.397C990.774 975.505 1003.26 973.722 1005.04 970.156C1006.82 966.59 987.205 943.405 979.181 934.489C971.156 925.572 923.009 845.325 919.444 839.975C915.877 834.626 872.185 804.31 865.944 809.661C859.703 815.01 869.514 859.591 869.514 859.591Z" fill="#FFDCC8"/>
<path id="Vector_5" d="M690.293 819.469C690.293 819.469 710.802 793.61 749.14 770.428C784.277 749.183 781.971 750.404 786.831 743.208C787.273 742.551 787.777 741.825 788.371 741.004C795.504 731.196 834.736 683.046 847.221 682.155C859.703 681.264 894.478 699.094 901.611 709.795C908.744 720.498 888.237 782.016 886.454 798.067C884.67 814.119 882.267 862.936 878.7 885.227C875.135 907.517 878.7 946.725 834.526 983.109C804.741 1007.64 733.092 873.857 718.827 850.674C704.559 827.494 690.293 819.469 690.293 819.469Z" fill="#00003E"/>
<path id="Vector_6" d="M848.11 688.396C848.11 688.396 813.336 690.178 802.637 705.337C791.937 720.497 790.155 748.137 792.828 751.703C795.504 755.271 848.11 688.396 848.11 688.396Z" fill="#00003E"/>
<path id="Vector_7" d="M1090.21 957.986C1090.07 958.574 1093.2 960.385 1090.21 965.302C1087.22 970.245 1073.03 972.175 1065.26 973.235C1057.5 974.269 1030.91 972.481 1031.05 973.963C1031.19 975.468 1029.57 975.776 1032.39 978.906C1034.18 991.894 1021.1 983.115 1021.1 983.115C1005.92 977.328 1005.05 970.15 988.106 957.679C971.167 945.185 942.623 903.274 927.467 885.438C919.397 875.957 900.712 848.496 884.451 822.635C884.451 822.635 884.451 822.635 884.428 822.611C870.17 799.88 865.537 780.028 863.867 772.944C860.289 757.791 869.703 739.587 869.703 739.587C869.703 739.587 873.581 680.671 901.605 709.802C914.666 723.381 930.973 751.969 945.398 780.513C963.492 816.304 978.648 852 980.718 857.72C984.436 867.979 1026.28 930.947 1032.7 935.137C1039.12 939.302 1077.08 945.725 1082.14 946.619C1087.22 947.537 1093.2 947.373 1094.09 950.808C1094.99 954.244 1090.37 957.398 1090.21 957.986Z" fill="#FFDCC8"/>
<path id="Vector_8" d="M687.072 1020.01C685.284 1019.85 682.649 1019.69 679.258 1019.52C652.175 1018.06 577.181 1015.83 499.365 1013.75C463.36 1012.79 426.724 1011.85 393.992 1011.03C329.421 1009.4 279.982 1008.25 279.982 1008.25L247.038 898.428L414.77 873.439L438.019 869.979L468.231 865.484C468.231 865.484 510.234 865.132 556.523 866.569C567.462 866.922 578.618 867.368 589.536 867.934C630.457 870.051 667.775 874.005 675.307 881.18C685.001 890.454 698.084 930.784 702.509 965.612C706.345 995.567 703.755 1021.47 687.072 1020.01Z" fill="#3868C9"/>
<path id="Vector_9" d="M679.258 1019.52C652.175 1018.06 577.181 1015.83 499.365 1013.75C464.961 994.154 424.135 970.598 420.347 964.928C415.733 957.987 429.406 902.522 438.019 869.979L468.231 865.484C468.231 865.484 510.234 865.132 556.523 866.569C567.462 866.922 578.618 867.368 589.536 867.934C628.762 922.923 662.602 986.528 679.258 1019.52Z" fill="#00003E"/>
<path id="Vector_10" d="M834.519 983.116C834.519 983.116 823.554 1007.47 737.266 1028.65C650.977 1049.83 577.252 939.232 577.252 939.232C577.252 939.232 543.533 1009.02 527.837 1007.47C523.295 1007.03 512.684 1001.9 499.93 994.836C468.632 977.541 424.299 948.646 424.299 948.646C424.299 948.646 432.981 935.986 445.478 902.357C466.657 841.176 534.12 758.817 534.12 758.817C534.12 758.817 583.535 764.3 690.298 819.459C705.781 827.482 719.829 836.613 732.487 846.379C807.152 903.841 834.519 983.116 834.519 983.116Z" fill="#3868C9"/>
<path id="Vector_11" d="M193.693 955.697L261.515 946.725L269.223 972.414L196.829 983.109C196.83 983.109 188.988 965.893 193.693 955.697Z" fill="#FFDCC8"/>
<path id="Vector_12" d="M438.418 1027.86L462.185 972.573L479.589 983.109L459.005 1034.92L438.418 1027.86Z" fill="#FFDCC8"/>
<path id="Vector_13" d="M945.398 780.514C927.113 787.197 884.451 822.636 884.451 822.636C884.451 822.636 884.451 822.636 884.428 822.612C870.17 799.881 857.816 778.395 856.147 771.313C852.568 756.161 851.803 730.637 851.803 730.637C851.803 730.637 873.581 680.672 901.606 709.804C914.666 723.381 930.974 751.97 945.398 780.514Z" fill="#00003E"/>
<path id="Vector_14" d="M486.946 1096.44C478.311 1108.2 469.698 1104.27 454.78 1106.63C439.884 1108.98 380.28 1121.54 358.301 1119.97C336.347 1118.39 301.05 1115.26 286.931 1094.86C272.812 1074.46 276.742 1067.54 279.871 1057.68C281.073 1053.91 283.286 1052.74 285.828 1052.86C289.992 1053 295.003 1056.5 297.92 1057.68C302.625 1059.56 323.005 1060.48 334.77 1057.68C346.537 1054.86 369.503 1051.73 383.506 1039.96C397.527 1028.2 410.87 1022.92 410.87 1022.92C410.87 1022.69 397.526 989.748 410.87 996.028C424.187 1002.31 429.694 1006.22 433.6 1005.44C437.529 1004.66 453.225 996.239 455.578 1009.09C457.931 1021.91 467.345 1016.64 475.181 1009.09C483.016 1001.51 491.653 1009.37 482.241 1028.97C482.241 1044.86 486.621 1064.32 486.924 1073.24C486.995 1075.35 486.856 1076.86 486.358 1077.61C483.818 1081.52 495.559 1084.67 486.946 1096.44Z" fill="#00003E"/>
<path id="Vector_15" d="M486.946 1096.44C478.311 1108.2 469.698 1104.27 454.78 1106.63C439.884 1108.98 380.28 1121.54 358.301 1119.97C336.347 1118.39 301.05 1115.26 286.931 1094.86C272.812 1074.46 276.742 1067.54 279.871 1057.68C281.073 1053.91 283.286 1052.74 285.828 1052.86C291.757 1070.39 303.402 1089.85 326.042 1093.85C368.986 1101.4 437.978 1087.28 454.077 1080.22C461.487 1076.98 474.758 1074.72 486.923 1073.24C486.994 1075.35 486.855 1076.86 486.357 1077.61C483.818 1081.52 495.559 1084.67 486.946 1096.44Z" fill="white"/>
<path id="Vector_16" d="M455.874 1064.3C455.874 1070.62 450.749 1075.75 444.424 1075.75C438.104 1075.75 432.979 1070.62 432.979 1064.3C432.979 1057.97 438.104 1052.85 444.424 1052.85C450.749 1052.85 455.874 1057.97 455.874 1064.3Z" fill="white"/>
<path id="Vector_17" d="M364.409 1064.35C364.177 1064.35 363.959 1064.2 363.884 1063.96C362.255 1058.85 353.707 1053.9 353.62 1053.85C353.355 1053.7 353.265 1053.36 353.416 1053.1C353.566 1052.83 353.907 1052.74 354.168 1052.89C354.536 1053.11 363.177 1058.11 364.935 1063.63C365.028 1063.92 364.869 1064.23 364.578 1064.32C364.521 1064.34 364.465 1064.35 364.409 1064.35Z" fill="white"/>
<path id="Vector_18" d="M378.658 1061.21C378.449 1061.21 378.248 1061.09 378.156 1060.89C375.745 1055.58 367.031 1049.67 366.942 1049.61C366.69 1049.44 366.621 1049.09 366.792 1048.84C366.964 1048.59 367.309 1048.52 367.559 1048.69C367.927 1048.94 376.621 1054.84 379.161 1060.43C379.286 1060.71 379.163 1061.03 378.887 1061.16C378.811 1061.19 378.733 1061.21 378.658 1061.21Z" fill="white"/>
<path id="Vector_19" d="M392.697 1058.22C392.467 1058.22 392.251 1058.07 392.174 1057.84C389.272 1049.16 378.53 1044.02 378.423 1043.97C378.148 1043.84 378.028 1043.51 378.158 1043.23C378.287 1042.96 378.619 1042.84 378.892 1042.97C379.351 1043.18 390.169 1048.37 393.22 1057.49C393.317 1057.78 393.161 1058.09 392.871 1058.19C392.815 1058.21 392.756 1058.22 392.697 1058.22Z" fill="white"/>
<path id="Vector_20" d="M403.728 1047.67C403.547 1047.67 403.368 1047.58 403.262 1047.41C397.458 1038.23 387.521 1037.36 387.422 1037.35C387.117 1037.33 386.89 1037.07 386.913 1036.76C386.936 1036.46 387.221 1036.21 387.506 1036.25C387.935 1036.29 398.098 1037.18 404.195 1046.82C404.356 1047.08 404.281 1047.42 404.022 1047.58C403.932 1047.64 403.828 1047.67 403.728 1047.67Z" fill="white"/>
<path id="Vector_21" d="M159.216 1036.39C144.748 1034.46 144.059 1025.02 134.827 1013.06C125.609 1001.13 85.961 954.888 76.788 934.855C67.624 914.839 53.416 882.378 64.53 860.196C75.642 838.013 83.593 838.138 93.751 836.145C97.627 835.389 99.721 836.766 100.837 839.052C102.718 842.769 102.05 848.851 102.418 851.976C103.025 857.008 112.007 875.323 120.117 884.297C128.244 893.261 142.02 911.902 159.063 918.53C176.119 925.18 187.151 934.351 187.151 934.351C187.355 934.238 209.841 906.714 210.74 921.434C211.628 936.132 210.845 942.837 213.403 945.892C215.973 948.964 230.9 958.684 220.764 966.92C210.643 975.143 219.785 980.869 230.176 984.111C240.585 987.347 237.839 998.695 216.125 999.855C202.195 1007.48 187.229 1020.67 179.552 1025.22C177.732 1026.3 176.342 1026.9 175.444 1026.83C170.798 1026.47 173.669 1038.29 159.216 1036.39Z" fill="#00003E"/>
<path id="Vector_22" d="M159.216 1036.39C144.748 1034.46 144.059 1025.02 134.827 1013.06C125.609 1001.13 85.961 954.888 76.788 934.855C67.624 914.839 53.416 882.378 64.53 860.196C75.642 838.013 83.593 838.138 93.751 836.145C97.627 835.389 99.721 836.766 100.837 839.052C88.312 852.672 76.838 872.234 84.201 894.011C98.204 935.304 143.724 989.037 157.647 999.764C164.054 1004.71 172.411 1015.26 179.552 1025.22C177.732 1026.3 176.342 1026.9 175.444 1026.83C170.798 1026.48 173.669 1038.29 159.216 1036.39Z" fill="white"/>
<path id="Vector_23" d="M172.48 993.694C166.937 996.729 159.974 994.698 156.941 989.151C153.901 983.609 155.939 976.651 161.48 973.612C167.027 970.574 173.986 972.61 177.021 978.155C180.057 983.7 178.027 990.656 172.48 993.694Z" fill="white"/>
<path id="Vector_24" d="M128.987 913.782C128.851 913.782 128.713 913.732 128.607 913.63C128.385 913.42 128.377 913.071 128.587 912.85C132.291 908.963 132.524 899.089 132.525 898.991C132.53 898.69 132.777 898.45 133.077 898.45C133.079 898.45 133.083 898.45 133.088 898.45C133.392 898.456 133.633 898.707 133.629 899.013C133.62 899.435 133.385 909.414 129.387 913.612C129.277 913.725 129.134 913.782 128.987 913.782Z" fill="white"/>
<path id="Vector_25" d="M138.584 924.771C138.468 924.771 138.352 924.735 138.253 924.661C138.009 924.478 137.96 924.132 138.143 923.889C141.642 919.219 142.639 908.74 142.65 908.635C142.678 908.332 142.961 908.112 143.249 908.136C143.554 908.164 143.777 908.432 143.749 908.736C143.708 909.179 142.711 919.633 139.027 924.551C138.916 924.694 138.75 924.771 138.584 924.771Z" fill="white"/>
<path id="Vector_26" d="M147.951 935.647C147.815 935.647 147.681 935.599 147.576 935.501C147.352 935.293 147.34 934.944 147.546 934.721C153.766 928.009 153.117 916.118 153.111 915.999C153.091 915.695 153.324 915.434 153.628 915.416C153.928 915.395 154.192 915.629 154.212 915.933C154.242 916.439 154.893 928.417 148.357 935.471C148.246 935.588 148.098 935.647 147.951 935.647Z" fill="white"/>
<path id="Vector_27" d="M162.502 940.254C162.411 940.254 162.318 940.232 162.234 940.185C161.966 940.038 161.87 939.702 162.018 939.435C167.273 929.957 163.272 920.805 163.231 920.713C163.106 920.435 163.231 920.109 163.509 919.984C163.784 919.86 164.11 919.983 164.238 920.259C164.414 920.653 168.513 929.993 162.984 939.969C162.883 940.152 162.695 940.254 162.502 940.254Z" fill="white"/>
<path id="Vector_28" d="M834.519 983.116C834.519 983.116 823.554 1007.47 737.266 1028.65C650.977 1049.83 577.252 939.232 577.252 939.232C577.252 939.232 543.533 1009.02 527.837 1007.47C523.295 1007.03 512.684 1001.9 499.93 994.836C514.683 969.398 548.805 902.734 558.476 898.993C569.794 894.618 598.141 907.635 615.156 935.096C632.171 962.581 748.935 1012.23 761.407 976.48C770.376 950.832 746.633 882.781 732.487 846.378C807.152 903.841 834.519 983.116 834.519 983.116Z" fill="#00003E"/>
<path id="Vector_29" d="M1003.79 972.568C1003.52 972.568 1003.24 972.467 1003.03 972.262C1002.75 971.996 1002.27 971.542 1001.61 970.924C980.654 951.135 965.433 935.485 956.377 924.404C941.577 906.301 884.126 824.094 883.547 823.266C883.197 822.767 883.32 822.079 883.82 821.731C884.32 821.382 885.007 821.505 885.353 822.003C885.933 822.83 943.336 904.968 958.085 923.007C967.081 934.014 982.236 949.595 1003.13 969.318C1003.79 969.942 1004.27 970.4 1004.55 970.667C1004.99 971.088 1005.01 971.786 1004.58 972.227C1004.37 972.455 1004.08 972.568 1003.79 972.568Z" fill="#00003E"/>
<path id="Vector_30" d="M1090.21 959.089C1090.19 959.089 1090.16 959.088 1090.14 959.087C1089.89 959.071 1064.63 957.442 1045.91 952.177C1045.32 952.012 1044.98 951.402 1045.14 950.816C1045.31 950.229 1045.92 949.89 1046.5 950.052C1065 955.255 1090.03 956.868 1090.28 956.885C1090.88 956.923 1091.35 957.448 1091.31 958.055C1091.27 958.64 1090.79 959.089 1090.21 959.089Z" fill="#00003E"/>
<path id="Vector_31" d="M1079 947.176C1078.98 947.176 1078.96 947.175 1078.93 947.174C1077.85 947.105 1052.43 945.48 1045.93 943.828C1045.34 943.678 1044.99 943.078 1045.14 942.488C1045.28 941.896 1045.89 941.537 1046.48 941.691C1052.78 943.292 1078.81 944.956 1079.07 944.972C1079.68 945.011 1080.14 945.534 1080.1 946.142C1080.07 946.727 1079.58 947.176 1079 947.176Z" fill="#00003E"/>
<path id="Vector_32" d="M780.89 961.63C780.696 961.63 780.498 961.579 780.319 961.47C752.904 944.782 762.338 898.77 762.754 896.819C762.881 896.225 763.46 895.843 764.062 895.969C764.659 896.096 765.038 896.682 764.913 897.278C764.814 897.74 755.391 943.713 781.467 959.585C781.988 959.902 782.153 960.581 781.835 961.101C781.627 961.441 781.263 961.63 780.89 961.63Z" fill="#00003E"/>
<path id="Vector_33" d="M495.574 987.202C495.067 987.202 494.613 986.852 494.499 986.337C494.085 984.462 500.623 974.019 523.33 939.073C531.479 926.529 539.907 913.558 545.818 904.058C554.842 889.553 563.552 871.287 567.852 857.369C564.949 856.521 562.593 853.539 561.348 849.099C560.108 844.675 560.112 838.644 563.055 835.858C564.102 834.869 565.958 833.896 568.877 834.892C570.418 835.416 571.523 836.589 572.16 838.379C573.457 842.008 572.692 848.295 570.523 855.957C588.261 863.575 701.283 933.689 732.294 968.024C764.151 1003.29 810.888 964.471 811.357 964.074C811.823 963.682 812.519 963.739 812.913 964.204C813.306 964.668 813.247 965.364 812.782 965.758C812.661 965.861 800.526 976.035 784.485 981.56C763.058 988.938 744.447 984.769 730.658 969.501C698.26 933.632 585.908 865.432 569.89 858.1C565.554 872.247 556.904 890.416 547.69 905.224C541.768 914.742 533.334 927.723 525.178 940.275C512.074 960.446 497.228 983.292 496.676 986.029C496.71 986.563 496.351 987.056 495.812 987.175C495.733 987.193 495.653 987.202 495.574 987.202ZM566.563 836.682C565.781 836.682 565.122 836.94 564.575 837.461C562.683 839.251 562.212 843.999 563.473 848.505C564.494 852.14 566.352 854.635 568.483 855.255C570.509 848.146 571.245 842.37 570.086 839.12C569.679 837.982 569.052 837.282 568.168 836.98C567.581 836.781 567.047 836.682 566.563 836.682Z" fill="#00003E"/>
<path id="Vector_34" d="M276.882 981.043C276.557 981.043 276.236 980.901 276.018 980.628C275.639 980.152 275.717 979.458 276.193 979.078C277.527 978.012 296.78 977.407 365.755 976.261C386.566 975.915 404.538 975.616 406.624 975.383C407.231 975.316 407.774 975.752 407.843 976.357C407.91 976.962 407.475 977.508 406.869 977.576C404.681 977.821 387.519 978.106 365.791 978.467C331.919 979.029 280.808 979.878 277.415 980.905C277.248 980.999 277.063 981.043 276.882 981.043Z" fill="#00003E"/>
<path id="Vector_35" d="M537.858 990.407C537.642 990.407 537.425 990.344 537.233 990.212C536.731 989.865 536.606 989.179 536.951 988.677L540.307 983.815C542.709 980.334 545.273 976.617 547.711 973.092C548.059 972.591 548.745 972.466 549.247 972.813C549.747 973.16 549.872 973.847 549.525 974.348C547.088 977.87 544.522 981.587 542.123 985.068L538.767 989.931C538.555 990.241 538.21 990.407 537.858 990.407Z" fill="#00003E"/>
<path id="Vector_36" d="M559.696 959.089C559.457 959.089 559.218 959.012 559.015 958.852C558.537 958.474 558.455 957.781 558.832 957.303C559.37 956.621 560.306 954.097 561.299 951.425C562.458 948.303 563.899 944.418 565.618 940.842C565.881 940.294 566.54 940.061 567.089 940.326C567.639 940.59 567.869 941.249 567.607 941.799C565.933 945.281 564.509 949.114 563.367 952.194C562.057 955.72 561.282 957.759 560.564 958.67C560.348 958.945 560.024 959.089 559.696 959.089Z" fill="#00003E"/>
<path id="Vector_37" d="M615.829 968.52C615.584 968.52 615.334 968.437 615.129 968.267C601.206 956.756 589.769 945.205 582.924 935.742C581.473 933.995 580.01 932.806 578.618 932.266C578.049 932.045 577.769 931.406 577.989 930.839C578.209 930.27 578.85 929.988 579.415 930.209C581.162 930.887 582.929 932.294 584.667 934.393C591.449 943.767 602.75 955.172 616.533 966.568C617.003 966.956 617.07 967.651 616.679 968.12C616.463 968.383 616.148 968.52 615.829 968.52Z" fill="#00003E"/>
<path id="Vector_38" d="M665.333 1002.17C665.154 1002.17 664.976 1002.12 664.808 1002.03C651.561 994.84 637.711 985.808 624.755 975.913C624.27 975.543 624.177 974.851 624.548 974.366C624.918 973.884 625.61 973.79 626.095 974.159C638.96 983.986 652.711 992.954 665.861 1000.09C666.395 1000.39 666.593 1001.05 666.303 1001.59C666.102 1001.96 665.723 1002.17 665.333 1002.17Z" fill="#00003E"/>
<path id="Vector_39" d="M708.942 1019.51C708.865 1019.51 708.787 1019.51 708.707 1019.49C699.823 1017.56 689.978 1014.15 679.443 1009.35C678.887 1009.1 678.644 1008.45 678.896 1007.89C679.148 1007.34 679.805 1007.09 680.357 1007.34C690.749 1012.07 700.445 1015.44 709.177 1017.33C709.771 1017.46 710.148 1018.05 710.019 1018.65C709.907 1019.16 709.451 1019.51 708.942 1019.51Z" fill="#00003E"/>
<path id="Vector_40" d="M741.022 1020.12C740.488 1020.12 740.018 1019.73 739.934 1019.18C739.841 1018.58 740.252 1018.02 740.856 1017.92C747.248 1016.94 754.098 1015.35 761.218 1013.21C761.802 1013.03 762.415 1013.36 762.593 1013.94C762.769 1014.53 762.437 1015.14 761.854 1015.32C754.637 1017.49 747.685 1019.1 741.192 1020.1C741.135 1020.11 741.078 1020.12 741.022 1020.12Z" fill="#00003E"/>
<path id="Vector_41" d="M791.472 1003.87C791.054 1003.87 790.656 1003.63 790.468 1003.23C790.214 1002.67 790.457 1002.02 791.011 1001.76C795.031 999.919 799.137 997.914 803.217 995.807C803.758 995.528 804.424 995.74 804.703 996.281C804.983 996.823 804.77 997.488 804.229 997.768C800.119 999.89 795.982 1001.91 791.93 1003.77C791.781 1003.84 791.627 1003.87 791.472 1003.87Z" fill="#00003E"/>
<path id="Vector_42" d="M526.753 996.206C526.512 996.206 526.269 996.127 526.066 995.965C525.589 995.585 525.511 994.89 525.893 994.415C526.918 993.13 528.969 989.723 531.988 984.287C532.283 983.755 532.955 983.561 533.487 983.858C534.019 984.153 534.214 984.825 533.916 985.358C530.797 990.98 528.735 994.393 527.617 995.793C527.399 996.063 527.078 996.206 526.753 996.206Z" fill="#00003E"/>
<path id="Vector_43" d="M537.96 976.709C537.785 976.709 537.606 976.667 537.44 976.579C536.904 976.291 536.701 975.622 536.988 975.086C539.142 971.064 541.561 966.482 544.384 961.079C544.666 960.538 545.334 960.33 545.873 960.611C546.411 960.893 546.62 961.56 546.34 962.1C543.514 967.511 541.09 972.098 538.934 976.127C538.735 976.498 538.354 976.709 537.96 976.709Z" fill="#00003E"/>
<path id="Vector_44" d="M549.612 954.525C549.442 954.525 549.267 954.485 549.106 954.401C548.565 954.12 548.354 953.454 548.634 952.913L554.929 940.776C555.208 940.233 555.876 940.023 556.415 940.304C556.955 940.584 557.167 941.25 556.887 941.79L550.592 953.93C550.396 954.309 550.011 954.525 549.612 954.525Z" fill="#00003E"/>
<path id="Vector_45" d="M759.508 1009.69C759.024 1009.69 758.578 1009.37 758.445 1008.88C758.286 1008.29 758.632 1007.68 759.22 1007.52C763.916 1006.25 768.695 1004.63 773.418 1002.72C773.979 1002.5 774.625 1002.77 774.856 1003.34C775.083 1003.9 774.811 1004.54 774.245 1004.77C769.438 1006.71 764.578 1008.36 759.798 1009.65C759.7 1009.68 759.604 1009.69 759.508 1009.69Z" fill="#00003E"/>
<path id="Vector_46" d="M730.496 1013.66C729.042 1013.66 727.592 1013.63 726.148 1013.57C725.539 1013.55 725.067 1013.03 725.093 1012.42C725.116 1011.82 725.631 1011.35 726.24 1011.37C733.414 1011.67 740.745 1011.2 748.033 1009.98C748.63 1009.88 749.203 1010.29 749.304 1010.89C749.403 1011.49 748.998 1012.06 748.397 1012.16C742.427 1013.16 736.423 1013.66 730.496 1013.66Z" fill="#00003E"/>
<path id="Vector_47" d="M716.2 1012.66C716.148 1012.66 716.096 1012.66 716.043 1012.65C708.176 1011.53 700.474 1009.5 693.156 1006.6C692.589 1006.37 692.311 1005.73 692.535 1005.17C692.76 1004.6 693.401 1004.32 693.968 1004.55C701.125 1007.38 708.658 1009.37 716.354 1010.46C716.958 1010.55 717.377 1011.11 717.291 1011.71C717.213 1012.26 716.741 1012.66 716.2 1012.66Z" fill="#00003E"/>
<path id="Vector_48" d="M684.788 1002.68C684.618 1002.68 684.443 1002.64 684.282 1002.56C677.53 999.046 673.868 996.081 673.715 995.956C673.243 995.572 673.172 994.877 673.558 994.405C673.942 993.933 674.638 993.863 675.11 994.247C675.146 994.276 678.77 997.205 685.299 1000.6C685.84 1000.88 686.049 1001.55 685.769 1002.09C685.572 1002.46 685.188 1002.68 684.788 1002.68Z" fill="#00003E"/>
<path id="Vector_49" d="M371.478 962.361C370.89 962.361 370.403 961.897 370.377 961.303C370.353 960.695 370.824 960.18 371.435 960.156C380.147 959.795 385.664 959.543 387.389 959.426C387.989 959.4 388.523 959.845 388.564 960.452C388.605 961.059 388.146 961.585 387.539 961.627C385.335 961.777 377.614 962.107 371.525 962.359C371.51 962.361 371.494 962.361 371.478 962.361Z" fill="#00003E"/>
<path id="Vector_50" d="M346.716 963.355C346.128 963.355 345.639 962.889 345.615 962.295C345.592 961.686 346.065 961.173 346.675 961.15C352.731 960.914 358.543 960.681 363.8 960.468C364.446 960.415 364.922 960.916 364.946 961.525C364.972 962.135 364.498 962.648 363.89 962.672C358.631 962.885 352.817 963.118 346.761 963.354C346.746 963.355 346.73 963.355 346.716 963.355Z" fill="#00003E"/>
<path id="Vector_51" d="M316.127 964.535C315.537 964.535 315.048 964.069 315.026 963.474C315.002 962.866 315.476 962.353 316.086 962.33C323.326 962.055 330.975 961.76 338.474 961.471C339.075 961.441 339.594 961.921 339.618 962.53C339.641 963.14 339.168 963.652 338.56 963.675C331.059 963.965 323.411 964.259 316.17 964.535C316.155 964.535 316.14 964.535 316.127 964.535Z" fill="#00003E"/>
<path id="Vector_52" d="M291.451 965.472C290.861 965.472 290.372 965.006 290.35 964.411C290.327 963.802 290.8 963.29 291.41 963.267L307.272 962.667C307.852 962.613 308.392 963.118 308.417 963.727C308.44 964.336 307.964 964.849 307.356 964.871L291.494 965.471C291.479 965.472 291.465 965.472 291.451 965.472Z" fill="#00003E"/>
<path id="Vector_53" d="M276.882 966.02C276.6 966.02 276.328 965.912 276.124 965.718C275.908 965.515 275.783 965.233 275.777 964.937C275.768 964.444 275.996 963.846 277.14 963.803L283.732 963.557C284.323 963.512 284.855 964.009 284.877 964.618C284.898 965.226 284.424 965.738 283.814 965.761L276.922 966.019C276.91 966.02 276.895 966.02 276.882 966.02Z" fill="#00003E"/>
<path id="Vector_54" d="M317.322 985.695C316.736 985.695 316.248 985.232 316.221 984.639C316.196 984.031 316.667 983.515 317.277 983.49C324.593 983.177 337.504 982.639 341.789 982.552C342.439 982.529 342.902 983.024 342.916 983.632C342.927 984.242 342.443 984.745 341.834 984.758C338.674 984.821 329.987 985.154 317.372 985.694C317.354 985.695 317.34 985.695 317.322 985.695Z" fill="#00003E"/>
<path id="Vector_55" d="M298.481 986.52C297.894 986.52 297.406 986.058 297.379 985.465C297.352 984.857 297.823 984.341 298.433 984.315L309.642 983.82C310.303 983.806 310.766 984.266 310.792 984.874C310.817 985.482 310.346 985.998 309.738 986.024L298.529 986.518C298.514 986.52 298.498 986.52 298.481 986.52Z" fill="#00003E"/>
<path id="Vector_56" d="M283.434 987.174C282.736 987.174 282.654 987.096 282.445 986.896L283.208 986.099L283.183 984.996C283.278 984.994 284.141 984.954 285.597 984.889L291.979 984.602C292.562 984.556 293.101 985.046 293.129 985.654C293.156 986.262 292.685 986.779 292.077 986.805L285.698 987.092C284.568 987.143 283.877 987.174 283.434 987.174Z" fill="#00003E"/>
</g>
<g id="buttons">
<path id="buttonpause" d="M306.274 370.185C306.274 374.22 303.001 377.493 298.965 377.493H68.724C64.687 377.493 61.415 374.22 61.415 370.185V139.943C61.415 135.907 64.686 132.635 68.724 132.635H298.966C303.001 132.635 306.275 135.907 306.275 139.943V370.185H306.274Z" fill="#3868C9"/>
<path id="buttonnormal" d="M595.568 370.185C595.568 374.22 592.295 377.493 588.26 377.493H358.018C353.981 377.493 350.709 374.22 350.709 370.185V139.943C350.709 135.907 353.98 132.635 358.018 132.635H588.261C592.295 132.635 595.569 135.907 595.569 139.943V370.185H595.568Z" fill="#3868C9"/>
<path id="buttonfast" d="M884.862 370.185C884.862 374.22 881.591 377.493 877.553 377.493H647.313C643.276 377.493 640.005 374.22 640.005 370.185V139.943C640.005 135.907 643.276 132.635 647.313 132.635H877.553C881.59 132.635 884.862 135.907 884.862 139.943V370.185Z" fill="#3868C9"/>
<path id="pause2" d="M164.901 335.31C164.901 338.661 162.184 341.378 158.833 341.378H141.144C137.792 341.378 135.076 338.66 135.076 335.31V174.817C135.076 171.465 137.793 168.749 141.144 168.749H158.833C162.185 168.749 164.901 171.466 164.901 174.817V335.31Z" fill="white"/>
<path id="pause1" d="M232.614 335.31C232.614 338.661 229.897 341.378 226.546 341.378H208.857C205.505 341.378 202.789 338.66 202.789 335.31V174.817C202.789 171.465 205.506 168.749 208.857 168.749H226.546C229.898 168.749 232.614 171.466 232.614 174.817V335.31Z" fill="white"/>
<path id="normal" d="M527.884 256.489L442.881 341.494C442.096 342.281 440.817 342.281 440.029 341.494L439.521 340.987V169.142L440.029 168.635C440.816 167.848 442.095 167.848 442.881 168.635L527.884 253.638C528.671 254.429 528.671 255.703 527.884 256.489Z" fill="#00003E"/>
<path id="fast2" d="M763.152 256.489L678.146 341.494C677.362 342.281 676.083 342.281 675.294 341.494L674.787 340.987V169.142L675.294 168.635C676.083 167.848 677.361 167.848 678.146 168.635L763.152 253.638C763.939 254.429 763.939 255.703 763.152 256.489Z" fill="white"/>
<path id="fast1" d="M860.347 256.489L775.344 341.494C774.56 342.281 773.28 342.281 772.492 341.494L771.984 340.987V169.142L772.492 168.635C773.279 167.848 774.559 167.848 775.344 168.635L860.347 253.638C861.134 254.429 861.134 255.703 860.347 256.489Z" fill="white"/>
</g>
<g id="stars">
<path id="Vector_57" d="M980.948 237.784L970.167 227.003L980.948 216.222C982.332 214.838 982.332 212.595 980.948 211.212C979.563 209.828 977.321 209.827 975.936 211.211L965.155 221.991L954.374 211.211C952.993 209.828 950.748 209.827 949.363 211.211C947.981 212.593 947.981 214.84 949.363 216.222L960.144 227.003L949.363 237.782C947.981 239.166 947.979 241.411 949.363 242.796C950.748 244.179 952.993 244.178 954.377 242.795L965.155 232.015L975.936 242.796C977.318 244.178 979.565 244.178 980.948 242.796C982.332 241.411 982.332 239.166 980.948 237.784Z" fill="#929292"/>
<path id="Vector_58" d="M624.621 462.112L613.84 451.331L624.621 440.55C626.005 439.165 626.005 436.923 624.621 435.54C623.237 434.156 620.994 434.155 619.61 435.539L608.829 446.319L598.048 435.539C596.666 434.156 594.421 434.155 593.036 435.539C591.655 436.921 591.655 439.168 593.036 440.55L603.817 451.331L593.036 462.11C591.655 463.494 591.652 465.739 593.036 467.123C594.421 468.506 596.666 468.505 598.05 467.122L608.829 456.342L619.61 467.123C620.992 468.505 623.239 468.505 624.621 467.123C626.005 465.739 626.005 463.494 624.621 462.112Z" fill="#929292"/>
<path id="Vector_59" d="M787.776 444.555L776.996 433.774L787.776 422.993C789.161 421.609 789.159 419.366 787.776 417.983C786.392 416.599 784.149 416.598 782.765 417.982L771.984 428.762L761.204 417.982C759.821 416.599 757.577 416.598 756.192 417.982C754.807 419.364 754.807 421.611 756.192 422.993L766.971 433.774L756.192 444.553C754.807 445.937 754.807 448.182 756.192 449.567C757.574 450.95 759.821 450.949 761.204 449.566L771.984 438.786L782.765 449.567C784.147 450.949 786.392 450.949 787.776 449.567C789.161 448.182 789.159 445.937 787.776 444.555Z" fill="#929292"/>
<path id="Vector_60" d="M675.457 546.395L666.574 537.512L675.457 528.629C676.598 527.488 676.598 525.641 675.457 524.501C674.316 523.36 672.469 523.359 671.328 524.5L662.445 533.382L653.562 524.5C652.423 523.36 650.574 523.359 649.433 524.5C648.294 525.639 648.294 527.49 649.433 528.629L658.316 537.512L649.433 546.393C648.294 547.534 648.292 549.383 649.433 550.524C650.574 551.664 652.423 551.663 653.564 550.523L662.445 541.641L671.328 550.524C672.467 551.663 674.318 551.663 675.457 550.524C676.598 549.383 676.598 547.534 675.457 546.395Z" fill="#929292"/>
<path id="Vector_61" d="M1072.98 453.195L1062.2 442.414L1072.98 431.633C1074.36 430.248 1074.36 428.006 1072.98 426.623C1071.59 425.239 1069.35 425.237 1067.97 426.622L1057.19 437.402L1046.41 426.622C1045.02 425.239 1042.78 425.237 1041.4 426.622C1040.01 428.004 1040.01 430.251 1041.4 431.633L1052.18 442.414L1041.4 453.192C1040.01 454.577 1040.01 456.821 1041.4 458.206C1042.78 459.589 1045.02 459.588 1046.41 458.205L1057.19 447.425L1067.97 458.206C1069.35 459.588 1071.6 459.588 1072.98 458.206C1074.36 456.822 1074.36 454.578 1072.98 453.195Z" fill="#929292"/>
</g>
</g>
</svg>
